<svg xmlns="http://www.w3.org/2000/svg" viewBox="0 0 3483.3 1919.1"><path d="M713.1 1203.7c114.8-103.7 243.4-349.9 243.4-490 0-141.3-75.8-225.4-277.9-174.2-273.3 69.3-443.3 466-443.3 702.6 0 128.6 48.2 173.8 108 158.7 18.4-4.7 37.9-19.9 44.8-37.8-26.4-30-39-82-39-145.1 0-221.6 145.8-580.1 358.3-634 10.3-2.6 18.4-4.7 31-5.5 67.7 12.7 96.5 78.9 96.5 167.3 0 139-71.2 332.7-172.3 447.9-29.9-2.8-55.1 1.3-71.2 12.3 59.7-173.6 132.1-406.7 155-452.7-17.2-4.8-34.4-5-50.5-1-44.8 11.4-85 59.4-119.4 160-85 246.6-170 520.8-251.5 698.8-43.6-32.6-86.1-58.6-134.4-46.3-93 23.6-136.7 93.2-136.7 155.2 0 71.2 55.1 130.7 156.2 105.1 50.5-12.8 97.6-51.1 141.3-107 41.3 29.7 87.3 49.1 137.8 36.3 153.9-39 296.3-228.9 296.3-413.8 0-73.6-27.6-118.3-72.4-136.8zm-501.8 583c-44.8-4.7-62-39.4-62-79.6 0-43.6 21.8-91.6 47.1-109.5 27.6 1.1 60.9 36.3 99.9 73.4-28.7 55.5-57.4 96.1-85 115.7zm280.2-91.6c-36.7-2.2-68.9-17-98.7-35.9 59.7-94.4 112.5-218 161.9-351.1 5.7-14.1 10.3-29 16.1-45.4 14.9 11.1 52.8 6.1 104.5-29.9 16.1 16.6 23 42.4 23 72.3-.1 124-116.1 332.5-206.8 390zm295.1-264.3c-1.1 25.6 11.5 40.7 33.3 35.2 59.7-15.1 166.5-245.4 268.7-556.1 5.7 3.1 12.6 7.1 20.7 9.7 13.8 5.7 24.1 10 24.1 26 0 35.6-164.2 342.5-164.2 398.8 0 48.2 37.9 82.2 82.7 70.9 59.2-15 125.8-106.6 183-211.7-1 11.9-1.6 23.1-1.6 33.6 0 79.2 72.3 113.7 161.9 91l1.1-.3c68.3-17.3 142.7-116.1 204.9-226.5-22.3 70.9-37.2 126-37.2 147.3 0 35.6 60.9 11 86.1 2.3 13.8-42.5 42.5-110.7 75.8-186.9 37.9 108.7 82.7 159.3 126.3 148.3 74-18.8 162.1-152.3 230.1-285-32.1 97.5-55.5 177.3-55.5 204.1 0 35.6 60.9 11 86.1 2.3 13.8-42.5 42.5-110.7 75.8-186.9 37.9 108.7 82.7 159.3 126.3 148.3 91.9-23.3 174.6-174 174.6-223.4 0-11.5-6.9-12-16.1-8.5-42.5 62.5-85 96.2-114.8 103.7-62 15.7-124-36.3-156.2-44.2 28.7 4.2 55.1 3.3 80.4-3.1 95.3-24.2 156.2-100.4 203.3-197.3 37.9-79.7 44.8-152.6 44.8-179 0-52.8-54-83.9-103.4-71.4-66.6 16.9-137.8 180.8-219.4 359.9 114.8-318.5 219.4-574.6 271-712.9 14.9-39.4-47.1-30.6-94.2-14-31 87.1-120.6 306.2-202.1 532.4-8.8 24.8-17.9 50.4-27.2 76.5-70 162.8-179.7 349.3-262.2 371.2-59.7 16.3-121.7-36.9-153.9-44.8 28.7 4.2 55.1 3.3 80.4-3.1 95.3-24.2 156.2-100.4 203.3-197.3 37.9-79.7 44.8-152.6 44.8-179 0-52.8-54-83.9-103.4-71.4C1898.2 606 1827 769.9 1745.5 949c114.8-318.5 219.3-574.6 271-712.9 14.9-39.4-47.1-30.6-94.2-14-31 87.1-120.6 306.2-202.1 532.4-21.2 59.5-44.2 124.3-65.8 187-73.3 150.6-169.7 296.3-270.7 335.8-31-3.6-44.8-24.2-44.8-61 0-10.3 1.1-22.1 2.3-35 11.5.5 21.8-.9 32.2-3.6 141.3-35.8 258.4-298.6 258.4-395.1 0-83.8-64.3-96.2-122.9-81.4-52.8 13.4-90.7 47.1-120.6 89.1-63.1 87.2-114.3 215.9-139 324.8-57.1 111.5-119.7 208.4-174.5 248.4 2.3-31.6 32.2-106.9 65.4-186.5 41.3-98.9 86.1-205.6 86.1-242.3 0-52.8-27.6-45.8-112.5-51.9-6.9-.6-10.3-5.4-10.3-14.6 0-10.3 2.3-17.8 8-30.7 37.9-84.2 67.7-137.7 93-179.7-12.6-18.6-34.4-24.6-56.3-19.1-43.7 11.1-90.7 72.4-90.7 194.1 0 19.5 1.1 34.1 5.7 46.8-138.8 345.2-210 449.3-276.6 551.2zm1634.1-913.6c3.4 6 5.7 14.6 5.7 26.1 0 90.7-99.9 329.6-219.3 361.1 81.5-180.3 184.9-384.5 213.6-387.2zm-462.8 117.2c3.4 6 5.7 14.6 5.7 26.1 0 90.7-99.9 329.6-219.3 361 81.5-180.2 184.9-384.4 213.6-387.1zm-413.4 101.3c5.7 3.1 8 11.8 8 24.4 0 83.8-101.1 343.7-204.4 387.1 32.2-149.3 142.4-394.3 196.4-411.5zm1009.4 296.6c48.2-12.2 101-96.8 101-138.1 0-29.9-41.4-38.9-85-27.9-47.1 11.9-82.7 94.5-82.7 118.6.1 34.4 38 54.7 66.7 47.4zm360.6-723c9.2-11.5 26.4-28.5 46-48.4 44.8-45.8 104.5-108 104.5-149.4 0-39-42.5-28.3-97.6-15.5-21.8 84.8-43.6 131.6-57.4 160.4-8 17-12.7 28.5-12.7 37.7 0 13.9 8 16.4 17.2 15.2z"/><path d="M3334.5 523.9c-63.2 11.8-116.7 26.6-162.2 43.4-9.5-83.4-32.8-159.7-32.8-196.6 0-67.7 114.8-147.4 182.6-195.6-11.5-45.3-39-83.1-81.5-72.4-58.6 14.8-92.9 87.7-164.7 287.4-88.1 229-232.9 476.8-293.5 527 20.7-116.6 167.7-426 167.7-508.7 0-40.2-27.6-55-73.5-43.4-29.9 7.6-63.2 22.9-97.6 30.5-2.3 6.3-3.4 12.4-3.4 18.1 0 10.3 6.9 15.5 26.4 10.5 12.7-3.2 29.9-9.8 52.8-23.7-8 79-175.7 420-175.7 532.6 0 39 44.8 58.7 87.3 47.9 33.1-8.4 79.2-55.6 127.5-126.3.1 43.6 38 84.4 124 62.6 99.9-25.3 158.5-145.8 158.5-280.1v-6.3c61.3-16.2 110.1-12.1 110.1-12.1 10.3-2.6 17.2 2.5 17.2 16.2 0 10.3-5.1 28.8-12 47.7-51.5 124.7-151.1 326.8-635.5 449.6-36.1 9.1-73.8 17-113.4 25.3-582.2 120.1-979 191.4-1111.2 224.9-529 134-659.5 328.6-687 371.6-13.7 18.9-18.9 37.4-18.9 49.4 0 13.7 5.1 21 17.2 18 6.9-1.7 15.5-7.4 27.5-19 58.4-56 219.8-150.2 592.6-244.6 334.9-84.9 515.3-128.9 1068.3-258.7 17.2-4.4 36.1-9.1 53.2-13.5 520.4-131.9 822.7-376.8 913.7-611.1 13.7-34.4 20.6-65.3 20.6-89.4-.1-49.9-26.8-72-84.3-61.2zm-257.8 87.6c-33 19.2-59.3 39.5-80.3 60.1 30.5-66 67.9-155.5 90.3-218.5-1.9 59.6-5.4 112.3-10 158.4zM3008.6 870c-13.6-5.1-31.7-22.1-48.4-41.8 25.1-69.6 64.8-116.2 108-147.5-14.9 101.6-36.6 161.9-59.6 189.3z"/></svg>
