<svg xmlns="http://www.w3.org/2000/svg" viewBox="0 0 254.9 78.4"><path d="M60.9 21.4c-9.4 0-15.9 20-20.4 38h-.3c1-6.7 5-20.5 7.7-26.4l8.3-21.9c-3.3-2.1-6.9-3.5-11-3.5-14.7 0-21.6 18.8-21.6 35.8 0 14.2 4.9 27.5 16.1 27.5 1.3 0 2.5-.5 3.2-.7-3.5-2-7.1-5.3-9.7-8.6l.2-.2C38 66.1 44.5 71 51.2 71c12.1 0 20.6-15.6 20.6-29.8-.1-10.2-4.4-19.8-10.9-19.8zm-17.5 41c2-6.7 4.6-14.9 7.5-20.5h.2c-2.7 12.2-5.5 19.6-7.7 20.5zm187-24.8c.6 0 1-.4 1-1s-.4-1-1-1-1 .4-1 1c-.1.5.4 1 1 1zm-13 10.1c-.6 0-1 .4-1 1s.4 1 1 1 1-.4 1-1-.4-1-1-1z"/><circle cx="216" cy="30.8" r=".7"/><path d="M227.9 43.3c-.2 0-.4.2-.4.4s.2.4.4.4.4-.2.4-.4-.2-.4-.4-.4zm-10.6 3.6c0-.2-.2-.4-.4-.4s-.4.2-.4.4.2.4.4.4c.3-.1.4-.2.4-.4zm9.9-1.5c-.4 0-.7.3-.7.7 0 .4.3.7.7.7.4 0 .7-.3.7-.7 0-.4-.3-.7-.7-.7z"/><path d="M235.4 33.8c-1 .6-1.6 1.2-1.6 1.9-.1 1 1 1.7 2.1 2.4s2.1 1.4 2.1 2.2c-.1 1-1.6 1.8-3 2.2-1.8.4-3.2-.1-4.6-.7-1.3-.5-2.6-1.1-4.3-.8-.2 0-.4.1-.6.1h-.3c-.7 0-1.3.3-1.6.8.1-.3.1-.5.1-.8 0-1.2-.5-2.2-1.2-2.9v-.1c1.3 0 2.4.2 3.2.4 0 .2.1.4.3.5 1.4.5 2.4 0 2.3-1.6 0-.1-.1-.1-.1-.2-.9-.6-2-.6-2.3-.1-1.6.5-2.6 0-3.8-.5-.2-.5-.4-.9-.7-1.3.3-.6.7-1.2.9-1.5.2 0 .3 0 .4-.1-.1-.2.3-.5 0-.7-.5-.3-.8-.2-.9.4v.1c-.1.7-.4 1-.7 1.4-.3-.3-.6-.6-.9-.8.3-.8.7-1.4 1-1.8.2-.3.9-.3.8-.7-.3-.9-.9-1.3-1.7-.6v.1c0 .3.1.6.2.8-.1.9-.4 1.4-.8 1.9-.5-.3-1-.5-1.5-.6.3-2.4.8-4.2.8-4.2 0-.1 0-.3-.1-.4-.1-.3.3-.9 0-1-.6-.3-1.1-.1-1.2.9v.1c.1.1.1.1.2.1v.6c.1 1.8-.2 2.8-.5 3.8h-.6c-3.2 0-5.7 2.6-5.7 5.7 0 .4 0 .7.1 1 .1 2-.3 6.5-4.3 12 2.9-7.7 4.1-16.5 4.1-20.2 0-6.5-2.8-10.1-9.1-10.1-16.4 0-20.2 25.1-21.3 37.7h-.2c0-5.6 1.3-23.8 9.1-33.2 0 0-3.1-4.5-9.6-4.5-15.8 0-20 22.9-21.3 37.7h-.2c.6-14.4 3.4-26.1 9.1-33.2-2.4-2.5-6.1-4.5-11-4.5-8.2 0-13.2 5.8-14.6 18.3-3.9 9.5-10.5 13.5-18.4 13.5-5.8 0-12.2-2.4-17-6.7l.1-.1c4.8 3.8 10.5 5.5 15.4 5.5 9.4 0 17.6-7.1 17.6-17.4 0-8.4-6.1-13.1-15.4-13.1-16.4 0-27.1 12.7-27.1 29.3-.4.5-.7 1-1.1 1.4-.2-1.9-.3-3.9-.3-5.9 0-11.5 3-25.4 7.3-35.1-3.7-2-7.4-3.6-12-3.6-12.4 0-17.4 20-17.4 37.4 0 13.7 3.8 25.9 13.6 25.9C92 70.9 96 67 99.1 62c2.9 5.8 8.6 8.9 18 8.9 14 0 21.2-7.4 24.7-15.1 1.5 10.1 6.2 15.1 12.8 15.1 6.3 0 8.8-4.2 9.8-7.1-.7-2.7-1.1-5.2-1.1-7.8 0-6 1.1-15.5 6.7-25.2l.3.1c-3.2 6.7-5.8 16.5-5.8 24.7 0 8.3 3.5 15.3 12.1 15.3 6.3 0 8.8-4.2 9.8-7.1-.7-1.8-1.1-4.5-1.1-7.6 0-5.9 1.1-15.7 6.7-25.3l.3.1c-3.2 6.7-5.8 16.6-5.8 24.7 0 8.4 3.6 15.3 11.1 15.3 11 0 16.4-15.5 18-24.3.4-1.3.6-1.9.8-2.2h.3c.3 0 .6 0 .8-.1.4 1 1.7 1.8 3.2 1.8 1.3 0 2.3-.5 2.9-1.3.4.3.9.4 1.7.2 0 0-.2 0-.4-.1h.3c1.1 0 2-.9 2-2 0-.7-.3-1.3-.9-1.6 1.4-.2 2.6.3 3.8.8 1.4.6 2.9 1.2 4.9.8 1.1-.3 3.3-1.2 3.4-2.6.1-1.1-1.1-1.9-2.3-2.7-1-.6-2-1.2-1.9-1.9 0-.5.5-1 1.4-1.5 1.3-.8 3.5-1.2 5.1-.5l.2-.4c-1.6-1-4-.5-5.5.4zm-112.8-8.1h.2c-2.9 5.8-4 12.4-4.7 20.9 0 0-.7 0-1.3-.3.8-7.7 2.3-15.4 5.8-20.6z"/></svg>