<svg xmlns="http://www.w3.org/2000/svg" viewBox="0 0 254.9 78.4" xml:space="preserve"><path d="M18.9 15.7H7.1v46.1H18.8c6.5 0 11.8-5.2 11.8-11.8v-3.4c0-4.4-2-7-3.3-8.2 1.3-1.2 3.3-3.8 3.3-8.2v-2.8c0-6.4-5.2-11.7-11.7-11.7zm7 4.8-2.3 2.3c-1.1-1.1-2.9-2-5.8-2l-5.3-.1-3.2-3.2h9.5c2.8.1 5.3 1.2 7.1 3zm-13.6.6v17.1l-.1.1v.1l-.1.1.1 18L9 59.6V17.9l3.3 3.2zm6.2 14.3c1 0 1.9-.4 2.6-1l2.1 2.1c-1.5 1.4-3.4 1.6-3.6 1.6h-6.4l3.1-2.7h2.2zm-.6-1.9v-7.1h.6c1 0 2 .4 2 1.6v3.5c0 1.1-.9 2-2 2h-.6zm3.2 8.8c-.7-.6-1.6-1-2.5-1h-2.2l-3-2.6h6.1c1.7.2 2.8.8 3.6 1.5l-2 2.1zm-.6 2.9v4c0 1.1-.9 2-2 2h-.6v-8h.6c1.1 0 2 1 2 2zM16 35.1l-3.2 2.8V21.7l3.2 3.2v10.2zm-3.4 3.7 3.4 2.9v11.1L12.7 56l-.1-17.2zm3.8 14.3h2.1c.9 0 1.8-.3 2.4-.9l2.3 2.3c-1.6 1.5-3.8 1.7-4 1.7l-6.1.1 3.3-3.2zm4.9-1.2c.7-.7 1.1-1.7 1.1-2.7v-4c0-1-.4-1.9-1-2.6l2-2c1.4 1.6 1.5 3.6 1.5 3.8v5.9c0 1.7-.6 3-1.3 3.8l-2.3-2.2zm2.1-12c-.5-.5-1.1-.9-1.9-1.2h3.1l-1.2 1.2zm1.1-1.7h-3.3c.7-.3 1.5-.7 2.3-1.4l1.2 1.2c-.1.2-.1.2-.2.2zm-3.1-4.1c.6-.7 1-1.6 1-2.6V28c0-1-.4-1.8-1-2.4l2.1-2.1c1.2 1.4 1.4 3.1 1.4 3.2v5.1c0 2.1-.7 3.5-1.5 4.4l-2-2.1zm-.3-8.8c-.7-.5-1.6-.8-2.6-.8h-2.2L13 21.2h4.7c2.7 0 4.4.8 5.4 1.9l-2 2.2zM16 59.9H9.5l3.2-3.1 6.7-.1s2.5-.2 4.3-1.9l2.2 2.2c-1.8 1.8-4.2 2.8-6.9 2.8h-3zm12.7-13.3V50c0 2.6-1 4.9-2.6 6.7l-2.2-2.2c.8-.9 1.5-2.3 1.5-4.2v-5.9s-.1-2.3-1.6-4.1l1.3-1.3c.5.4 1.3 1 1.9 2 1.2 1.5 1.7 3.4 1.7 5.6zm0-16.4c0 2.2-.6 4.1-1.7 5.7-.7.9-1.4 1.6-1.9 1.9l-1.3-1.3c.9-1 1.7-2.5 1.7-4.7v-5.1s-.2-1.9-1.6-3.5l2.3-2.3c1.6 1.7 2.5 4 2.5 6.6v2.7zM49.5 15.3c-7 0-12.6 5.6-12.6 12.6v21.7c0 7 5.6 12.6 12.6 12.6s12.6-5.7 12.6-12.6V27.9c0-7-5.7-12.6-12.6-12.6zm7.4 4.9-2.2 2.2c-1.3-1.3-3.2-2.2-5.2-2.2s-3.8.8-5.1 2l-2.2-2.3c1.9-1.8 4.5-2.9 7.3-2.9 2.9.2 5.5 1.4 7.4 3.2zm-7.4 3.6c-1 0-1.9.4-2.6 1.1l-2.1-2.2c1.2-1.2 2.9-1.9 4.7-1.9 1.9 0 3.6.8 4.9 2L52.2 25c-.7-.7-1.7-1.2-2.7-1.2zm1.8 3.6V49.5c0 .2 0 .3-.1.5v.1c-.1.9-.9 1.5-1.8 1.5s-1.7-.7-1.8-1.6V27.5c.1-1 .9-1.8 1.8-1.8 1 0 1.8.7 1.9 1.7zm-4.7-2.1c-.4.6-.7 1.3-.8 2V50.2c.1.8.4 1.4.9 2l-2.2 2.2c-1.1-1.2-1.8-2.8-1.8-4.6V27.7c0-1.8.7-3.4 1.8-4.6l2.1 2.2zm.4 27.2c.7.6 1.5 1 2.5 1s1.9-.4 2.5-1l2.2 2.3c-1.2 1.2-2.9 1.9-4.8 1.9-1.8 0-3.5-.7-4.7-1.9l2.3-2.3zm5.4-.4c.4-.5.6-1 .8-1.6.1-.3.1-.6.1-.9V27.9c0-.3 0-.5-.1-.8-.1-.6-.3-1.2-.7-1.7l2.2-2.2c1 1.2 1.7 2.8 1.7 4.5v22.1c0 1.8-.7 3.4-1.8 4.6l-2.2-2.3zm-13.6-2.6V27.9c0-2.9 1.2-5.5 3-7.5l2.2 2.3c-1.2 1.3-2 3.1-2 5v22.1c0 1.9.7 3.7 2 5L41.8 57c-1.8-1.9-3-4.5-3-7.5zm3.4 7.9 2.2-2.2c1.3 1.3 3.1 2 5.1 2 2 0 3.8-.8 5.1-2.1l2.2 2.3c-1.9 1.8-4.5 2.9-7.3 2.9s-5.4-1.1-7.3-2.9zm18-7.9c0 2.9-1.2 5.5-3 7.5L55 54.7c1.2-1.3 1.9-3.1 1.9-5v-22c0-1.9-.7-3.6-1.8-4.9l2.2-2.2c1.8 1.9 2.9 4.5 2.9 7.3v21.6zM80.2 15.6H68.5v46.1h11.8C86.7 61.7 92 56.5 92 50V27.3c0-6.4-5.3-11.7-11.8-11.7zm7 4.8-2.3 2.3c-1.3-1.3-3.3-1.9-5.8-1.9h-4.9l-3.3-3.3h9.3c2.7 0 5.2 1.1 7 2.9zM70.3 59.5V17.7l3.3 3.3v35.3l-3.3 3.2zM82.6 25c-.6-.5-1.3-.8-2.1-.8h-2.9l-3-3H79c2.4 0 4.2.6 5.4 1.8l-1.8 2zm-.8 2.5v22.4c0 .7-.6 1.3-1.3 1.3h-1.3v-25h1.3c.7-.1 1.3.5 1.3 1.3zm-7.7-6.1 3.2 3.2v28.1l-3.2 3.1V21.4zm3.6 31.7H80.5c.8 0 1.5-.3 2-.7l2.1 2c-1.7 1.6-4 1.8-4.2 1.8h-5.9l3.2-3.1zm5.2-1.1c.5-.6.8-1.3.8-2.1V27.5c0-.8-.3-1.5-.8-2.1l2-2c1.5 1.8 1.4 4.1 1.4 4.1v22.7c0 1.7-.5 2.9-1.3 3.8l-2.1-2zm-2.7 7.8h-9.4l3.2-3.1h6.5s2.6-.3 4.5-2l2.3 2.2c-1.9 1.8-4.4 2.9-7.1 2.9zm9.9-9.8c0 2.5-1 4.8-2.5 6.6l-2.2-2.2c.8-.9 1.5-2.3 1.5-4.1V27.6c0-.1.2-2.6-1.5-4.5l2.3-2.3c1.6 1.7 2.5 4 2.5 6.6V50zM106.9 29l-2.7-13.3h-11l8.3 29.3v16.8h10.7V45l8.5-29.3h-11.2L106.9 29zm6.8-8.8-2.2-2.6h6.1l-3.9 2.6zm-.3.4L107 43v-5.3l4-19.9 2.4 2.8zm-6.9 24.3v11.6l-3.2 3.2V45.1l3.2-.2zm.3 12 3.1 3.1h-6.2l3.1-3.1zm.3-.5V44.8l3.3.3v14.4l-3.3-3.1zm-.6-19.7v5.9l-6.2-22 2.3-2.7 3.9 18.8zM96.1 17.6h6.1l-2.2 2.6-3.9-2.6zm-.4 0zm.1.4 4.1 2.7 6.6 23.7-3.2.2L95.8 18zm7.6 41.9zm6.9 0zm.1-15.3-3.2-.3 6.7-23.7 4.3-2.8-7.8 26.8zm7.8-26.9-.1-.1h.1v.1zM148.1 27.5c0-6.4-5.2-11.8-11.8-11.8h-11.8v46.1h10.7V46.3h1c6.5 0 11.8-5.2 11.8-11.8v-7zm-5-7.2-2.4 2.4c-2.1-1.8-4.9-1.8-5-1.8H130l-3.2-3.2h9.6c2.5-.1 4.9.9 6.7 2.6zm-.8 7.2v7.7s0 2.3-1.6 3.9l-.1.1-2.1-2.1c.8-.7 1.4-1.8 1.4-3v-5.6c0-1.2-.5-2.2-1.4-2.9l2.2-2.2c.9.9 1.6 2.2 1.6 4.1zm-12.7-6.4v35.4l-3.1 3V18l3.1 3.1zm3.8 3.9v12.6l-3.4 3v-19l3.4 3.4zm-3.5 31.9 3.2 3.1h-6.3l3.1-3.1zm.2-15.3 3.4 3.1v14.9l-3.4-3.3V41.6zm3.6-3.6h2.2c.8 0 1.5-.2 2.1-.6l2.1 2.1c-1.1.9-2.6 1.4-4.5 1.4h-5.2l3.3-2.9zm4.3-3.9c0 1.1-.9 2-2 2h-.6v-9.7h.6c1.1 0 2 .9 2 2v5.7zm.1-8.9c-.6-.4-1.4-.7-2.2-.7h-2.2l-3.3-3.3h5.3c.2 0 2.8.1 4.6 1.7l-2.2 2.3zM133.4 60zm1-15.6h-.6l-3.2-3h5.2c2 0 3.7-.5 4.9-1.5l2.1 2.1c-1.7 1.5-3.9 2.4-6.4 2.4h-2zm11.8-9.9c0 2.8-1.2 5.4-3.1 7.2l-2.1-2.1.1-.1c1.8-1.8 1.7-4.2 1.7-4.3v-7.7c0-2.1-.7-3.6-1.7-4.5l2.3-2.3c1.7 1.8 2.8 4.2 2.8 6.8v7zM156 15.7l-7.9 46.1H159l.7-6.1h3l.8 6.1H174l-7.5-46.1H156zm-1.9 41.4 2.8 2.8h-6.2l3.4-2.8zm.3-.4.7-4.7 2.8 2.4-.7 5.2-2.8-2.9zm6.8-13.2.4 4h-.9l.5-4zm0-9.4-1.1-12.9h2.1l-1 12.9zm1.1-13.4H160l-2.1-3.2h6.8l-2.4 3.2zm-2.5 2.3 1.2 13.9-2.2 11.7-3.4 2.4 4.4-28zm-1 26.1h4.4l3.1 2.1h-10.6l3.1-2.1zm4.9-.3-2.2-12 1.1-13.8 4.4 28-3.3-2.2zm4.2 7.9-2.8 2.9-.6-5.3 2.7-2.3.7 4.7zm.2.4 3.3 2.8h-6l2.7-2.8zm.2-.4L162.7 21l2.3-3.1 6.8 41.6-3.5-2.8zm-10.8-38.8 2.1 3.1-5.7 35.6-3.5 2.9 7.1-41.6zm.6 35.9-2.5-2h10.9l-2.3 2h-6.1zM177.8 61.7h10.7V15.6h-10.7v46.1zm5.4-4.7 3 2.9h-6l3-2.9zm.2-.5V21.1l3.2-3.2v41.8l-3.2-3.2zm-.3-35.9-3.3-3.1h6.4l-3.1 3.1zm-.2.5v35.5l-3.2 3V18l3.2 3.1zM211 31.3l-5.6-15.7h-10.6v46.1h10.7V46.1l5.6 15.7h10.3V15.7H211v15.6zm.9 7 2.2 15.8-12.2-33.4 2.3-3 7.7 20.6zm3.1 17.9-2-13.8 3 13.8h-1zm-.1.5h1.2l3.2 3.2h-6.5l2.1-3.2zm1.7-.2V20.6l3.1-2.8v41.8l-3.1-3.1zm-.2-36.4-2.9-2.6h5.7l-2.8 2.6zm-.3.5v33.6l-3.2-14.5V17.8l3.2 2.8zm-12.3 39.1-3.3-3h-.1V22.9l3.4 15.3v21.5zm-2.3-39.2-1.3-.1-3.3-2.9h6.8l-2.2 3zm-1.6.3v36.1l-3.1 2.7V18.1l3.1 2.7zm.4 36.4 3 2.7h-6l3-2.7zm.1-36.3h1l2 13.3-3-13.3zm4.2 17.4-2.3-15.1 12.2 33.3-2 3.1-7.9-21.3zM227.9 15.6v10.7h6.2v35.4h10.7V26.4h6.1V15.6h-23zm18 5.5 3.1-3.2v6.3l-3.1-3.1zm-.5-.3h-12.2l-3.2-3.3h18.6l-3.2 3.3zm-2.5 38.9-3.3-3.4V21.6l3.3 3.3v34.8zm-7-35 3.2-3.1v34.8l-3.2 3V24.7zm3.6 32.1 2.9 3.1h-6.2l3.3-3.1zm-6.7-35.7-3 3.2V18l3 3.1zm-2.6 3.4 3-3.1h5.4l-3.2 3.1h-5.2zm13 0-3.2-3.1h5.4l3.1 3.1h-5.3z"/></svg>