<?xml version="1.0" encoding="utf-8"?>
<svg version="1.1" xmlns="http://www.w3.org/2000/svg" xmlns:xlink="http://www.w3.org/1999/xlink"
	 viewBox="0 0 254.9 78.4" xml:space="preserve">
	<path d="M18.9,15.7H7.1v46.1h9.8h0.9h1c6.5,0,11.8-5.2,11.8-11.8v-3.4c0-4.4-2-7-3.3-8.2c1.3-1.2,3.3-3.8,3.3-8.2v-2.8
		C30.6,21,25.4,15.7,18.9,15.7z M25.9,20.5l-2.3,2.3c-1.1-1.1-2.9-2-5.8-2l-5.3-0.1l-3.2-3.2h9.5C21.6,17.6,24.1,18.7,25.9,20.5z
		 M12.3,21.1l0,17.1l-0.1,0.1l0,0.1l-0.1,0.1l0.1,18L9,59.6V17.9L12.3,21.1z M18.5,35.4c1,0,1.9-0.4,2.6-1l2.1,2.1
		c-1.5,1.4-3.4,1.6-3.6,1.6h-6.4l3.1-2.7H18.5z M17.9,33.5v-7.1h0.6c1,0,2,0.4,2,1.6v3.5c0,1.1-0.9,2-2,2H17.9z M21.1,42.3
		c-0.7-0.6-1.6-1-2.5-1h-2.2l-3-2.6l1,0h5.1c1.7,0.2,2.8,0.8,3.6,1.5L21.1,42.3z M20.5,45.2v4c0,1.1-0.9,2-2,2h-0.6v-8h0.6
		C19.6,43.2,20.5,44.2,20.5,45.2z M16,35.1l-3.2,2.8l0-16.2l3.2,3.2V35.1z M12.6,38.8l3.4,2.9v11.1L12.7,56L12.6,38.8z M16.4,53.1
		h2.1c0.9,0,1.8-0.3,2.4-0.9l2.3,2.3c-1.6,1.5-3.8,1.7-4,1.7l-6.1,0.1L16.4,53.1z M21.3,51.9c0.7-0.7,1.1-1.7,1.1-2.7v-4
		c0-1-0.4-1.9-1-2.6l2-2c1.4,1.6,1.5,3.6,1.5,3.8v5.9c0,1.7-0.6,3-1.3,3.8L21.3,51.9z M23.4,39.9c-0.5-0.5-1.1-0.9-1.9-1.2h3.1
		L23.4,39.9z M24.5,38.2h-3.3c0.7-0.3,1.5-0.7,2.3-1.4l1.2,1.2C24.6,38.2,24.6,38.2,24.5,38.2z M21.4,34.1c0.6-0.7,1-1.6,1-2.6V28
		c0-1-0.4-1.8-1-2.4l2.1-2.1c1.2,1.4,1.4,3.1,1.4,3.2v5.1c0,2.1-0.7,3.5-1.5,4.4L21.4,34.1z M21.1,25.3c-0.7-0.5-1.6-0.8-2.6-0.8
		h-2.2l-3.3-3.3l4.7,0h0c2.7,0,4.4,0.8,5.4,1.9L21.1,25.3z M16,59.9H9.5l3.2-3.1l6.7-0.1c0,0,2.5-0.2,4.3-1.9l2.2,2.2
		c-1.8,1.8-4.2,2.8-6.9,2.8H16z M28.7,46.6V50c0,2.6-1,4.9-2.6,6.7l-2.2-2.2c0.8-0.9,1.5-2.3,1.5-4.2v-5.9c0,0-0.1-2.3-1.6-4.1
		l1.3-1.3c0.5,0.4,1.3,1,1.9,2C28.2,42.5,28.7,44.4,28.7,46.6z M28.7,30.2c0,2.2-0.6,4.1-1.7,5.7c-0.7,0.9-1.4,1.6-1.9,1.9l-1.3-1.3
		c0.9-1,1.7-2.5,1.7-4.7l0-5.1c0,0-0.2-1.9-1.6-3.5l2.3-2.3c1.6,1.7,2.5,4,2.5,6.6V30.2z"/>
	<path d="M49.5,15.3c-7,0-12.6,5.6-12.6,12.6v21.7c0,7,5.6,12.6,12.6,12.6s12.6-5.7,12.6-12.6V27.9C62.1,20.9,56.4,15.3,49.5,15.3z
		 M56.9,20.2l-2.2,2.2c-1.3-1.3-3.2-2.2-5.2-2.2c-2,0-3.8,0.8-5.1,2l-2.2-2.3c1.9-1.8,4.5-2.9,7.3-2.9C52.4,17.2,55,18.4,56.9,20.2z
		 M49.5,23.8c-1,0-1.9,0.4-2.6,1.1l-2.1-2.2c1.2-1.2,2.9-1.9,4.7-1.9c1.9,0,3.6,0.8,4.9,2L52.2,25C51.5,24.3,50.5,23.8,49.5,23.8z
		 M51.3,27.4c0,0.2,0,0.3,0,0.4v21.7c0,0.2,0,0.3-0.1,0.5v0.1c-0.1,0.9-0.9,1.5-1.8,1.5c-0.9,0-1.7-0.7-1.8-1.6v-0.1
		c0-0.1,0-0.3,0-0.4V27.9c0-0.1,0-0.2,0-0.3v-0.1c0.1-1,0.9-1.8,1.8-1.8C50.4,25.7,51.2,26.4,51.3,27.4L51.3,27.4L51.3,27.4z
		 M46.6,25.3c-0.4,0.6-0.7,1.3-0.8,2c0,0.2,0,0.4,0,0.6v21.7c0,0.3,0,0.4,0,0.6c0.1,0.8,0.4,1.4,0.9,2l-2.2,2.2
		c-1.1-1.2-1.8-2.8-1.8-4.6V27.7c0-1.8,0.7-3.4,1.8-4.6L46.6,25.3z M47,52.5c0.7,0.6,1.5,1,2.5,1c1,0,1.9-0.4,2.5-1l2.2,2.3
		c-1.2,1.2-2.9,1.9-4.8,1.9c-1.8,0-3.5-0.7-4.7-1.9L47,52.5z M52.4,52.1c0.4-0.5,0.6-1,0.8-1.6c0.1-0.3,0.1-0.6,0.1-0.9V27.9
		c0-0.3,0-0.5-0.1-0.8c-0.1-0.6-0.3-1.2-0.7-1.7l2.2-2.2c1,1.2,1.7,2.8,1.7,4.5v22.1c0,1.8-0.7,3.4-1.8,4.6L52.4,52.1z M38.8,49.5
		V27.9c0-2.9,1.2-5.5,3-7.5l2.2,2.3c-1.2,1.3-2,3.1-2,5v22.1c0,1.9,0.7,3.7,2,5L41.8,57C40,55.1,38.8,52.5,38.8,49.5z M42.2,57.4
		l2.2-2.2c1.3,1.3,3.1,2,5.1,2c2,0,3.8-0.8,5.1-2.1l2.2,2.3c-1.9,1.8-4.5,2.9-7.3,2.9C46.7,60.3,44.1,59.2,42.2,57.4z M60.2,49.5
		c0,2.9-1.2,5.5-3,7.5l-2.2-2.3c1.2-1.3,1.9-3.1,1.9-5V27.7c0-1.9-0.7-3.6-1.8-4.9l2.2-2.2c1.8,1.9,2.9,4.5,2.9,7.3V49.5z"/>
	<path d="M80.2,15.6H68.5v46.1h11.8C86.7,61.7,92,56.5,92,50V27.3C92,20.9,86.7,15.6,80.2,15.6z M87.2,20.4l-2.3,2.3
		c-1.3-1.3-3.3-1.9-5.8-1.9h-4.9l-3.3-3.3h9.3C82.9,17.5,85.4,18.6,87.2,20.4z M70.3,59.5V17.7l3.3,3.3L73.6,21v35.3L70.3,59.5z
		 M82.6,25c-0.6-0.5-1.3-0.8-2.1-0.8h-2.9l-3-3h4.4c2.4,0,4.2,0.6,5.4,1.8L82.6,25z M81.8,27.5v22.4c0,0.7-0.6,1.3-1.3,1.3h-0.2
		c-0.4,0-0.8,0-1.1,0v-25h1.3C81.2,26.1,81.8,26.7,81.8,27.5z M74.1,21.4l3.2,3.2v28.1l-3.2,3.1V21.4z M77.7,53.1h0.5
		c0,0,0.9,0,2.1,0h0.2c0.8,0,1.5-0.3,2-0.7l2.1,2c-1.7,1.6-4,1.8-4.2,1.8h-5.9L77.7,53.1z M82.9,52c0.5-0.6,0.8-1.3,0.8-2.1V27.5
		c0-0.8-0.3-1.5-0.8-2.1l2-2c1.5,1.8,1.4,4.1,1.4,4.1v22.7c0,1.7-0.5,2.9-1.3,3.8L82.9,52z M80.2,59.8h-9.4l3.2-3.1l6.5,0
		c0,0,2.6-0.3,4.5-2l2.3,2.2C85.4,58.7,82.9,59.8,80.2,59.8z M90.1,50c0,2.5-1,4.8-2.5,6.6l-2.2-2.2c0.8-0.9,1.5-2.3,1.5-4.1l0-22.7
		c0-0.1,0.2-2.6-1.5-4.5l2.3-2.3c1.6,1.7,2.5,4,2.5,6.6V50z"/>
	<path d="M106.9,29l-2.7-13.3H93.2l8.3,29.3v16.8h10.7V45l8.5-29.3h-11.2L106.9,29z M113.7,20.2l-2.2-2.6h6.1L113.7,20.2z
		 M113.4,20.6L107,43l0-5.3l4-19.9L113.4,20.6z M106.5,44.9l0,11.6l-3.2,3.2V45.1L106.5,44.9z M106.8,56.9l3.1,3.1h-6.2L106.8,56.9z
		 M107.1,56.4l0-11.6l3.3,0.3v14.4L107.1,56.4z M106.5,36.7l0,5.9l-6.2-22l2.3-2.7L106.5,36.7z M96.1,17.6h6.1l-2.2,2.6L96.1,17.6z
		 M95.7,17.6L95.7,17.6L95.7,17.6L95.7,17.6z M95.8,18l4.1,2.7l6.6,23.7l-3.2,0.2L95.8,18z M103.4,59.9L103.4,59.9L103.4,59.9
		L103.4,59.9z M110.3,59.9L110.3,59.9L110.3,59.9L110.3,59.9z M110.4,44.6l-3.2-0.3l6.7-23.7l4.3-2.8L110.4,44.6z M118.2,17.7
		l-0.1-0.1h0.1L118.2,17.7z"/>
	<path d="M148.1,27.5c0-6.4-5.2-11.8-11.8-11.8h-11.8v46.1h10.7V46.3c0.4,0,0.7,0,1,0c6.5,0,11.8-5.2,11.8-11.8V27.5z M143.1,20.3
		l-2.4,2.4c-2.1-1.8-4.9-1.8-5-1.8H130l-3.2-3.2h9.6C138.9,17.6,141.3,18.6,143.1,20.3z M142.3,27.5v7.7c0,0,0,2.3-1.6,3.9
		c0,0,0,0-0.1,0.1l-2.1-2.1c0.8-0.7,1.4-1.8,1.4-3v-5.6c0-1.2-0.5-2.2-1.4-2.9l2.2-2.2C141.6,24.3,142.3,25.6,142.3,27.5z
		 M129.6,21.1v35.4l-3.1,3V18L129.6,21.1z M133.4,25v12.6l-3.4,3V21.6L133.4,25z M129.9,56.9l3.2,3.1h-6.3L129.9,56.9z M130.1,41.6
		l3.4,3.1v14.9l-3.4-3.3V41.6z M133.7,38h2.2c0.8,0,1.5-0.2,2.1-0.6l2.1,2.1c-1.1,0.9-2.6,1.4-4.5,1.4h-5.2L133.7,38z M138,34.1
		c0,1.1-0.9,2-2,2h-0.6v-9.7h0.6c1.1,0,2,0.9,2,2V34.1z M138.1,25.2c-0.6-0.4-1.4-0.7-2.2-0.7h-2.2l-3.3-3.3h5.3
		c0.2,0,2.8,0.1,4.6,1.7L138.1,25.2z M133.4,60L133.4,60L133.4,60L133.4,60z M134.4,44.4h-0.6l-3.2-3h5.2c2,0,3.7-0.5,4.9-1.5
		l2.1,2.1c-1.7,1.5-3.9,2.4-6.4,2.4C135.7,44.4,135.1,44.4,134.4,44.4z M146.2,34.5c0,2.8-1.2,5.4-3.1,7.2l-2.1-2.1c0,0,0,0,0.1-0.1
		c1.8-1.8,1.7-4.2,1.7-4.3v-7.7c0-2.1-0.7-3.6-1.7-4.5l2.3-2.3c1.7,1.8,2.8,4.2,2.8,6.8V34.5z"/>
	<path d="M156,15.7l-7.9,46.1H159l0.7-6.1h3l0.8,6.1H174l-7.5-46.1H156z M154.1,57.1l2.8,2.8h-6.2L154.1,57.1z M154.4,56.7l0.7-4.7
		l2.8,2.4l-0.7,5.2L154.4,56.7z M161.2,43.5l0.4,4h-0.9L161.2,43.5z M161.2,34.1l-1.1-12.9h2.1L161.2,34.1z M162.3,20.7H160
		l-2.1-3.2h6.8L162.3,20.7z M159.8,23l1.2,13.9l-2.2,11.7l-3.4,2.4L159.8,23z M158.8,49.1h4.4l3.1,2.1h-10.6L158.8,49.1z
		 M163.7,48.8l-2.2-12l1.1-13.8l4.4,28L163.7,48.8z M167.9,56.7l-2.8,2.9l-0.6-5.3l2.7-2.3L167.9,56.7z M168.1,57.1l3.3,2.8h-6
		L168.1,57.1z M168.3,56.7L162.7,21l2.3-3.1l6.8,41.6L168.3,56.7z M157.5,17.9l2.1,3.1l-5.7,35.6l-3.5,2.9L157.5,17.9z M158.1,53.8
		l-2.5-2h10.9l-2.3,2H158.1z"/>
	<path d="M177.8,61.7h10.7V15.6h-10.7V61.7z M183.2,57l3,2.9h-6L183.2,57z M183.4,56.5V21.1l3.2-3.2v41.8L183.4,56.5z M183.1,20.6
		l-3.3-3.1h6.4L183.1,20.6z M182.9,21.1v35.5l-3.2,3V18L182.9,21.1z"/>
	<path d="M211,31.3l-5.6-15.7h-10.6v46.1h10.7V46.1l5.6,15.7h10.3V15.7H211V31.3z M211.9,38.3l2.2,15.8l-12.2-33.4l2.3-3L211.9,38.3
		z M215,56.2l-2-13.8l3,13.8H215z M214.9,56.7h1.2l3.2,3.2h-6.5L214.9,56.7z M216.6,56.5L216.6,56.5l0-35.9l3.1-2.8v41.8L216.6,56.5
		z M216.4,20.1l-2.9-2.6h5.7L216.4,20.1z M216.1,20.6v33.6l-3.2-14.5V17.8L216.1,20.6z M203.8,59.7l-3.3-3l-0.1,0V22.9l3.4,15.3
		L203.8,59.7z M201.5,20.5l-1.3-0.1l-3.3-2.9h6.8L201.5,20.5z M199.9,20.8v36.1h0l-3.1,2.7V18.1L199.9,20.8z M200.3,57.2l3,2.7h-6
		L200.3,57.2z M200.4,20.9l1,0l2,13.3L200.4,20.9z M204.6,38.3l-2.3-15.1l12.2,33.3l-2,3.1L204.6,38.3z"/>
	<path d="M227.9,15.6v10.7h6.2v35.4h10.7V26.4h6.1V15.6H227.9z M245.9,21.1l3.1-3.2v6.3L245.9,21.1z M245.4,20.8h-12.2l-3.2-3.3
		h18.6L245.4,20.8z M242.9,59.7l-3.3-3.4l0,0V21.6l3.3,3.3V59.7z M235.9,24.7l3.2-3.1v34.8l-3.2,3V24.7z M239.5,56.8l2.9,3.1h-6.2
		L239.5,56.8z M232.8,21.1l-3,3.2v-6.3L232.8,21.1z M230.2,24.5l3-3.1h5.4l-3.2,3.1H230.2z M243.2,24.5l-3.2-3.1h5.4l3.1,3.1H243.2z
		"/>
</svg>
