<svg xmlns="http://www.w3.org/2000/svg" viewBox="0 0 254.9 78.4"><path class="text" d="M28 47.1H8.9l.6-3h3.3l2.6-12.5h-3.3l.7-3H31L29.4 36h1L28 47.1zM26.7 39h-9.8l-1.1 5.1h9.8l1.1-5.1zm-8.2-7.4-.9 4.4h8.8l.9-4.3h-8.8zM39 40.9l-.7 3.2h2.8l-.6 3h-8.7l.6-3h2.8l2.6-12.5H35l.7-3h17.6l-2.6 12.3h-3.1l.4 3.2h4.1l-.6 3h-6.4l-.7-6.2H39zm1.9-9.3-1.3 6.3h8.8l1.3-6.3h-8.8zm31.6 15.5H55.3l.6-3h3.3L62 31.6h-3.3l.7-3h16.9L75 34.8h-3l.7-3.2H65l-.9 4.4H69l-.7 3h-4.9l-1.1 5.1H70l.7-3.4h3l-1.2 6.4zm13.4 0h-9.6l.6-3h3.5l6.3-12.5h-2.3l.7-3h14.7l-.7 3h-2.2l1 12.5h3.5l-.6 3h-9.6l.6-3h3l-.3-3.2h-9.3l-1.6 3.2h3l-.7 3zm4-15.5-3.2 6.3h7.5l-.5-6.3h-3.8zm23.7 0-1.2 5.8 8.3-5.8h-2.4l.7-3h9.7l-.7 3h-2.5l-8.4 5.9 4.6 6.6h3.1l-.6 3h-9.7l.6-3h2.5l-3.3-4.7-2.8 1.9-.6 2.8h2.8l-.6 3h-8.7l.6-3h2.8l2.6-12.5h-2.8l.7-3h8.7l-.7 3h-2.7zm18.3 12.5 2.6-12.5h-2.8l.7-3H150l-2.6 12.3h-11.8l-.7 3.2h2.8l-.6 3h-8.7l.6-3h2.9zm5.7-12.5-1.3 6.3h8.8l1.3-6.3h-8.8zm16.2-3h16.6l-3.9 18.5h-16.6l3.9-18.5zm-.2 15.5h10.5l2.6-12.5h-10.5l-2.6 12.5zm25.3 3h-8.7l.6-3h2.8l2.6-12.5h-2.8l.7-3h8.7l-.7 3h-2.8l-2.6 12.5h2.8l-.6 3zm7.3-3 2.6-12.5H186l.7-3h6.9l6.5 13.3 2.2-10.3h-2.8l.7-3h8.7l-.7 3h-2.8L202 47.1h-3l-7.3-14.8-2.5 11.8h2.8l-.6 3h-8.7l.6-3h2.9zm26.4-15.5h17.6l-1.3 6.2h-3l.7-3.2h-4.3l-2.6 12.5h3.3l-.6 3h-9.7l.6-3h3.3l2.6-12.5H215l-.7 3.2h-3l1.3-6.2zm21.8 12.3-.7 3.2h9.9l.7-3.1-11.8-4.4 1.7-8h15.4l-1.3 6.2h-3l.7-3.2h-9.4l-.6 2.8 11.8 4.4-1.7 8.3h-16l1.3-6.2h3z"/><path class="lines" d="M2.3 1.1h1.6v2.6H2.3zm4.3 0h1.6v2.6H6.6zm4.4 0h1.6v2.6H11zm4.3 0h1.6v2.6h-1.6zm4.4 0h1.6v10.6h-1.6zm4.3 0h1.6v2.6H24zm4.4 0H30v2.6h-1.6zm4.3 0h1.6v2.6h-1.6zm4.4 0h1.6v2.6h-1.6zm4.3 0H43v10.6h-1.6zm4.4 0h1.6v2.6h-1.6zm4.3 0h1.6v2.6h-1.6zm4.4 0h1.6v2.6h-1.6zm4.3 0h1.6v2.6h-1.6zm4.4 0h1.6v10.6h-1.6zm4.3 0h1.6v2.6h-1.6zm4.4 0h1.6v2.6h-1.6zm4.3 0h1.6v2.6h-1.6zm4.4 0h1.6v2.6h-1.6zm4.3 0h1.6v10.6h-1.6zm4.4 0h1.6v2.6h-1.6zm4.3 0h1.6v2.6h-1.6zm4.4 0h1.6v2.6H98zm4.3 0h1.6v2.6h-1.6zm4.4 0h1.6v10.6h-1.6zm4.3 0h1.6v2.6H111zm4.4 0h1.6v2.6h-1.6zm4.3 0h1.6v2.6h-1.6zm4.4 0h1.6v2.6h-1.6zm4.3 0h1.6v10.6h-1.6zm4.4 0h1.6v2.6h-1.6zm4.3 0h1.6v2.6h-1.6zm4.4 0h1.6v2.6h-1.6zm4.3 0h1.6v2.6h-1.6zm4.4 0h1.6v10.6h-1.6zm4.3 0h1.6v2.6h-1.6zm4.4 0h1.6v2.6h-1.6zm4.3 0h1.6v2.6h-1.6zm4.4 0h1.6v2.6h-1.6zm4.3 0h1.6v10.6h-1.6zm4.2 0h1.6v2.6h-1.6zm4.3 0h1.6v2.6h-1.6zm4.4 0h1.6v2.6h-1.6zm4.3 0h1.6v2.6h-1.6zm4.4 0h1.6v10.6h-1.6zm4.3 0h1.6v2.6h-1.6zm4.4 0h1.6v2.6h-1.6zm4.3 0h1.6v2.6h-1.6zm4.4 0h1.6v2.6h-1.6zm4.3 0h1.6v10.6h-1.6zm3.8 0h1.6v2.6H219zm4.3 0h1.6v2.6h-1.6zm4.4 0h1.6v2.6h-1.6zm4.3 0h1.6v2.6H232zm4.4 0h1.6v10.6h-1.6zm3.6 0h1.6v2.6H240zm4.4 0h1.6v2.6h-1.6zm4.3 0h1.6v2.6h-1.6zm4.4 0h1.6v2.6h-1.6z"/></svg>