<svg xmlns="http://www.w3.org/2000/svg" viewBox="0 0 3483.3 1919.1"><path d="M713.1 1203.7c114.8-103.7 243.4-349.9 243.4-490 0-141.3-75.8-225.4-277.9-174.2-273.3 69.3-443.3 466-443.3 702.6 0 128.6 48.2 173.8 108 158.7 18.4-4.7 37.9-19.9 44.8-37.8-26.4-30-39-82-39-145.1 0-221.6 145.8-580.1 358.3-634 10.3-2.6 18.4-4.7 31-5.5 67.7 12.7 96.5 78.9 96.5 167.3 0 139-71.2 332.7-172.3 447.9-29.9-2.8-55.1 1.3-71.2 12.3 59.7-173.6 132.1-406.7 155-452.7-17.2-4.8-34.4-5-50.5-1-44.8 11.4-85 59.4-119.4 160-85 246.6-170 520.8-251.5 698.8-43.6-32.6-86.1-58.6-134.4-46.3-93 23.6-136.7 93.2-136.7 155.2 0 71.2 55.1 130.7 156.2 105.1 50.5-12.8 97.6-51.1 141.3-107 41.3 29.7 87.3 49.1 137.8 36.3 153.9-39 296.3-228.9 296.3-413.8 0-73.6-27.6-118.3-72.4-136.8zm-501.8 583c-44.8-4.7-62-39.4-62-79.6 0-43.6 21.8-91.6 47.1-109.5 27.6 1.1 60.9 36.3 99.9 73.4-28.7 55.5-57.4 96.1-85 115.7zm280.2-91.6c-36.7-2.2-68.9-17-98.7-35.9 59.7-94.4 112.5-218 161.9-351.1 5.7-14.1 10.3-29 16.1-45.4 14.9 11.1 52.8 6.1 104.5-29.9 16.1 16.6 23 42.4 23 72.3-.1 124-116.1 332.5-206.8 390zm295.1-264.3c-1.1 25.6 11.5 40.7 33.3 35.2 59.7-15.1 166.5-245.4 268.7-556.1 5.7 3.1 12.6 7.1 20.7 9.7 13.8 5.7 24.1 10 24.1 26 0 35.6-164.2 342.5-164.2 398.8 0 48.2 37.9 82.2 82.7 70.9 59.2-15 125.8-106.6 183-211.7-1 11.9-1.6 23.1-1.6 33.6 0 79.2 72.3 113.7 161.9 91l1.1-.3c68.3-17.3 142.7-116.1 204.9-226.5-22.3 70.9-37.2 126-37.2 147.3 0 35.6 60.9 11 86.1 2.3 13.8-42.5 42.5-110.7 75.8-186.9 37.9 108.7 82.7 159.3 126.3 148.3 74-18.8 162.1-152.3 230.1-285-32.1 97.5-55.5 177.3-55.5 204.1 0 35.6 60.9 11 86.1 2.3 13.8-42.5 42.5-110.7 75.8-186.9 37.9 108.7 82.7 159.3 126.3 148.3 91.9-23.3 174.6-174 174.6-223.4 0-11.5-6.9-12-16.1-8.5-42.5 62.5-85 96.2-114.8 103.7-62 15.7-124-36.3-156.2-44.2 28.7 4.2 55.1 3.3 80.4-3.1 95.3-24.2 156.2-100.4 203.3-197.3 37.9-79.7 44.8-152.6 44.8-179 0-52.8-54-83.9-103.4-71.4-66.6 16.9-137.8 180.8-219.4 359.9 114.8-318.5 219.4-574.6 271-712.9 14.9-39.4-47.1-30.6-94.2-14-31 87.1-120.6 306.2-202.1 532.4-8.8 24.8-17.9 50.4-27.2 76.5-70 162.8-179.7 349.3-262.2 371.2-59.7 16.3-121.7-36.9-153.9-44.8 28.7 4.2 55.1 3.3 80.4-3.1 95.3-24.2 156.2-100.4 203.3-197.3 37.9-79.7 44.8-152.6 44.8-179 0-52.8-54-83.9-103.4-71.4C1898.2 606 1827 769.9 1745.5 949c114.8-318.5 219.3-574.6 271-712.9 14.9-39.4-47.1-30.6-94.2-14-31 87.1-120.6 306.2-202.1 532.4-21.2 59.5-44.2 124.3-65.8 187-73.3 150.6-169.7 296.3-270.7 335.8-31-3.6-44.8-24.2-44.8-61 0-10.3 1.1-22.1 2.3-35 11.5.5 21.8-.9 32.2-3.6 141.3-35.8 258.4-298.6 258.4-395.1 0-83.8-64.3-96.2-122.9-81.4-52.8 13.4-90.7 47.1-120.6 89.1-63.1 87.2-114.3 215.9-139 324.8-57.1 111.5-119.7 208.4-174.5 248.4 2.3-31.6 32.2-106.9 65.4-186.5 41.3-98.9 86.1-205.6 86.1-242.3 0-52.8-27.6-45.8-112.5-51.9-6.9-.6-10.3-5.4-10.3-14.6 0-10.3 2.3-17.8 8-30.7 37.9-84.2 67.7-137.7 93-179.7-12.6-18.6-34.4-24.6-56.3-19.1-43.7 11.1-90.7 72.4-90.7 194.1 0 19.5 1.1 34.1 5.7 46.8-138.8 345.2-210 449.3-276.6 551.2zm1634.1-913.6c3.4 6 5.7 14.6 5.7 26.1 0 90.7-99.9 329.6-219.3 361.1 81.5-180.3 184.9-384.5 213.6-387.2zm-462.8 117.2c3.4 6 5.7 14.6 5.7 26.1 0 90.7-99.9 329.6-219.3 361 81.5-180.2 184.9-384.4 213.6-387.1zm-413.4 101.3c5.7 3.1 8 11.8 8 24.4 0 83.8-101.1 343.7-204.4 387.1 32.2-149.3 142.4-394.3 196.4-411.5zm1009.4 296.6c48.2-12.2 101-96.8 101-138.1 0-29.9-41.4-38.9-85-27.9-47.1 11.9-82.7 94.5-82.7 118.6.1 34.4 38 54.7 66.7 47.4zm360.6-723c9.2-11.5 26.4-28.5 46-48.4 44.8-45.8 104.5-108 104.5-149.4 0-39-42.5-28.3-97.6-15.5-21.8 84.8-43.6 131.6-57.4 160.4-8 17-12.7 28.5-12.7 37.7 0 13.9 8 16.4 17.2 15.2z"/><path d="M3334.5 523.9c-63.2 11.8-116.7 26.6-162.2 43.4-9.5-83.4-32.8-159.7-32.8-196.6 0-67.7 114.8-147.4 182.6-195.6-11.5-45.3-39-83.1-81.5-72.4-58.6 14.8-92.9 87.7-164.7 287.4-88.1 229-232.9 476.8-293.5 527 20.7-116.6 167.7-426 167.7-508.7 0-40.2-27.6-55-73.5-43.4-29.9 7.6-63.2 22.9-97.6 30.5-2.3 6.3-3.4 12.4-3.4 18.1 0 10.3 6.9 15.5 26.4 10.5 12.7-3.2 29.9-9.8 52.8-23.7-8 79-175.7 420-175.7 532.6 0 39 44.8 58.7 87.3 47.9 33.1-8.4 79.2-55.6 127.5-126.3.1 43.6 38 84.4 124 62.6 99.9-25.3 158.5-145.8 158.5-280.1v-6.3c61.3-16.2 110.1-12.1 110.1-12.1 10.3-2.6 17.2 2.5 17.2 16.2 0 10.3-5.1 28.8-12 47.7-51.5 124.7-151.1 326.8-635.5 449.6-36.1 9.1-73.8 17-113.4 25.3-582.2 120.1-979 191.4-1111.2 224.9-529 134-659.5 328.6-687 371.6-13.7 18.9-18.9 37.4-18.9 49.4 0 13.7 5.1 21 17.2 18 6.9-1.7 15.5-7.4 27.5-19 58.4-56 219.8-150.2 592.6-244.6 334.9-84.9 515.3-128.9 1068.3-258.7 17.2-4.4 36.1-9.1 53.2-13.5 520.4-131.9 822.7-376.8 913.7-611.1 13.7-34.4 20.6-65.3 20.6-89.4-.1-49.9-26.8-72-84.3-61.2zm-257.8 87.6c-33 19.2-59.3 39.5-80.3 60.1 30.5-66 67.9-155.5 90.3-218.5-1.9 59.6-5.4 112.3-10 158.4zM3008.6 870c-13.6-5.1-31.7-22.1-48.4-41.8 25.1-69.6 64.8-116.2 108-147.5-14.9 101.6-36.6 161.9-59.6 189.3z"/><g><path d="M2188.2 1682.6c0-14.9 14-53.4 32.3-93.7 18.3-41.2 37.5-80.4 36.6-92.1-15.3.9-93.2 153.9-117 226.6-2.6 1-6 2.2-9.8 3.1-11.5 2.6-24.3 2.5-24.3-8.1 0-15.3 16.2-65.8 31.5-107.2 17-45.1 36.2-87.4 35.3-100.4-15.3.9-96.6 167.9-117.5 232.2-3.8.9-7.7 2.2-11.1 2.9-11.1 2.5-19.6 1.9-19.6-10.9 0-10.6 11.9-49.9 26-90.2 14.5-41.6 33.6-83.8 40.4-111.7-8.1 4.4-14.5 6.7-18.7 7.7-9.4 2.1-11.9-1.1-11.9-5.4 0-1.7.4-3.5 1.3-5.4 12.8-2.5 25.1-7.8 36.2-10.3 14.5-3.3 23.8 1.8 23.8 16.7 0 11.9-12.8 46.7-31.1 93 34.9-70.1 60-129.8 84.7-135.4 13.2-3 31.9-.4 31.9 18.3 0 15.7-17.9 61.9-32.3 101 30.6-67 58.7-127.4 84.7-133.3 14.9-3.4 35.7-.9 35.7 18.7 0 14.5-14 50.8-33.2 93.9-17.4 38.9-37.9 82.6-36.2 98.9 36.2-25.7 80.4-115.7 107.2-186.1 3-1.1 3.4-.3 3.4 1.8 0 21.3-66.8 191.3-118.3 203-14.6 3.4-30-8.5-30-27.6z"/><path d="M2276.8 1671c0-41.7 62.1-166.5 65.1-195.6-8.5 4.9-14.9 7.2-19.6 8.3-7.2 1.6-9.8-.3-9.8-4.2 0-2.1.4-4.4 1.3-6.7 12.8-2.5 25.1-7.8 36.2-10.3 17-3.9 27.2 1.9 27.2 16.8 0 30.6-54.5 143.9-62.1 186.9 23-18.4 78.7-112.8 111.1-198.4 4.3-1.8 8.9-1.6 8.9 3.5 0 12.8-27.7 79.5-45.1 115.4-28.1 56.2-60.9 98.5-80.9 103-15.7 3.5-32.3-4.2-32.3-18.7zm143-300.6c0 15.3-22.1 37.8-38.7 54.3-7.2 7.2-13.6 13.3-17 17.5-3.4.3-6.4-.7-6.4-5.8 0-3.4 1.7-7.6 4.7-13.8 5.1-10.5 13.2-27.7 21.3-58.9 20.3-4.1 36.1-7.7 36.1 6.7z"/><path d="M2356.3 1644c0-10.2 5.1-19.9 14.5-22.9 7.7 11.9 20 26.5 28.1 29.8 13.6-15.9 26-62.9 28.9-153.8.4-10.7-6.4-10.9-6.4-16 0-.9.4-1.8.9-3.2 28.5-78 40.4-104.1 62.6-109.1 15.7-3.6 26 10.7 30.2 27.6-25.1 17.2-67.7 45.6-67.7 70.7 0 17.4 14 58.9 13.6 99 0 13.6-1.7 27.2-4.7 39.4 23.4-38.9 52.8-101.3 75.3-161.8 5.5-1.7 8.9-1.6 8.9 3.5 0 10.6-53.6 202-137 220.9-32.3 7.4-47.2-7.5-47.2-24.1z"/><path d="M2509.5 1644.1c-32.3 7.3-47.7-7.5-47.7-24.1 0-10.2 5.1-19.9 14.5-22.9 7.7 11.9 20 26.5 28.1 29.8 13.6-15.9 26-62.9 28.9-153.8.4-10.7-6.4-10.9-6.4-16 0-.9.4-2.2.9-3.2 27.7-76.5 40.4-104.1 62.6-109.1 15.7-3.6 26 10.7 30.2 27.6-25.1 17.2-67.7 45.6-67.7 70.7 0 17.4 14 58.9 13.6 99 0 14-1.7 28-5.1 40.3 24.3-37 48.5-95.7 67.2-144.2 3-1.1 3.4-.3 3.4 1.8.1 21.4-56.5 189.2-122.5 204.1z"/><path d="M2604.4 1622.6c-16.2 3.7-32.3-4.2-32.3-18.6 0-41.7 62.1-166.5 65.1-195.6-8.5 4.9-14.9 7.2-19.6 8.3-7.2 1.6-9.8-.3-9.8-4.2 0-2.1.4-4.4 1.3-6.7 12.8-2.5 25.1-7.8 36.2-10.3 17-3.9 27.2 1.9 27.2 16.8 0 31.1-55.8 146.7-62.1 188.6 34.5-27.8 78.3-116.1 103-181.7 3-1.1 3.4-.3 3.4 1.8 0 21.2-71.5 192.3-112.4 201.6zm110.7-319.2c0 15.3-22.1 37.8-38.7 54.3-7.2 7.2-13.6 13.3-17 17.5-3.4.3-6.4-.7-6.4-5.8 0-3.4 1.7-7.6 4.7-13.8 5.1-10.5 13.2-27.7 21.3-58.9 20.3-4.2 36.1-7.7 36.1 6.7z"/><path d="M2740.2 1557.3c0-14.9 14-53.4 32.3-93.7 18.3-41.2 38.3-80.2 37.5-91.9-16.2 1.1-90.6 134.6-123.8 226.8-3.4 1.6-7.2 3.3-11.5 4.3-10.2 2.3-20.4.8-20.4-8.1 0-14.5 11.9-50.4 26.8-92.9 14-39.8 31.1-80.7 39.2-108-8.1 4-14 5.3-18.3 6.3-8.1 1.8-10.6-1-11.1-5.1 0-2.6.4-5.2 1.3-8 12.8-2.5 25.1-7.8 36.2-10.3 14.5-3.3 23.8 1.8 23.8 16.7 0 11.9-14.5 51.8-28.5 92.4 32.3-64.8 62.1-124.7 88.9-130.8 14.9-3.4 35.7-.9 35.7 18.7 0 14.5-14.5 50.5-34 93.7-18.7 42.1-40 85.3-34 97.5 35.3-27.2 78.7-115.3 105.1-184.7 3-1.1 3.4-.3 3.4 1.8 0 21.3-66.8 191.3-118.3 203-15 3.3-30.3-8.5-30.3-27.7z"/><path d="M2784.4 1667.3c0-26 17-56.6 74.9-81.7 9.8-4.8 23.8-10.5 38.3-17.6 9.8-28.6 17.9-54.3 22.1-65.5l13.2-37.9c-22.1 49.3-42.6 89.2-63 93.9-14.9 3.4-34-8-34-27.6 0-23 9.8-58.4 22.1-91.4 19.6-54.2 43.4-105.6 72.3-112.2 14.9-3.4 32.8 5.8 34.9 29.1 4.7-12.6 8.9-25 12.8-35.7 17.4-4.4 31.1-6.2 31.1 9.5 0 10.6-14 49.6-26.4 89.8-5.5 17.9-20.4 63.4-39.6 117.9 26.8-26.5 55.3-71.7 68.1-106.1 4.3-1.8 8.9-1.6 8.9 3.1 0 21.3-34.5 88.7-83.8 122.4-6.8 19-14 38.9-21.3 58.9-17.4 47.4-48.1 83.3-71.5 88.6-38.2 8.8-59.1-11.1-59.1-37.5zm107.7-82.3c-40 24-68.9 39.5-68.9 68.8 0 17.4 11.5 31 30.6 27.1 8.5-10.8 23.8-53.9 38.3-95.9zm49.8-233.9c-8.5 1.9-19.2 21.4-48.1 99.4-14.5 39-23.8 76.5-21.7 86.6 15.3-10.7 45.1-60 60.4-98.8 9.8-24.4 23-51.6 23-67.3.4-14.6-6.4-21.5-13.6-19.9zM3112.5 1446.5c16.2-3.7 31.5.1 31.5 11.2 0 15.3-19.6 46.1-37.5 50.2-10.6 2.4-24.7-5.5-24.7-18.2.1-9.1 13.3-39.3 30.7-43.2zM3209.1 1424.5c16.2-3.7 31.5.1 31.5 11.2 0 15.3-19.6 46.1-37.5 50.2-10.6 2.4-24.7-5.5-24.7-18.2.1-9 13.3-39.2 30.7-43.2zM3305.7 1402.6c16.2-3.7 31.5.1 31.5 11.2 0 15.3-19.6 46.1-37.5 50.2-10.6 2.4-24.7-5.5-24.7-18.2.1-9 13.3-39.2 30.7-43.2z"/></g></svg>