<svg version="1.1" xmlns="http://www.w3.org/2000/svg" xmlns:xlink="http://www.w3.org/1999/xlink" viewBox="0 0 254.9 78.4" xml:space="preserve">
  <path class="secondary" d="M23.7,21.3c10.1,0,14.3,9,14.3,20.9v3.2H17.7c0.1,5.9,2.6,10.3,7.9,10.3c2.2,0,4.8-1.5,6.6-4l4.6,5.2
    c-3.1,4.1-7.6,6.4-12.2,6.4c-10.4,0-15.9-8.8-15.9-21C8.7,30.7,13.6,21.3,23.7,21.3z M17.7,38.8H29c0-4.5-1-9.9-5.5-9.9
    S17.7,34.6,17.7,38.8z M62.4,33.8c0-2.8-1-4.2-3.1-4.2c-2.4,0-4.5,2.7-5.4,5.2v27.6h-9.4V22.3h9.4v5.2c1.6-3.2,5.7-6.2,9.4-6.2
    c6,0,8.5,3.6,8.5,9.1v32h-9.4V33.8z"/>
  <path d="M88,6c-5.2,10.2-8,21-8,33.2c0,12,2.7,23,8,33.4l6.2-2.8c-3-9.2-5-18.9-5-30.5c0-11.7,1.9-21.4,5-30.6L88,6z"/>
  <path d="M113.3,55.1c-1.6,0-2.2-1.2-2.2-3.7v-21h5.1v-8.1h-5.1V11.4h-9.4v10.9H98v8.1h3.7v22.8c0,6.9,2.6,10.2,9.2,10.2
    c2.9,0,5.1-0.9,6.5-2.1l-1.9-7.3C115,54.7,114.2,55.1,113.3,55.1z"/>
  <path d="M132,27.8v-5.5h-9.4v40h9.4v-27c1.6-2.8,4.4-5.1,7.1-5.1c0.6,0,1.2,0.1,1.8,0.3v-9.2C137.6,21.3,133.7,24.2,132,27.8
    L132,27.8z"/>
  <path d="M164.6,49.9c-0.9,2.6-3,5.1-5.4,5.1c-2.1,0-3.1-1.4-3.1-4.1V22.2h-9.4v32.1c0,5.7,2.4,9,8.4,9c3.9,0,7.8-2.8,9.4-6
    l0.1,4.9h9.4V22.1h-9.4V49.9z"/>
  <path d="M195.1,37.7c-3-1.5-5.4-2.8-5.4-5.2c0-2,1.7-3.7,4.3-3.7c3.2,0,6.1,1.7,7.7,3.6l3.8-6.3c-3-2.9-7.2-4.7-11.8-4.7
    c-8.1,0-12.7,5.2-12.7,11.3c0,8.4,5.7,11.1,10.2,13.4c3,1.5,5.6,2.9,5.6,5.5c0.1,2.6-2,4.3-5,4.3c-3.2,0-6.1-1.9-8.3-4.3l-3.9,6.5
    c2.6,3.1,7,5.2,13,5.2c7.6,0,13.1-4.9,13.1-11.9C205.7,42.8,199.7,40,195.1,37.7L195.1,37.7z"/>
  <path d="M224.9,55.1c-1.6,0-2.2-1.2-2.2-3.7v-21h5.1v-8.1h-5.1V11.4h-9.4v10.9h-3.7v8.1h3.7v22.8c0,6.8,2.6,10.2,9.2,10.2
    c2.9,0,5.1-0.9,6.5-2.1l-2-7.3C226.5,54.7,225.8,55.1,224.9,55.1z"/>
  <path d="M238.1,5.9L232,8.6c3,9.2,4.9,18.8,4.9,30.4s-1.8,21.4-4.9,30.5l6.1,2.8c5.3-10.2,8.1-21.1,8.1-33.3
    C246.2,27,243.4,16.1,238.1,5.9z"/>
</svg>
