<svg xmlns="http://www.w3.org/2000/svg" viewBox="0 0 254.9 78.4"><path class="en primary" d="M88 6c-5.2 10.2-8 21-8 33.2 0 12 2.7 23 8 33.4l6.2-2.8c-3-9.2-5-18.9-5-30.5 0-11.7 1.9-21.4 5-30.6L88 6zm25.3 44.1c-1.6 0-2.2-1.2-2.2-3.7v-21h5.1v-8.1h-5.1V6.4h-9.4v10.9H98v8.1h3.7v22.8c0 6.9 2.6 10.2 9.2 10.2 2.9 0 5.1-.9 6.5-2.1l-1.9-7.3c-.5.7-1.3 1.1-2.2 1.1zM132 22.8v-5.5h-9.4v40h9.4v-27c1.6-2.8 4.4-5.1 7.1-5.1.6 0 1.2.1 1.8.3v-9.2c-3.3 0-7.2 2.9-8.9 6.5zm32.6 22.1c-.9 2.6-3 5.1-5.4 5.1-2.1 0-3.1-1.4-3.1-4.1V17.2h-9.4v32.1c0 5.7 2.4 9 8.4 9 3.9 0 7.8-2.8 9.4-6l.1 4.9h9.4V17.1h-9.4v27.8zm30.5-12.2c-3-1.5-5.4-2.8-5.4-5.2 0-2 1.7-3.7 4.3-3.7 3.2 0 6.1 1.7 7.7 3.6l3.8-6.3c-3-2.9-7.2-4.7-11.8-4.7-8.1 0-12.7 5.2-12.7 11.3 0 8.4 5.7 11.1 10.2 13.4 3 1.5 5.6 2.9 5.6 5.5.1 2.6-2 4.3-5 4.3-3.2 0-6.1-1.9-8.3-4.3l-3.9 6.5c2.6 3.1 7 5.2 13 5.2 7.6 0 13.1-4.9 13.1-11.9 0-8.6-6-11.4-10.6-13.7zm29.8 17.4c-1.6 0-2.2-1.2-2.2-3.7v-21h5.1v-8.1h-5.1V6.4h-9.4v10.9h-3.7v8.1h3.7v22.8c0 6.8 2.6 10.2 9.2 10.2 2.9 0 5.1-.9 6.5-2.1l-2-7.3c-.5.7-1.2 1.1-2.1 1.1zm13.2-44.2L232 8.6c3 9.2 4.9 18.8 4.9 30.4s-1.8 21.4-4.9 30.5l6.1 2.8c5.3-10.2 8.1-21.1 8.1-33.3 0-12-2.8-22.9-8.1-33.1z"/><path class="trust secondary" d="M23.7 16.3c10.1 0 14.3 9 14.3 20.9v3.2H17.7c.1 5.9 2.6 10.3 7.9 10.3 2.2 0 4.8-1.5 6.6-4l4.6 5.2c-3.1 4.1-7.6 6.4-12.2 6.4-10.4 0-15.9-8.8-15.9-21 0-11.6 4.9-21 15-21zm-6 17.5H29c0-4.5-1-9.9-5.5-9.9s-5.8 5.7-5.8 9.9zm44.7-5c0-2.8-1-4.2-3.1-4.2-2.4 0-4.5 2.7-5.4 5.2v27.6h-9.4V17.3h9.4v5.2c1.6-3.2 5.7-6.2 9.4-6.2 6 0 8.5 3.6 8.5 9.1v32h-9.4V28.8z"/></svg>