<svg xmlns="http://www.w3.org/2000/svg" viewBox="0 0 254.9 78.4" xml:space="preserve"><path class="primary" d="M243.4 50.7c-.8-1.9-2-1.7-3.1-.2-3.9 5.9-10.3 13-17.6 13-2.9 0-4.6-3-4.6-7.2 0-1.7.3-3.7.9-5.7 2.2 1.4 4.5 2.1 6.8 2.1 8.4 0 14.8-10.1 14.8-15.8 0-1.2-.4-2.7-1-3.5-1.3-1.9-3.3-3.4-5.9-5-1-.6-2-.8-3.4-.8-5.6 0-13.3 5.1-18.3 15.2-1.6 3-2.5 6-2.8 8.8-3.9 5.5-10.1 11.9-16.8 11.8-2.6-.1-4.3-2.7-4.3-6.9 0-2.9 1-6.8 2.9-10.7 3.8-7.8 10.1-14 11.2-13 .4.4-.3 2.1-1.2 4-1.7 3.9-2.2 5.8-2.2 7.1 0 2.6 1.6 4.4 3.4 5.5 1.9 1 2.8.8 3.4-1.1.4-1.1 1-2.5 1.7-3.9 1.8-3.7 3.4-7.3 1.9-10.4-1.5-2.9-5.6-6.1-9.1-6.1-5.6 0-13.1 5.2-18 15-1.7 3.3-2.7 6.5-2.9 9.5-3.1 5.7-7.4 11.2-10.6 11.2-1 0-1.3-.9-1.3-2.3 0-6.4 8-16.9 10.5-22.1 2.5-5 1.6-9.2 0-11.1-1.1-1.3-2.8-1.2-3.9.7l-1.8 3c-.9-2.5-3-4.2-6.4-4.2-4.9 0-12.7 4.5-20.4 15.5-1.7 2.3-2.9 4.7-3.8 7.1-.2.2-.4.5-.5.9-3 6.8-8.1 12.5-11.5 12.5-1.4 0-2.1-1.6-2.1-4.1 0-1.4.1-2.8.6-4.1 1.6-5 6.2-11.2 10.6-16.1 1.1-1.3 1.5-2.7 1.5-3.7 0-2.4-1.6-4.9-3-6.5-1.1-1.3-2.2-1.1-4 .1-2.8 2-5.7 3.4-8.2 4 1.4-3.3 2-5.9 2-8.1 0-2.1-.9-3.4-3.2-3.4-3.3 0-9.4 7.5-9.4 12.4 0 1.6.8 3.2 2.4 4.1-5.7 14.2-14.9 25.4-20.1 25.4-1.6 0-2.7-1.9-2.7-4.8 0-2.1.6-4.5 1.6-7.1 3.1-6.7 7.2-14 10.5-19.6l2-3.4c1.5-.1 3.5 0 5.2 0s3.2-.8 2.3-2.2c-.9-1.4-1.7-3-4.5-3.4 1.1-2.8 1.6-5.1 1.6-7 0-1.1-.3-2.3-.8-3.5-.8-2.2-2.5-2.4-4-.1-2.5 3.8-5.7 8.8-7.9 11.5-1.5.2-3.4.3-5.9.1-2.4-.1-3.2 1-2 2.8.8 1.1 3 2.3 5.6 2.8C93.8 36.3 90 44 88 48.6c-1.2 3.1-1.7 5.7-1.7 8 0 6.7 4.4 10.7 9.5 10.7 10.3 0 20.2-14.1 26.5-28.3 2.1-.1 4.8-.6 7.5-1.7-3.6 4.4-7.9 10.2-9.5 15.1-.7 2-1 3.6-1 5.2 0 5.5 3.4 9.9 9.5 9.9 4.2 0 8.8-2.1 12-5.5 1.2 3.2 3.9 5.2 7.9 5.2 3.8 0 8.1-3 10.9-5.7.8 3.5 3.5 6 8.3 6 4.6 0 9.4-3.2 12.5-7.1 2 4.2 6.2 6.9 12.3 6.8 6.4-.1 13.1-3.6 17.1-8.2 1.7 5 6.2 8.4 13 8.3 7.5-.1 15.1-4.6 19.2-10.4 1.8-2.5 1.7-5.3 1.4-6.2zm-10-17.5c1.1.9-1 5.4-3.7 9.1-1.9 2.6-5 5.5-7.3 5.5-.7 0-1.3-.2-2.1-.7 4.6-9.2 11.7-15 13.1-13.9zM150 63c-1 0-1.3-1.1-1.3-2.9 0-3.1 1.6-8.1 4.5-12.6 4.9-7.9 11.5-13.9 13.4-13.9 1 0 1.1.7 1.1 1.8 0 2.5-1.7 7.2-5.5 13.7-4.7 8.1-9.1 13.9-12.2 13.9z"/><path class="secondary" d="M73.6 5.6H16.4c-2.8 0-5 2.2-5 5v57.2c0 2.8 2.2 5 5 5h57.2c2.8 0 5-2.2 5-5V10.6c0-2.8-2.3-5-5-5zM34.3 57.4c0 .3 0 .6-.1.8H23.8c.1.9.3 1.6.7 2.1.3.5.8.9 1.3 1.2.5.2 1.1.4 1.8.4s1.4-.1 2.1-.4c.7-.2 1.3-.6 2-1l1.9 2.6c-.8.6-1.7 1.2-2.7 1.6-1.1.4-2.3.6-3.7.6-1.8 0-3.4-.4-4.6-1.1-1.2-.7-2.2-1.7-2.8-3-.5-1.2-.8-2.7-.8-4.3s.3-3 .9-4.3 1.5-2.3 2.6-3.1c1.2-.8 2.6-1.2 4.3-1.2 1.5 0 2.8.3 4 1 1.1.7 2 1.6 2.6 2.8s.9 2.7.9 4.4v.9zm17.3 7.5h-4.8V54.5c0-.7 0-1.2-.1-1.6-.1-.4-.2-.7-.5-.8-.2-.2-.5-.2-.9-.2-.3 0-.7.1-1 .2-.3.1-.6.4-.9.6-.3.3-.6.6-.9 1v11.2h-4.8v-16h4.2l.3 1.9c.7-.8 1.5-1.4 2.3-1.8.8-.4 1.7-.6 2.7-.6 1.4 0 2.4.4 3.2 1.2s1.2 2 1.2 3.5v11.8zm14 0H60l-5.4-16h5.1l3.1 12.3 3.3-12.3h4.8l-5.3 16zM26.8 51.5c-.9 0-1.5.3-2.1.9-.5.6-.8 1.6-.9 2.9h5.9c0-1.2-.2-2.1-.7-2.8-.5-.6-1.2-1-2.2-1z"/></svg>
