<?xml version="1.0" encoding="utf-8"?>
<!-- Generator: Adobe Illustrator 25.3.1, SVG Export Plug-In . SVG Version: 6.00 Build 0)  -->
<svg version="1.1" id="Layer_1" xmlns="http://www.w3.org/2000/svg" xmlns:xlink="http://www.w3.org/1999/xlink" x="0px" y="0px"
	 viewBox="0 0 254.9 78.4" style="enable-background:new 0 0 254.9 78.4;" xml:space="preserve">
<path d="M243.4,50.7c-0.8-1.9-2-1.7-3.1-0.2c-3.9,5.9-10.3,13-17.6,13c-2.9,0-4.6-3-4.6-7.2c0-1.7,0.3-3.7,0.9-5.7
	c2.2,1.4,4.5,2.1,6.8,2.1c8.4,0,14.8-10.1,14.8-15.8c0-1.2-0.4-2.7-1-3.5c-1.3-1.9-3.3-3.4-5.9-5c-1-0.6-2-0.8-3.4-0.8
	c-5.6,0-13.3,5.1-18.3,15.2c-1.6,3-2.5,6-2.8,8.8c-3.9,5.5-10.1,11.9-16.8,11.8c-2.6-0.1-4.3-2.7-4.3-6.9c0-2.9,1-6.8,2.9-10.7
	c3.8-7.8,10.1-14,11.2-13c0.4,0.4-0.3,2.1-1.2,4c-1.7,3.9-2.2,5.8-2.2,7.1c0,2.6,1.6,4.4,3.4,5.5c1.9,1,2.8,0.8,3.4-1.1
	c0.4-1.1,1-2.5,1.7-3.9c1.8-3.7,3.4-7.3,1.9-10.4c-1.5-2.9-5.6-6.1-9.1-6.1c-5.6,0-13.1,5.2-18,15c-1.7,3.3-2.7,6.5-2.9,9.5
	c-3.1,5.7-7.4,11.2-10.6,11.2c-1,0-1.3-0.9-1.3-2.3c0-6.4,8-16.9,10.5-22.1c2.5-5,1.6-9.2,0-11.1c-1.1-1.3-2.8-1.2-3.9,0.7l-1.8,3
	c-0.9-2.5-3-4.2-6.4-4.2c-4.9,0-12.7,4.5-20.4,15.5c-1.7,2.3-2.9,4.7-3.8,7.1c-0.2,0.2-0.4,0.5-0.5,0.9c-3,6.8-8.1,12.5-11.5,12.5
	c-1.4,0-2.1-1.6-2.1-4.1c0-1.4,0.1-2.8,0.6-4.1c1.6-5,6.2-11.2,10.6-16.1c1.1-1.3,1.5-2.7,1.5-3.7c0-2.4-1.6-4.9-3-6.5
	c-1.1-1.3-2.2-1.1-4,0.1c-2.8,2-5.7,3.4-8.2,4c1.4-3.3,2-5.9,2-8.1c0-2.1-0.9-3.4-3.2-3.4c-3.3,0-9.4,7.5-9.4,12.4
	c0,1.6,0.8,3.2,2.4,4.1c-5.7,14.2-14.9,25.4-20.1,25.4c-1.6,0-2.7-1.9-2.7-4.8c0-2.1,0.6-4.5,1.6-7.1c3.1-6.7,7.2-14,10.5-19.6
	l2-3.4c1.5-0.1,3.5,0,5.2,0c1.7,0,3.2-0.8,2.3-2.2c-0.9-1.4-1.7-3-4.5-3.4c1.1-2.8,1.6-5.1,1.6-7c0-1.1-0.3-2.3-0.8-3.5
	c-0.8-2.2-2.5-2.4-4-0.1c-2.5,3.8-5.7,8.8-7.9,11.5c-1.5,0.2-3.4,0.3-5.9,0.1c-2.4-0.1-3.2,1-2,2.8c0.8,1.1,3,2.3,5.6,2.8
	C93.8,36.3,90,44,88,48.6c-1.2,3.1-1.7,5.7-1.7,8c0,6.7,4.4,10.7,9.5,10.7c10.3,0,20.2-14.1,26.5-28.3c2.1-0.1,4.8-0.6,7.5-1.7
	c-3.6,4.4-7.9,10.2-9.5,15.1c-0.7,2-1,3.6-1,5.2c0,5.5,3.4,9.9,9.5,9.9c4.2,0,8.8-2.1,12-5.5c1.2,3.2,3.9,5.2,7.9,5.2
	c3.8,0,8.1-3,10.9-5.7c0.8,3.5,3.5,6,8.3,6c4.6,0,9.4-3.2,12.5-7.1c2,4.2,6.2,6.9,12.3,6.8c6.4-0.1,13.1-3.6,17.1-8.2
	c1.7,5,6.2,8.4,13,8.3c7.5-0.1,15.1-4.6,19.2-10.4C243.8,54.4,243.7,51.6,243.4,50.7z M233.4,33.2c1.1,0.9-1,5.4-3.7,9.1
	c-1.9,2.6-5,5.5-7.3,5.5c-0.7,0-1.3-0.2-2.1-0.7C224.9,37.9,232,32.1,233.4,33.2z M150,63c-1,0-1.3-1.1-1.3-2.9
	c0-3.1,1.6-8.1,4.5-12.6c4.9-7.9,11.5-13.9,13.4-13.9c1,0,1.1,0.7,1.1,1.8c0,2.5-1.7,7.2-5.5,13.7C157.5,57.2,153.1,63,150,63z"/>
<g>
	<path d="M26.8,51.5c-0.9,0-1.5,0.3-2.1,0.9c-0.5,0.6-0.8,1.6-0.9,2.9h5.9c0-1.2-0.2-2.1-0.7-2.8C28.5,51.9,27.8,51.5,26.8,51.5z"/>
	<path d="M73.6,5.6H16.4c-2.8,0-5,2.2-5,5v57.2c0,2.8,2.2,5,5,5h57.2c2.8,0,5-2.2,5-5V10.6C78.6,7.8,76.3,5.6,73.6,5.6z M34.3,57.4
		c0,0.3,0,0.6-0.1,0.8H23.8c0.1,0.9,0.3,1.6,0.7,2.1c0.3,0.5,0.8,0.9,1.3,1.2c0.5,0.2,1.1,0.4,1.8,0.4c0.7,0,1.4-0.1,2.1-0.4
		c0.7-0.2,1.3-0.6,2-1l1.9,2.6c-0.8,0.6-1.7,1.2-2.7,1.6c-1.1,0.4-2.3,0.6-3.7,0.6c-1.8,0-3.4-0.4-4.6-1.1c-1.2-0.7-2.2-1.7-2.8-3
		C19.3,60,19,58.5,19,56.9c0-1.6,0.3-3,0.9-4.3c0.6-1.3,1.5-2.3,2.6-3.1c1.2-0.8,2.6-1.2,4.3-1.2c1.5,0,2.8,0.3,4,1
		c1.1,0.7,2,1.6,2.6,2.8c0.6,1.2,0.9,2.7,0.9,4.4C34.3,56.8,34.3,57.1,34.3,57.4z M51.6,64.9h-4.8V54.5c0-0.7,0-1.2-0.1-1.6
		c-0.1-0.4-0.2-0.7-0.5-0.8c-0.2-0.2-0.5-0.2-0.9-0.2c-0.3,0-0.7,0.1-1,0.2c-0.3,0.1-0.6,0.4-0.9,0.6c-0.3,0.3-0.6,0.6-0.9,1v11.2
		h-4.8v-16h4.2l0.3,1.9c0.7-0.8,1.5-1.4,2.3-1.8c0.8-0.4,1.7-0.6,2.7-0.6c1.4,0,2.4,0.4,3.2,1.2c0.8,0.8,1.2,2,1.2,3.5V64.9z
		 M65.6,64.9H60l-5.4-16h5.1l3.1,12.3l3.3-12.3h4.8L65.6,64.9z"/>
</g>
</svg>
