<svg xmlns="http://www.w3.org/2000/svg" viewBox="0 0 254.87 78.42"><path d="m32.82 23.93-4.81 4.81H15.1v.28l-4.81 4.81v1.11l4.81-4.81v.5l-4.81 4.81v1.11l4.81-4.86v.5l-4.81 4.86v1.11l4.81-4.84v.5l-4.81 4.86v1.06l4.81-4.81v.28h.28l-5.09 5.03v1.11l6.21-6.14h.5l-6.71 6.65v1.12l7.82-7.77h.5l-8.32 8.27v1.11l9.39-9.39h.5l-4.81 4.81h1.11l4.81-4.81h.5l-4.81 4.81h1.11l4.81-4.81h.5l-4.81 4.81h1.06l4.86-4.81h.5l-4.86 4.81h1.11l4.86-4.81h.5l-4.86 4.81h1.11l4.81-4.81h.28v.22L23.38 40h1.11l3.46-3.46v.5L24.99 40h1.11l1.85-1.85v.5l-1.35 1.34h1.35l-4.86 4.81h-8.05v.28l-4.81 4.81v1.12l4.81-4.81v.5l-4.81 4.81v1.11l4.81-4.86v.5l-4.81 4.86v1.12l4.81-4.86v.5l-4.53 4.58h1.06L15.03 51v.5l-2.96 2.96h1.11l1.85-1.85v.5l-1.35 1.35h1.35l-4.81 4.86H5.44V23.93l4.81-4.81v1.35l1.35-1.35h.5l-1.85 1.85v1.11l2.96-2.96h.5l-3.46 3.46v1.06l4.58-4.53h.5l-5.09 5.03v1.11l6.21-6.14h.5l-6.71 6.65v1.11l7.82-7.77h.5l-8.32 8.27v1.11l9.44-9.37h.5l-4.81 4.81c.01.01 17.45.01 17.45.01zm-17.72.22-4.81 4.86v1.11l4.81-4.86v-1.11zm0 1.63-4.81 4.86v1.06l4.81-4.81v-1.11zm0 1.62-4.81 4.81v1.11l4.81-4.81V27.4zm-4.81 17.72v1.12l4.81-4.86v-1.11l-4.81 4.85zm4.81-3.24-4.81 4.86v1.06l4.81-4.81v-1.11zm0 1.61-4.81 4.81v1.11l4.81-4.81v-1.11zm1.4-19.56 4.81-4.81h.5L17 23.93h-.5zm1.62 0 4.81-4.81h.5l-4.81 4.81h-.5zm1.56 0 4.86-4.81h.5l-4.86 4.81h-.5zm1.63 0 4.86-4.81h.5l-4.86 4.81h-.5zm1.62 0 4.81-4.81h.5l-4.81 4.81h-.5zm1.62 0 4.81-4.81h.5l-4.81 4.81h-.5zm1.62 0 4.81-4.81h.5l-4.81 4.81h-.5zm6.65-4.81v.22l-4.58 4.58h-.5l4.86-4.81c0 .01.22.01.22.01zm-3.47 4.81 3.46-3.46v.5l-2.96 2.96h-.5zm1.63 0 1.85-1.85v.5l-1.35 1.35h-.5zm26.2 11.52-4.58 4.58h1.11l3.46-3.46v.5l-2.96 2.96h1.06l1.9-1.85v.5l-1.4 1.34h1.4l-4.86 4.81H37.84v-4.81l4.86-4.81v1.35l1.35-1.35h.5l-1.85 1.85v1.11l2.96-2.96h.5l-3.46 3.46v1.11l4.53-4.58h.5l-4.8 4.83h1.11l4.81-4.81h.5l-4.81 4.81h1.11l4.81-4.81h.5l-4.81 4.81h1.06l4.86-4.81h.5l-4.86 4.81h1.11l4.86-4.81h.5l-4.86 4.81h1.11l4.81-4.81h.5l-4.81 4.81h1.11l4.81-4.81h.28v.22l.05.01zm27.72-11.3v1.11l4.81-4.81v.5l-4.81 4.81v1.11l4.81-4.81v.5l-4.81 4.81v1.11l4.81-4.86v.5L84.9 29v1.11l4.81-4.86v.5l-4.81 4.86v1.06l4.81-4.81v.5l-4.81 4.81v1.15l4.81-4.81v.5l-4.81 4.81v1.11l4.81-4.81v.5l-4.81 4.81v1.11l4.81-4.86v.5l-4.81 4.86v1.11l4.81-4.86v.5l-4.81 4.86v1.06l4.81-4.81v.5l-4.81 4.81v1.11l4.81-4.81v.5l-4.81 4.81v1.12l4.81-4.81v.5l-4.81 4.81v1.11l4.81-4.86v.5l-4.81 4.86v1.12l4.81-4.86v.5l-4.81 4.86v1.06l4.81-4.81v.5l-4.81 4.81v1.11l4.81-4.81v.5l-9.39 9.39h1.11l8.27-8.27v.5l-7.77 7.77h1.11l6.65-6.71v.5l-6.14 6.2h1.06l5.09-5.09v.5l-4.58 4.58h1.11l3.46-3.46v.5l-2.96 2.96h1.11l1.85-1.85v.5l-1.35 1.35h1.35l-4.81 4.86h-22.5V23.93l4.81-4.81v1.35l1.35-1.35h.5l-1.85 1.85v1.11l2.96-2.96h.5l-3.46 3.46v1.06l4.58-4.53H72v.22l-4.81 4.81v1.11l4.81-4.8v.5l-4.81 4.81v1.11l4.81-4.8v.5l-4.81 4.81v1.11L72 23.63v.5l-4.81 4.86v1.11L72 25.24v.5l-4.81 4.86v1.06L72 26.85v.5l-4.81 4.81v1.16l4.81-4.8v.5l-4.81 4.81v1.11L72 30.13v.5l-4.81 4.81v1.11L72 31.69v.5l-4.81 4.86v1.11L72 33.32v.5l-4.81 4.86v1.06l4.81-4.8v.5l-4.81 4.81v1.11L72 36.55v.5l-4.81 4.81v1.12l4.81-4.8v.5l-4.81 4.81v1.11L72 39.74v.5l-4.81 4.86v1.12L72 41.36v.5l-4.81 4.86v1.06L72 42.97v.5l-4.81 4.81v1.11l4.81-4.8v.5l-4.81 4.81v1.12L72 46.21v.5l-4.81 4.81v1.11L72 47.77v.5l-4.81 4.86v1.12L72 49.4v.28h.28l-4.81 4.81h1.06l4.86-4.81h.5l-4.86 4.81h1.11L75 49.67h.5l-4.86 4.81h1.11l4.81-4.81h.5l-4.81 4.81h1.11l4.81-4.81h.5l-4.81 4.81h1.11l4.81-4.81H80V23.93l4.86-4.81v1.35l1.35-1.35h.5l-1.85 1.85v1.11l2.96-2.96h.5l-3.46 3.46v1.06l4.58-4.53h.22v.22l-4.76 4.82zm-9.39 30.36h1.06l4.86-4.81h-1.11l-4.81 4.81zm6.43-4.81-4.86 4.81h1.11l4.86-4.81h-1.11zm2.69 0h-1.06l-4.86 4.81h1.11l4.81-4.81zm37.61-30.34-4.58 4.58h1.11l3.46-3.46v.5l-2.96 2.96h1.11l1.85-1.85v.5l-1.35 1.35h1.35l-4.81 4.81h-4.03v-.56l-4.81 4.86v1.06l4.81-4.81v.5l-4.81 4.81v1.11l4.81-4.81v.5l-4.81 4.81v1.11l4.81-4.86v.56l-4.81 4.81v1.11l4.81-4.86v.5l-4.81 4.86v1.06l4.81-4.81v.5l-4.81 4.86v1.06l4.81-4.81v.5l-4.81 4.81v1.11l4.81-4.81v.5l-4.81 4.81v1.12l4.81-4.86v.56l-4.81 4.81v1.11l4.81-4.86v.5l-4.81 4.86v1.06l4.81-4.81v.5l-4.81 4.86v1.06l4.81-4.81v.5l-4.81 4.81v1.11l4.81-4.81v.5l-4.81 4.81v1.12l4.81-4.86v.56l-4.81 4.81v.56h.5l4.31-4.31v.5l-3.8 3.8h1.11l2.68-2.68v.5l-2.18 2.18h1.11l1.06-1.06v.5l-.56.56h.56l-4.81 4.86h-4.86V28.68h-8.83v-4.81l4.81-4.81v1.35l1.35-1.35h.5l-1.85 1.85v1.11l2.96-2.96h.5l-3.46 3.46v1.06l4.58-4.53h.5l-4.81 4.81h1.06l4.86-4.81h.5l-4.86 4.81h1.11l4.86-4.81h.5l-4.86 4.81h1.11l4.81-4.81h.5l-4.81 4.81h1.11l4.81-4.81h.5l-4.81 4.81h1.11l4.81-4.81h.5l-4.81 4.81h.56v.5l5.36-5.31h.5l-5.87 5.87v1.06l6.99-6.93h.5l-7.49 7.43v1.11l8.55-8.55h.5l-9.06 9.06v1.11l4.81-4.86v-.5h.56l4.81-4.81h.5l-4.81 4.81h1.11l4.81-4.81h.5L116 23.86h1.06l4.86-4.81h.22v.31h.1zM113.4 25l-4.81 4.81v1.11l4.81-4.86V25zm0 1.56-4.81 4.86v1.06l4.81-4.81v-1.11zm18.83-2.41v1.11l4.81-4.81v.5l-4.81 4.81v1.11l4.81-4.81v.5l-4.81 4.81v1.11l4.81-4.86v.5L132.23 29v1.11l4.81-4.86v.5l-4.81 4.86v1.06l4.81-4.81v.5l-4.81 4.81v1.15l4.81-4.81v.5l-4.81 4.81v1.11l4.81-4.81v.5l-4.81 4.81v1.11l4.81-4.86v.5l-4.81 4.86v1.11l4.81-4.86v.5l-4.81 4.86v1.06l4.81-4.81v.5l-4.81 4.81v1.11l4.81-4.81v.5l-4.81 4.81v1.12l4.81-4.81v.5l-4.81 4.81v1.11l4.81-4.86v.5l-4.81 4.86v1.12l4.81-4.86v.5l-4.81 4.86v1.06l4.81-4.81v.5l-4.81 4.81v1.11l4.81-4.81v.5l-4.81 4.81V51l4.81-4.81v.5l-4.81 4.81v1.11l4.81-4.86v.5l-4.81 4.86v1.12l4.81-4.86v.5l-4.58 4.58h1.12l3.46-3.46v.5l-2.96 2.96h1.11l1.85-1.85v.5l-1.35 1.35h1.35l-4.81 4.86h-4.81V23.93l4.81-4.81v1.35l1.35-1.35h.5l-1.85 1.85v1.11l2.96-2.96h.5l-3.46 3.46v1.06l4.58-4.53h.22v.22c.01.01-4.8 4.82-4.8 4.82zm37.34 25.78-4.58 4.58h1.12l3.46-3.46v.5l-2.96 2.96h1.11l1.85-1.85v.5l-1.35 1.35h1.35l-4.81 4.86h-22.52V23.93l4.81-4.81v1.35l1.35-1.35h.5l-1.85 1.85v1.11l2.96-2.96h.5l-3.46 3.46v1.06l4.58-4.53h.22v.22l-4.81 4.81v1.11l4.81-4.81v.5l-4.81 4.81v1.11l4.81-4.81v.5l-4.81 4.81v1.11l4.81-4.86v.5l-4.81 4.86v1.11l4.81-4.86v.5l-4.81 4.86v1.06l4.81-4.81v.5l-4.81 4.81v1.16l4.81-4.81v.5l-4.81 4.81v1.11l4.81-4.81v.5l-4.81 4.81v1.11l4.81-4.86v.5l-4.81 4.86v1.11l4.81-4.86v.5l-4.81 4.86v1.06l4.81-4.81v.5l-4.81 4.81v1.11l4.81-4.81v.5l-4.81 4.81v1.12l4.81-4.81v.5l-4.81 4.81v1.11l4.81-4.86v.5l-4.81 4.86v1.12l4.81-4.86v.5l-4.81 4.86v1.06l4.81-4.81v.5l-4.81 4.81v1.11l4.81-4.81v.5l-4.81 4.81V51l4.81-4.81v.5l-4.81 4.81v1.11l4.81-4.86v.5l-4.81 4.86v1.12l4.81-4.86v.28h.28l-4.81 4.81h1.06l4.86-4.81h.5l-4.86 4.81H150l4.86-4.81h.5l-4.86 4.81h1.12l4.81-4.81h.5l-4.81 4.81h1.11l4.81-4.81h.5l-4.81 4.81h1.12l4.81-4.81h.5l-4.81 4.81h1.06l4.86-4.81h.5l-4.86 4.81h1.11l4.86-4.81h.5l-4.86 4.81h1.12l4.81-4.81h.5l-4.81 4.81h1.11l4.81-4.81h.5l-4.81 4.81h1.12l4.81-4.81h.5l-4.81 4.81h1.06l4.86-4.81h.22v.27l.06.01zm10-25.78v1.11l4.81-4.81v.5l-4.81 4.81v1.11l4.81-4.81v.5l-4.81 4.81v1.11l4.81-4.86v.5L179.57 29v1.11l4.81-4.86v.5l-4.81 4.86v1.06l4.81-4.81v.5l-4.81 4.81v1.15l4.81-4.81v.5l-4.81 4.81v1.11l4.81-4.81v.5l-4.81 4.81v1.11l4.81-4.86v.5l-4.81 4.86v1.11l4.81-4.86v.5l-4.81 4.86v1.06l4.81-4.81v.5l-4.81 4.81v1.11l4.81-4.81v.5l-4.81 4.81v1.12l4.81-4.81v.5l-4.81 4.81v1.11l4.81-4.86v.5l-4.81 4.86v1.12l4.81-4.86v.5l-4.81 4.86v1.06l4.81-4.81v.5l-4.81 4.81v1.11l4.81-4.81v.5l-4.81 4.81V51l4.81-4.81v.5l-4.81 4.81v1.11l4.81-4.86v.5l-4.81 4.86v1.12l4.81-4.86v.5l-4.58 4.58h1.12l3.46-3.46v.5l-2.96 2.96h1.11l1.85-1.85v.5l-1.35 1.35h1.35l-4.81 4.86h-4.81V23.93l4.81-4.81v1.35l1.35-1.35h.5l-1.85 1.85v1.11l2.96-2.96h.5l-3.46 3.46v1.06l4.58-4.53h.22v.22c.01.01-4.8 4.82-4.8 4.82zm37.34-4.79-4.58 4.58h1.12l3.46-3.46v.5l-2.96 2.96h1.11l1.85-1.85v.5l-1.35 1.35h1.35l-4.81 4.81h-4.03v-.56l-4.81 4.86v1.06l4.81-4.81v.5l-4.81 4.81v1.11l4.81-4.81v.5l-4.81 4.81v1.11l4.81-4.86v.56l-4.81 4.81v1.11l4.81-4.86v.5l-4.81 4.86v1.06l4.81-4.81v.5l-4.81 4.86v1.06l4.81-4.81v.5l-4.81 4.81v1.11l4.81-4.81v.5l-4.81 4.81v1.12l4.81-4.86v.56l-4.81 4.81v1.11l4.81-4.86v.5l-4.81 4.86v1.06l4.81-4.81v.5l-4.81 4.86v1.06l4.81-4.81v.5l-4.81 4.81v1.11l4.81-4.81v.5l-4.81 4.81v1.12l4.81-4.86v.56l-4.81 4.81v.56h.5l4.31-4.31v.5l-3.8 3.8h1.11l2.68-2.68v.5l-2.18 2.18H207l1.06-1.06v.5l-.56.56h.56l-4.81 4.86h-4.86V28.68h-8.83v-4.81l4.81-4.81v1.35l1.35-1.35h.5l-1.85 1.85v1.11l2.96-2.96h.5l-3.46 3.46v1.06l4.58-4.53h.5l-4.81 4.81h1.06l4.86-4.81h.5l-4.86 4.81h1.11l4.86-4.81h.5l-4.86 4.81h1.12l4.81-4.81h.5l-4.81 4.81h1.11l4.81-4.81h.5l-4.81 4.81h1.12l4.81-4.81h.5l-4.81 4.81h.56v.5l5.36-5.31h.5l-5.87 5.87v1.06l6.99-6.93h.5l-7.49 7.43v1.11l8.55-8.55h.5l-9.06 9.06v1.11l4.81-4.86v-.5h.56l4.81-4.81h.5l-4.81 4.81h1.12l4.81-4.81h.5l-4.81 4.81h1.06l4.86-4.81h.22v.31l.08.01zM208.07 25l-4.81 4.81v1.11l4.81-4.86V25zm0 1.56-4.81 4.86v1.06l4.81-4.81v-1.11zm36.56-2.41v1.11l4.81-4.81v.5L234.29 36.1l.56.56 14.59-14.59v.5L235.07 36.9l.56.56 13.81-13.81v.5l-13.75 13.71v1.17l13.75-13.75v.5l-13.75 13.76v1.12l13.75-13.75v.5l-13.75 13.74v1.11l13.75-13.75v.5l-13.75 13.76v1.12l4.86-4.86v.5l-4.86 4.86v1.06l4.86-4.81v.5l-4.86 4.81v1.11l4.86-4.81v.5l-4.86 4.81v1.11l4.86-4.81v.5l-4.86 4.81v1.12l4.86-4.86v.5l-4.86 4.86v1.11l4.86-4.86v.5l-4.86 4.86v1.06l4.86-4.81v.5l-4.86 4.81v.5h.61l4.25-4.19v.5l-3.75 3.68h1.11l2.63-2.57v.5l-2.13 2.07h1.12l1-1v.5l-.5.5h.5l-4.86 4.86h-4.81V42.38l-8.78-8.78v-9.67l4.81-4.81v1.35l1.35-1.35h.5l-1.85 1.85v1.11l2.96-2.96h.5l-3.46 3.46v1.06l4.58-4.53h.22v.22l-4.81 4.81v1.11l4.81-4.81v.5l-4.81 4.81v1.11l4.81-4.81v.5l-4.81 4.81v1.11l4.81-4.86v.5l-4.7 4.7.56.56 4.14-4.14v.22l.17.17-4.08 3.97.61.61 3.97-4.08.28.28-4.03 4.03.56.56 4.03-4.03.28.28-4.08 3.97.61.61 3.97-4.03.28.28-4.03 3.97.56.56 3.97-4.03.28.28-4.03 3.97.56.56 4.03-4.03.28.28-4.08 3.97.61.61 3.97-4.08.28.28-4.03 4.03.56.56 4.03-4.03.28.28-4.08 3.97.61.61 5.7-5.75v-6.21l4.86-4.81v1.35l1.35-1.35h.5l-1.85 1.85v1.11l2.96-2.96h.5l-3.46 3.46v1.06l4.58-4.53h.22v.22l-4.76 4.88z"/></svg>