<?xml version="1.0" encoding="utf-8"?>
<!-- Generator: Adobe Illustrator 25.3.1, SVG Export Plug-In . SVG Version: 6.00 Build 0)  -->
<svg version="1.1" id="Layer_1" xmlns="http://www.w3.org/2000/svg" xmlns:xlink="http://www.w3.org/1999/xlink" x="0px" y="0px"
	 viewBox="0 0 32 32" style="enable-background:new 0 0 32 32;" xml:space="preserve">
<style type="text/css">
	.st0{fill:#FFFFFF;}
</style>
<g>
	<path d="M30,9.8l-3.5-3.8c0,0,0,0,0,0c0.8,1,1.1,2.2,0.7,3.7c-0.5,1.9-1.5,2.9-3.2,3.6c-0.7,0.3-1.5,0.4-2.4,0.5l0,0.2
		c0.6,0.1,1.2,0.2,1.6,0.3c2.1,0.7,2.7,2.3,2.1,4.9c-0.8,3.2-3.4,4.7-8,4.7H0.8L4.6,28h16.5c4.5,0,7.2-1.4,8-4.7
		c0.5-1.9,0.3-3.2-0.6-4l-1.5-1.6c0.3-0.1,0.6-0.2,0.9-0.3c1.8-0.7,2.7-1.7,3.2-3.6C31.5,12.2,31.1,10.9,30,9.8z"/>
	<path d="M19.5,17.7c0.4-1.6-0.5-2.2-2.7-2.2c-2.3,0-5,0-7.9,0.1c-0.3,1.3-0.6,2.6-0.9,3.7c3.2,0,5.7,0,8,0
		C18.1,19.4,19.2,19,19.5,17.7z"/>
	<path d="M21.2,10.2c0.4-1.5-0.6-2.1-2.4-2.1c-2.4,0-5.1,0-8,0.1c-0.3,1.1-0.6,2.4-1,3.8c3,0.1,5.6,0.1,7.9,0.1
		C19.7,12,20.9,11.4,21.2,10.2z"/>
</g>
<path class="st0" d="M18.7,8.1c-2.4,0-5.1,0-8,0.1c-0.3,1.1-0.6,2.4-1,3.8c3,0.1,5.6,0.1,7.9,0.1c2,0,3.1-0.6,3.4-1.8
	C21.6,8.6,20.6,8.1,18.7,8.1z M16.8,15.6c-2.3,0-5,0-7.9,0.1c-0.3,1.3-0.6,2.6-0.9,3.7c3.2,0,5.7,0,8,0c2.2,0,3.2-0.4,3.5-1.7
	C19.9,16.1,19,15.6,16.8,15.6z M20.7,4c4.8,0,7.4,2.4,6.5,5.8c-0.5,1.9-1.5,2.9-3.2,3.6c-0.7,0.3-1.5,0.4-2.4,0.5l0,0.2
	c0.6,0.1,1.2,0.2,1.6,0.3c2.1,0.7,2.7,2.3,2.1,4.9c-0.8,3.2-3.4,4.7-8,4.7H0.8c0.9-2.8,1.6-5.7,2.6-10c1-4.2,1.8-7.3,2.3-10H20.7z"
	/>
</svg>
