<svg xmlns="http://www.w3.org/2000/svg" viewBox="0 0 254.9 78.4" style="enable-background:new 0 0 254.9 78.4" xml:space="preserve"><style>.st0{opacity:.5}</style><g id="Layer_1"><path d="M28 47.1H8.9l.6-3h3.3l2.6-12.5h-3.3l.7-3H31L29.4 36h1L28 47.1zM26.7 39h-9.8l-1.1 5.1h9.8l1.1-5.1zm-8.2-7.4-.9 4.4h8.8l.9-4.3h-8.8zM39 40.9l-.7 3.2h2.8l-.6 3h-8.7l.6-3h2.8l2.6-12.5H35l.7-3h17.6l-2.6 12.3h-3.1l.4 3.2h4.1l-.6 3h-6.4l-.7-6.2H39zm1.9-9.3-1.3 6.3h8.8l1.3-6.3h-8.8zM72.5 47.1H55.3l.6-3h3.3L62 31.6h-3.3l.7-3h16.9L75 34.8h-3l.7-3.2H65l-.9 4.4H69l-.7 3h-4.9l-1.1 5.1H70l.7-3.4h3l-1.2 6.4zM85.9 47.1h-9.6l.6-3h3.5l6.3-12.5h-2.3l.7-3h14.7l-.7 3h-2.2l1 12.5h3.5l-.6 3h-9.6l.6-3h3l-.3-3.2h-9.3l-1.6 3.2h3l-.7 3zm4-15.5-3.2 6.3h7.5l-.5-6.3h-3.8zM113.6 31.6l-1.2 5.8 8.3-5.8h-2.4l.7-3h9.7l-.7 3h-2.5l-8.4 5.9 4.6 6.6h3.1l-.6 3h-9.7l.6-3h2.5l-3.3-4.7-2.8 1.9-.6 2.8h2.8l-.6 3h-8.7l.6-3h2.8l2.6-12.5h-2.8l.7-3h8.7l-.7 3h-2.7zM131.9 44.1l2.6-12.5h-2.8l.7-3H150l-2.6 12.3h-11.8l-.7 3.2h2.8l-.6 3h-8.7l.6-3h2.9zm5.7-12.5-1.3 6.3h8.8l1.3-6.3h-8.8zM153.8 28.6h16.6l-3.9 18.5h-16.6l3.9-18.5zm-.2 15.5h10.5l2.6-12.5h-10.5l-2.6 12.5zM178.9 47.1h-8.7l.6-3h2.8l2.6-12.5h-2.8l.7-3h8.7l-.7 3h-2.8l-2.6 12.5h2.8l-.6 3zM186.2 44.1l2.6-12.5H186l.7-3h6.9l6.5 13.3 2.2-10.3h-2.8l.7-3h8.7l-.7 3h-2.8L202 47.1h-3l-7.3-14.8-2.5 11.8h2.8l-.6 3h-8.7l.6-3h2.9zM212.6 28.6h17.6l-1.3 6.2h-3l.7-3.2h-4.3l-2.6 12.5h3.3l-.6 3h-9.7l.6-3h3.3l2.6-12.5H215l-.7 3.2h-3l1.3-6.2zM234.4 40.9l-.7 3.2h9.9l.7-3.1-11.8-4.4 1.7-8h15.4l-1.3 6.2h-3l.7-3.2h-9.4l-.6 2.8 11.8 4.4-1.7 8.3h-16l1.3-6.2h3z"/><path class="st0" d="M2.3 1.1h1.6v2.6H2.3zM6.6 1.1h1.6v2.6H6.6zM11 1.1h1.6v2.6H11zM15.3 1.1h1.6v2.6h-1.6zM19.7 1.1h1.6v10.6h-1.6zM24 1.1h1.6v2.6H24zM28.4 1.1H30v2.6h-1.6zM32.7 1.1h1.6v2.6h-1.6zM37.1 1.1h1.6v2.6h-1.6zM41.4 1.1H43v10.6h-1.6zM45.8 1.1h1.6v2.6h-1.6zM50.1 1.1h1.6v2.6h-1.6zM54.5 1.1h1.6v2.6h-1.6zM58.8 1.1h1.6v2.6h-1.6zM63.2 1.1h1.6v10.6h-1.6zM67.5 1.1h1.6v2.6h-1.6zM71.9 1.1h1.6v2.6h-1.6zM76.2 1.1h1.6v2.6h-1.6zM80.6 1.1h1.6v2.6h-1.6zM84.9 1.1h1.6v10.6h-1.6zM89.3 1.1h1.6v2.6h-1.6zM93.6 1.1h1.6v2.6h-1.6zM98 1.1h1.6v2.6H98zM102.3 1.1h1.6v2.6h-1.6zM106.7 1.1h1.6v10.6h-1.6zM111 1.1h1.6v2.6H111zM115.4 1.1h1.6v2.6h-1.6zM119.7 1.1h1.6v2.6h-1.6zM124.1 1.1h1.6v2.6h-1.6zM128.4 1.1h1.6v10.6h-1.6zM132.8 1.1h1.6v2.6h-1.6zM137.1 1.1h1.6v2.6h-1.6zM141.5 1.1h1.6v2.6h-1.6zM145.8 1.1h1.6v2.6h-1.6zM150.2 1.1h1.6v10.6h-1.6zM154.5 1.1h1.6v2.6h-1.6zM158.9 1.1h1.6v2.6h-1.6zM163.2 1.1h1.6v2.6h-1.6zM167.6 1.1h1.6v2.6h-1.6zM171.9 1.1h1.6v10.6h-1.6zM176.1 1.1h1.6v2.6h-1.6zM180.4 1.1h1.6v2.6h-1.6zM184.8 1.1h1.6v2.6h-1.6zM189.1 1.1h1.6v2.6h-1.6zM193.5 1.1h1.6v10.6h-1.6zM197.8 1.1h1.6v2.6h-1.6zM202.2 1.1h1.6v2.6h-1.6zM206.5 1.1h1.6v2.6h-1.6zM210.9 1.1h1.6v2.6h-1.6zM215.2 1.1h1.6v10.6h-1.6zM219 1.1h1.6v2.6H219zM223.3 1.1h1.6v2.6h-1.6zM227.7 1.1h1.6v2.6h-1.6zM232 1.1h1.6v2.6H232zM236.4 1.1h1.6v10.6h-1.6zM240 1.1h1.6v2.6H240zM244.4 1.1h1.6v2.6h-1.6zM248.7 1.1h1.6v2.6h-1.6zM253.1 1.1h1.6v2.6h-1.6z"/></g></svg>
