<?xml version="1.0" encoding="utf-8"?>
<!-- Generator: Adobe Illustrator 24.1.0, SVG Export Plug-In . SVG Version: 6.00 Build 0)  -->
<svg version="1.1" xmlns="http://www.w3.org/2000/svg" xmlns:xlink="http://www.w3.org/1999/xlink" x="0px" y="0px"
	 viewBox="0 0 254.9 78.4" style="enable-background:new 0 0 254.9 78.4;" xml:space="preserve">
<style type="text/css">
	.st0{opacity:0.5;}
</style>
<g id="Layer_1">
	<g>
		<path d="M28,47.1H8.9l0.6-3h3.3l2.6-12.5h-3.3l0.7-3H31L29.4,36h1L28,47.1z M26.7,39h-9.8l-1.1,5.1h9.8L26.7,39z M18.5,31.6
			L17.6,36h8.8l0.9-4.3H18.5z"/>
		<path d="M39,40.9l-0.7,3.2h2.8l-0.6,3h-8.7l0.6-3h2.8l2.6-12.5h-2.8l0.7-3h17.6l-2.6,12.3h-3.1l0.4,3.2h4.1l-0.6,3h-6.4l-0.7-6.2
			H39z M40.9,31.6l-1.3,6.3h8.8l1.3-6.3H40.9z"/>
		<path d="M72.5,47.1H55.3l0.6-3h3.3L62,31.6h-3.3l0.7-3h16.9l-1.3,6.2h-3l0.7-3.2H65L64.1,36H69l-0.7,3h-4.9l-1.1,5.1h7.7l0.7-3.4
			h3L72.5,47.1z"/>
		<path d="M85.9,47.1h-9.6l0.6-3h3.5l6.3-12.5h-2.3l0.7-3h14.7l-0.7,3h-2.2l1,12.5h3.5l-0.6,3h-9.6l0.6-3h3l-0.3-3.2h-9.3l-1.6,3.2
			h3L85.9,47.1z M89.9,31.6l-3.2,6.3h7.5l-0.5-6.3H89.9z"/>
		<path d="M113.6,31.6l-1.2,5.8l8.3-5.8h-2.4l0.7-3h9.7l-0.7,3h-2.5l-8.4,5.9l4.6,6.6h3.1l-0.6,3h-9.7l0.6-3h2.5l-3.3-4.7l-2.8,1.9
			l-0.6,2.8h2.8l-0.6,3h-8.7l0.6-3h2.8l2.6-12.5h-2.8l0.7-3h8.7l-0.7,3H113.6z"/>
		<path d="M131.9,44.1l2.6-12.5h-2.8l0.7-3H150l-2.6,12.3h-11.8l-0.7,3.2h2.8l-0.6,3h-8.7l0.6-3H131.9z M137.6,31.6l-1.3,6.3h8.8
			l1.3-6.3H137.6z"/>
		<path d="M153.8,28.6h16.6l-3.9,18.5h-16.6L153.8,28.6z M153.6,44.1h10.5l2.6-12.5h-10.5L153.6,44.1z"/>
		<path d="M178.9,47.1h-8.7l0.6-3h2.8l2.6-12.5h-2.8l0.7-3h8.7l-0.7,3h-2.8l-2.6,12.5h2.8L178.9,47.1z"/>
		<path d="M186.2,44.1l2.6-12.5H186l0.7-3h6.9l6.5,13.3l2.2-10.3h-2.8l0.7-3h8.7l-0.7,3h-2.8L202,47.1h-3l-7.3-14.8l-2.5,11.8h2.8
			l-0.6,3h-8.7l0.6-3H186.2z"/>
		<path d="M212.6,28.6h17.6l-1.3,6.2h-3l0.7-3.2h-4.3l-2.6,12.5h3.3l-0.6,3h-9.7l0.6-3h3.3l2.6-12.5H215l-0.7,3.2h-3L212.6,28.6z"/>
		<path d="M234.4,40.9l-0.7,3.2h9.9l0.7-3.1l-11.8-4.4l1.7-8h15.4l-1.3,6.2h-3l0.7-3.2h-9.4l-0.6,2.8l11.8,4.4l-1.7,8.3h-16l1.3-6.2
			H234.4z"/>
	</g>
	<rect x="2.3" y="1.1" class="st0" width="1.6" height="2.6"/>
	<rect x="6.6" y="1.1" class="st0" width="1.6" height="2.6"/>
	<rect x="11" y="1.1" class="st0" width="1.6" height="2.6"/>
	<rect x="15.3" y="1.1" class="st0" width="1.6" height="2.6"/>
	<rect x="19.7" y="1.1" class="st0" width="1.6" height="10.6"/>
	<rect x="24" y="1.1" class="st0" width="1.6" height="2.6"/>
	<rect x="28.4" y="1.1" class="st0" width="1.6" height="2.6"/>
	<rect x="32.7" y="1.1" class="st0" width="1.6" height="2.6"/>
	<rect x="37.1" y="1.1" class="st0" width="1.6" height="2.6"/>
	<rect x="41.4" y="1.1" class="st0" width="1.6" height="10.6"/>
	<rect x="45.8" y="1.1" class="st0" width="1.6" height="2.6"/>
	<rect x="50.1" y="1.1" class="st0" width="1.6" height="2.6"/>
	<rect x="54.5" y="1.1" class="st0" width="1.6" height="2.6"/>
	<rect x="58.8" y="1.1" class="st0" width="1.6" height="2.6"/>
	<rect x="63.2" y="1.1" class="st0" width="1.6" height="10.6"/>
	<rect x="67.5" y="1.1" class="st0" width="1.6" height="2.6"/>
	<rect x="71.9" y="1.1" class="st0" width="1.6" height="2.6"/>
	<rect x="76.2" y="1.1" class="st0" width="1.6" height="2.6"/>
	<rect x="80.6" y="1.1" class="st0" width="1.6" height="2.6"/>
	<rect x="84.9" y="1.1" class="st0" width="1.6" height="10.6"/>
	<rect x="89.3" y="1.1" class="st0" width="1.6" height="2.6"/>
	<rect x="93.6" y="1.1" class="st0" width="1.6" height="2.6"/>
	<rect x="98" y="1.1" class="st0" width="1.6" height="2.6"/>
	<rect x="102.3" y="1.1" class="st0" width="1.6" height="2.6"/>
	<rect x="106.7" y="1.1" class="st0" width="1.6" height="10.6"/>
	<rect x="111" y="1.1" class="st0" width="1.6" height="2.6"/>
	<rect x="115.4" y="1.1" class="st0" width="1.6" height="2.6"/>
	<rect x="119.7" y="1.1" class="st0" width="1.6" height="2.6"/>
	<rect x="124.1" y="1.1" class="st0" width="1.6" height="2.6"/>
	<rect x="128.4" y="1.1" class="st0" width="1.6" height="10.6"/>
	<rect x="132.8" y="1.1" class="st0" width="1.6" height="2.6"/>
	<rect x="137.1" y="1.1" class="st0" width="1.6" height="2.6"/>
	<rect x="141.5" y="1.1" class="st0" width="1.6" height="2.6"/>
	<rect x="145.8" y="1.1" class="st0" width="1.6" height="2.6"/>
	<rect x="150.2" y="1.1" class="st0" width="1.6" height="10.6"/>
	<rect x="154.5" y="1.1" class="st0" width="1.6" height="2.6"/>
	<rect x="158.9" y="1.1" class="st0" width="1.6" height="2.6"/>
	<rect x="163.2" y="1.1" class="st0" width="1.6" height="2.6"/>
	<rect x="167.6" y="1.1" class="st0" width="1.6" height="2.6"/>
	<rect x="171.9" y="1.1" class="st0" width="1.6" height="10.6"/>
	<rect x="176.1" y="1.1" class="st0" width="1.6" height="2.6"/>
	<rect x="180.4" y="1.1" class="st0" width="1.6" height="2.6"/>
	<rect x="184.8" y="1.1" class="st0" width="1.6" height="2.6"/>
	<rect x="189.1" y="1.1" class="st0" width="1.6" height="2.6"/>
	<rect x="193.5" y="1.1" class="st0" width="1.6" height="10.6"/>
	<rect x="197.8" y="1.1" class="st0" width="1.6" height="2.6"/>
	<rect x="202.2" y="1.1" class="st0" width="1.6" height="2.6"/>
	<rect x="206.5" y="1.1" class="st0" width="1.6" height="2.6"/>
	<rect x="210.9" y="1.1" class="st0" width="1.6" height="2.6"/>
	<rect x="215.2" y="1.1" class="st0" width="1.6" height="10.6"/>
	<rect x="219" y="1.1" class="st0" width="1.6" height="2.6"/>
	<rect x="223.3" y="1.1" class="st0" width="1.6" height="2.6"/>
	<rect x="227.7" y="1.1" class="st0" width="1.6" height="2.6"/>
	<rect x="232" y="1.1" class="st0" width="1.6" height="2.6"/>
	<rect x="236.4" y="1.1" class="st0" width="1.6" height="10.6"/>
	<rect x="240" y="1.1" class="st0" width="1.6" height="2.6"/>
	<rect x="244.4" y="1.1" class="st0" width="1.6" height="2.6"/>
	<rect x="248.7" y="1.1" class="st0" width="1.6" height="2.6"/>
	<rect x="253.1" y="1.1" class="st0" width="1.6" height="2.6"/>
</g>
<g id="Layer_2">
</g>
</svg>
