<svg xmlns="http://www.w3.org/2000/svg" viewBox="0 0 254.9 78.4"><g class="group-1 primary"><path d="M11 42.5c-.5 0-.9-.4-.9-.9s.4-.9.9-.9.9.4.9.9-.4.9-.9.9zm.5-6.6c-.5 0-.9-.4-.9-.9s.4-.9.9-.9.9.4.9.9-.4.9-.9.9zm3.1 12.2c-.5 0-.9-.4-.9-.9s.4-.9.9-.9.9.4.9.9c0 .6-.4.9-.9.9zm1.3-17.3c-.5 0-.9-.4-.9-.9s.4-.9.9-.9.9.4.9.9-.4.9-.9.9zm5 19.7c-.5 0-.9-.4-.9-.9s.4-.9.9-.9.9.4.9.9-.4.9-.9.9zm1.5-21c-.5 0-.9-.4-.9-.9s.4-.9.9-.9.9.4.9.9-.4.9-.9.9zm.6 12.2c-.5 0-.9-.4-.9-.9s.4-.9.9-.9.9.4.9.9-.4.9-.9.9zm4.2 6.9c-.5 0-.9-.4-.9-.9s.4-.9.9-.9.9.4.9.9-.4.9-.9.9zm1.3-16.4c-.5 0-.9-.4-.9-.9s.4-.9.9-.9.9.4.9.9c-.1.6-.4.9-.9.9zm.7 9.5c-.5 0-.9-.4-.9-.9s.4-.9.9-.9.9.4.9.9c-.1.5-.4.9-.9.9zM48.3 29.4c-.5 0-.9-.4-.9-.9s.4-.9.9-.9.9.4.9.9-.4.9-.9.9zm0 7c-.5 0-.9-.4-.9-.9s.4-.9.9-.9.9.4.9.9-.4.9-.9.9zm0 7.1c-.5 0-.9-.4-.9-.9s.4-.9.9-.9.9.4.9.9-.4.9-.9.9zm0 7c-.5 0-.9-.4-.9-.9s.4-.9.9-.9.9.4.9.9-.4.9-.9.9zM66.6 29.4c-.5 0-.9-.4-.9-.9s.4-.9.9-.9.9.4.9.9-.4.9-.9.9zm7 0c-.5 0-.9-.4-.9-.9s.4-.9.9-.9.9.4.9.9-.4.9-.9.9zm1.8 7c-.5 0-.9-.4-.9-.9s.4-.9.9-.9.9.4.9.9-.4.9-.9.9zm0 7.1c-.5 0-.9-.4-.9-.9s.4-.9.9-.9.9.4.9.9-.4.9-.9.9zm0 7c-.5 0-.9-.4-.9-.9s.4-.9.9-.9.9.4.9.9-.4.9-.9.9zm5.2-21.1c-.5 0-.9-.4-.9-.9s.4-.9.9-.9.9.4.9.9-.4.9-.9.9zM102.4 29.4c-.5 0-.9-.4-.9-.9s.4-.9.9-.9.9.4.9.9-.4.9-.9.9zm0 7c-.5 0-.9-.4-.9-.9s.4-.9.9-.9.9.4.9.9-.4.9-.9.9zm0 7.1c-.5 0-.9-.4-.9-.9s.4-.9.9-.9.9.4.9.9-.4.9-.9.9zm0 7c-.5 0-.9-.4-.9-.9s.4-.9.9-.9.9.4.9.9-.4.9-.9.9zm7.1-21.1c-.5 0-.9-.4-.9-.9s.4-.9.9-.9.9.4.9.9-.4.9-.9.9zm.2 14.1c-.5 0-.9-.4-.9-.9s.4-.9.9-.9.9.4.9.9-.4.9-.9.9zm5.8-10.7c-.5 0-.9-.4-.9-.9s.4-.9.9-.9.9.4.9.9c0 .6-.4.9-.9.9zm.1 7c-.5 0-.9-.4-.9-.9s.4-.9.9-.9.9.4.9.9c0 .6-.4.9-.9.9zM128.8 48.3c.5 0 .9.4.9.9s-.4.9-.9.9-.9-.4-.9-.9.4-.9.9-.9zm3.3-6.2c.5 0 .9.4.9.9s-.4.9-.9.9-.9-.4-.9-.9.4-.9.9-.9zm1.9 2.2c.5 0 .9.4.9.9s-.4.9-.9.9-.9-.4-.9-.9.4-.9.9-.9zm1.5-8.4c.5 0 .9.4.9.9s-.4.9-.9.9-.9-.4-.9-.9c0-.4.4-.9.9-.9zm3.8-4.4c-.5 0-.9-.4-.9-.9s.4-.9.9-.9.9.4.9.9c-.1.6-.4.9-.9.9zm1.7 12.8c.5 0 .9.4.9.9s-.4.9-.9.9-.9-.4-.9-.9.4-.9.9-.9zm2.1-6.6c-.5 0-.9-.4-.9-.9s.4-.9.9-.9.9.4.9.9c-.1.5-.5.9-.9.9zm3.3 6.2c-.5 0-.9-.4-.9-.9s.4-.9.9-.9.9.4.9.9-.4.9-.9.9zm3.4 6.1c-.5 0-.9-.4-.9-.9s.4-.9.9-.9.9.4.9.9c0 .6-.4.9-.9.9zM168.7 29.4c-.5 0-.9-.4-.9-.9s.4-.9.9-.9.9.4.9.9-.4.9-.9.9zm0 7c-.5 0-.9-.4-.9-.9s.4-.9.9-.9.9.4.9.9-.4.9-.9.9zm0 7.1c-.5 0-.9-.4-.9-.9s.4-.9.9-.9.9.4.9.9-.4.9-.9.9zm0 7c-.5 0-.9-.4-.9-.9s.4-.9.9-.9.9.4.9.9-.4.9-.9.9zm7.1-21.1c-.5 0-.9-.4-.9-.9s.4-.9.9-.9.9.4.9.9-.4.9-.9.9zm.1 14.1c-.5 0-.9-.4-.9-.9s.4-.9.9-.9.9.4.9.9-.4.9-.9.9zm4.2 4.7c-.5 0-.9-.4-.9-.9s.4-.9.9-.9.9.4.9.9-.4.9-.9.9zm1.7-15.4c-.5 0-.9-.4-.9-.9s.4-.9.9-.9.9.4.9.9c0 .6-.4.9-.9.9zm.1 7c-.5 0-.9-.4-.9-.9s.4-.9.9-.9.9.4.9.9c0 .6-.4.9-.9.9zM198.4 29.4c-.5 0-.9-.4-.9-.9s.4-.9.9-.9.9.4.9.9-.4.9-.9.9zm7 0c-.5 0-.9-.4-.9-.9s.4-.9.9-.9.9.4.9.9-.4.9-.9.9zm1.8 7c-.5 0-.9-.4-.9-.9s.4-.9.9-.9.9.4.9.9-.4.9-.9.9zm0 7.1c-.5 0-.9-.4-.9-.9s.4-.9.9-.9.9.4.9.9-.4.9-.9.9zm0 7c-.5 0-.9-.4-.9-.9s.4-.9.9-.9.9.4.9.9-.4.9-.9.9zm5.3-21.1c-.5 0-.9-.4-.9-.9s.4-.9.9-.9.9.4.9.9c-.1.5-.5.9-.9.9zM231 29.3c-.5 0-.9-.4-.9-.9s.4-.9.9-.9.9.4.9.9-.4.9-.9.9zm3.6 5.6c-.5 0-.9-.4-.9-.9s.4-.9.9-.9.9.4.9.9c-.1.5-.4.9-.9.9zm3.5 5.6c-.5 0-.9-.4-.9-.9s.4-.9.9-.9.9.4.9.9c0 .6-.4.9-.9.9zm1.5 4.8c.5 0 .9.4.9.9s-.4.9-.9.9-.9-.4-.9-.9c0-.6.4-.9.9-.9zm1.4-6.5c.5 0 .9.4.9.9s-.4.9-.9.9-.9-.4-.9-.9c.1-.5.4-.9.9-.9zm3.6-5.6c.5 0 .9.4.9.9s-.4.9-.9.9-.9-.4-.9-.9c0-.6.4-.9.9-.9zm3.5-5.7c.5 0 .9.4.9.9s-.4.9-.9.9-.9-.4-.9-.9.5-.9.9-.9z"/><g class="group-2 secondary"><path d="M23 39.9c-.5 0-.9.4-.9.9s.4.9.9.9.9-.4.9-.9-.4-.9-.9-.9zM23.3 28.6c0-.5-.4-.9-.9-.9s-.9.4-.9.9.4.9.9.9.9-.4.9-.9z"/><circle cx="28.5" cy="31.4" r=".9"/><path d="M29.2 39.9c-.5 0-.9.4-.9.9s.4.9.9.9.9-.4.9-.9c-.1-.5-.4-.9-.9-.9zM20.9 48.7c-.5 0-.9.4-.9.9s.4.9.9.9.9-.4.9-.9-.4-.9-.9-.9zM27.2 46.9c-.5 0-.9.4-.9.9s.4.9.9.9.9-.4.9-.9-.4-.9-.9-.9zM11.5 34.1c-.5 0-.9.4-.9.9s.4.9.9.9.9-.4.9-.9c0-.4-.4-.9-.9-.9zM11 40.8c-.5 0-.9.4-.9.9s.4.9.9.9.9-.4.9-.9-.4-.9-.9-.9zM14.6 46.4c-.5 0-.9.4-.9.9s.4.9.9.9.9-.4.9-.9-.4-.9-.9-.9z"/><circle cx="15.9" cy="30" r=".9"/><circle cx="48.3" cy="35.5" r=".9"/><path d="M48.3 27.6c-.5 0-.9.4-.9.9s.4.9.9.9.9-.4.9-.9-.4-.9-.9-.9zM48.3 48.7c-.5 0-.9.4-.9.9s.4.9.9.9.9-.4.9-.9-.4-.9-.9-.9z"/><circle cx="48.3" cy="42.6" r=".9"/><path d="M80.6 27.6c-.5 0-.9.4-.9.9s.4.9.9.9.9-.4.9-.9-.4-.9-.9-.9zM75.4 34.7c-.5 0-.9.4-.9.9s.4.9.9.9.9-.4.9-.9-.4-.9-.9-.9zM66.6 27.6c-.5 0-.9.4-.9.9s.4.9.9.9.9-.4.9-.9-.4-.9-.9-.9zM75.4 48.7c-.5 0-.9.4-.9.9s.4.9.9.9.9-.4.9-.9-.4-.9-.9-.9zM73.6 27.6c-.5 0-.9.4-.9.9s.4.9.9.9.9-.4.9-.9-.4-.9-.9-.9zM75.4 41.7c-.5 0-.9.4-.9.9s.4.9.9.9.9-.4.9-.9-.4-.9-.9-.9zM109.5 29.4c.5 0 .9-.4.9-.9s-.4-.9-.9-.9-.9.4-.9.9.4.9.9.9zM102.4 27.6c-.5 0-.9.4-.9.9s.4.9.9.9.9-.4.9-.9-.4-.9-.9-.9z"/><circle cx="109.7" cy="42.6" r=".9"/><circle cx="102.4" cy="42.6" r=".9"/><circle cx="102.4" cy="35.5" r=".9"/><path d="M102.4 48.7c-.5 0-.9.4-.9.9s.4.9.9.9.9-.4.9-.9-.4-.9-.9-.9zM115.6 38.1c-.5 0-.9.4-.9.9s.4.9.9.9.9-.4.9-.9-.4-.9-.9-.9zM115.5 32.8c.5 0 .9-.4.9-.9s-.4-.9-.9-.9-.9.4-.9.9c.1.6.4.9.9.9zM141 44.3c-.5 0-.9.4-.9.9s.4.9.9.9.9-.4.9-.9-.4-.9-.9-.9zM143.1 35.9c-.5 0-.9.4-.9.9s.4.9.9.9.9-.4.9-.9c-.1-.4-.5-.9-.9-.9zM139.3 29.8c-.5 0-.9.4-.9.9s.4.9.9.9.9-.4.9-.9c-.1-.5-.4-.9-.9-.9zM146.4 42.1c-.5 0-.9.4-.9.9s.4.9.9.9.9-.4.9-.9-.4-.9-.9-.9zM149.8 48.3c-.5 0-.9.4-.9.9s.4.9.9.9.9-.4.9-.9-.4-.9-.9-.9zM132.1 42.1c-.5 0-.9.4-.9.9s.4.9.9.9.9-.4.9-.9-.4-.9-.9-.9zM134 44.3c-.5 0-.9.4-.9.9s.4.9.9.9.9-.4.9-.9c-.1-.5-.4-.9-.9-.9zM128.8 48.3c-.5 0-.9.4-.9.9s.4.9.9.9.9-.4.9-.9c-.1-.5-.5-.9-.9-.9zM135.5 35.9c-.5 0-.9.4-.9.9s.4.9.9.9.9-.4.9-.9c0-.4-.4-.9-.9-.9z"/><circle cx="181.8" cy="32" r=".9"/><path d="M180.1 46.5c-.5 0-.9.4-.9.9s.4.9.9.9.9-.4.9-.9-.4-.9-.9-.9zM181.9 38.1c-.5 0-.9.4-.9.9s.4.9.9.9.9-.4.9-.9-.4-.9-.9-.9zM175.9 41.7c-.5 0-.9.4-.9.9s.4.9.9.9.9-.4.9-.9-.4-.9-.9-.9zM168.7 41.7c-.5 0-.9.4-.9.9s.4.9.9.9.9-.4.9-.9-.4-.9-.9-.9zM168.7 48.7c-.5 0-.9.4-.9.9s.4.9.9.9.9-.4.9-.9-.4-.9-.9-.9zM168.7 34.7c-.5 0-.9.4-.9.9s.4.9.9.9.9-.4.9-.9-.4-.9-.9-.9zM168.7 27.6c-.5 0-.9.4-.9.9s.4.9.9.9.9-.4.9-.9-.4-.9-.9-.9zM175.8 29.4c.5 0 .9-.4.9-.9s-.4-.9-.9-.9-.9.4-.9.9.4.9.9.9zM198.4 27.6c-.5 0-.9.4-.9.9s.4.9.9.9.9-.4.9-.9-.4-.9-.9-.9zM207.2 34.7c-.5 0-.9.4-.9.9s.4.9.9.9.9-.4.9-.9-.4-.9-.9-.9zM212.5 27.6c-.5 0-.9.4-.9.9s.4.9.9.9.9-.4.9-.9c-.1-.5-.5-.9-.9-.9zM207.2 48.7c-.5 0-.9.4-.9.9s.4.9.9.9.9-.4.9-.9-.4-.9-.9-.9zM205.4 27.6c-.5 0-.9.4-.9.9s.4.9.9.9.9-.4.9-.9-.4-.9-.9-.9zM207.2 41.7c-.5 0-.9.4-.9.9s.4.9.9.9.9-.4.9-.9-.4-.9-.9-.9zM241 38.8c-.5 0-.9.4-.9.9s.4.9.9.9.9-.4.9-.9-.4-.9-.9-.9zM244.6 33.2c-.5 0-.9.4-.9.9s.4.9.9.9.9-.4.9-.9c0-.6-.4-.9-.9-.9zM248.1 27.5c-.5 0-.9.4-.9.9s.4.9.9.9.9-.4.9-.9-.4-.9-.9-.9zM239.6 45.3c-.5 0-.9.4-.9.9s.4.9.9.9.9-.4.9-.9c-.1-.6-.4-.9-.9-.9zM239 39.7c0-.5-.4-.9-.9-.9s-.9.4-.9.9.4.9.9.9c.5-.1.9-.4.9-.9zM231 27.5c-.5 0-.9.4-.9.9s.4.9.9.9.9-.4.9-.9-.4-.9-.9-.9zM234.6 33.2c-.5 0-.9.4-.9.9s.4.9.9.9.9-.4.9-.9c-.1-.6-.4-.9-.9-.9z"/></g></g><g class="group-3"><path d="M10.7 37.4c-.5 0-.9.4-.9.9s.4.9.9.9.9-.4.9-.9-.4-.9-.9-.9z"/><circle cx="12.4" cy="44.7" r=".9"/><path d="M13.3 31.2c-.5 0-.9.4-.9.9s.4.9.9.9.9-.4.9-.9-.4-.9-.9-.9zM17.6 48.1c-.5 0-.9.4-.9.9s.4.9.9.9.9-.4.9-.9-.5-.9-.9-.9zM19 27.9c-.5 0-.9.4-.9.9s.4.9.9.9.9-.4.9-.9-.4-.9-.9-.9zM24.2 48.3c-.5 0-.9.4-.9.9s.4.9.9.9.9-.4.9-.9-.4-.9-.9-.9zM25.6 30.3c.5 0 .9-.4.9-.9s-.4-.9-.9-.9-.9.4-.9.9c.1.6.5.9.9.9zM26.1 39.9c-.5 0-.9.4-.9.9s.4.9.9.9.9-.4.9-.9c-.1-.5-.4-.9-.9-.9zM29.2 43.6c-.5 0-.9.4-.9.9s.4.9.9.9.9-.4.9-.9-.4-.9-.9-.9z"/><circle cx="48.3" cy="32" r=".9"/><path d="M48.3 38.2c-.5 0-.9.4-.9.9s.4.9.9.9.9-.4.9-.9-.4-.9-.9-.9zM48.3 45.2c-.5 0-.9.4-.9.9s.4.9.9.9.9-.4.9-.9-.4-.9-.9-.9zM70.1 27.6c-.5 0-.9.4-.9.9s.4.9.9.9.9-.4.9-.9-.4-.9-.9-.9zM75.4 31.2c-.5 0-.9.4-.9.9s.4.9.9.9.9-.4.9-.9c-.1-.6-.4-.9-.9-.9zM75.4 38.2c-.5 0-.9.4-.9.9s.4.9.9.9.9-.4.9-.9c-.1-.5-.4-.9-.9-.9zM75.4 45.2c-.5 0-.9.4-.9.9s.4.9.9.9.9-.4.9-.9c-.1-.5-.4-.9-.9-.9zM77.1 27.6c-.5 0-.9.4-.9.9s.4.9.9.9.9-.4.9-.9-.4-.9-.9-.9zM84.2 27.6c-.5 0-.9.4-.9.9s.4.9.9.9.9-.4.9-.9c-.1-.5-.4-.9-.9-.9z"/><circle cx="102.4" cy="32" r=".9"/><path d="M102.4 38.2c-.5 0-.9.4-.9.9s.4.9.9.9.9-.4.9-.9-.4-.9-.9-.9zM102.4 45.2c-.5 0-.9.4-.9.9s.4.9.9.9.9-.4.9-.9-.4-.9-.9-.9zM106 27.6c-.5 0-.9.4-.9.9s.4.9.9.9.9-.4.9-.9c-.1-.5-.4-.9-.9-.9z"/><circle cx="106" cy="42.6" r=".9"/><path d="M113 30.3c.5 0 .9-.4.9-.9s-.4-.9-.9-.9-.9.4-.9.9.4.9.9.9zM113.1 40.7c-.5 0-.9.4-.9.9s.4.9.9.9.9-.4.9-.9-.4-.9-.9-.9zM116.5 34.6c-.5 0-.9.4-.9.9s.4.9.9.9.9-.4.9-.9-.4-.9-.9-.9zM130.4 45.2c-.5 0-.9.4-.9.9s.4.9.9.9.9-.4.9-.9-.4-.9-.9-.9zM133.8 39c-.5 0-.9.4-.9.9s.4.9.9.9.9-.4.9-.9-.4-.9-.9-.9zM138.1 33.8c0-.5-.4-.9-.9-.9s-.9.4-.9.9.4.9.9.9.9-.5.9-.9zM137.5 44.3c-.5 0-.9.4-.9.9s.4.9.9.9.9-.4.9-.9-.4-.9-.9-.9zM141.4 32.9c-.5 0-.9.4-.9.9s.4.9.9.9.9-.4.9-.9-.5-.9-.9-.9zM144.5 44.3c-.5 0-.9.4-.9.9s.4.9.9.9.9-.4.9-.9-.4-.9-.9-.9zM144.8 39c-.5 0-.9.4-.9.9s.4.9.9.9.9-.4.9-.9-.5-.9-.9-.9zM148.1 45.2c-.5 0-.9.4-.9.9s.4.9.9.9.9-.4.9-.9-.4-.9-.9-.9zM168.7 31.2c-.5 0-.9.4-.9.9s.4.9.9.9.9-.4.9-.9c0-.6-.4-.9-.9-.9zM168.7 38.2c-.5 0-.9.4-.9.9s.4.9.9.9.9-.4.9-.9-.4-.9-.9-.9zM168.7 45.2c-.5 0-.9.4-.9.9s.4.9.9.9.9-.4.9-.9-.4-.9-.9-.9zM172.3 27.6c-.5 0-.9.4-.9.9s.4.9.9.9.9-.4.9-.9c-.1-.5-.5-.9-.9-.9zM172.3 41.7c-.5 0-.9.4-.9.9s.4.9.9.9.9-.4.9-.9-.5-.9-.9-.9zM178.6 44.2c-.5 0-.9.4-.9.9s.4.9.9.9.9-.4.9-.9-.5-.9-.9-.9zM179.3 30.3c.5 0 .9-.4.9-.9s-.4-.9-.9-.9-.9.4-.9.9.4.9.9.9zM179.4 40.7c-.5 0-.9.4-.9.9s.4.9.9.9.9-.4.9-.9-.4-.9-.9-.9zM181.5 48.7c-.5 0-.9.4-.9.9s.4.9.9.9.9-.4.9-.9-.4-.9-.9-.9zM182.8 34.6c-.5 0-.9.4-.9.9s.4.9.9.9.9-.4.9-.9-.4-.9-.9-.9zM201.9 27.6c-.5 0-.9.4-.9.9s.4.9.9.9.9-.4.9-.9-.4-.9-.9-.9zM207.2 31.2c-.5 0-.9.4-.9.9s.4.9.9.9.9-.4.9-.9c0-.6-.4-.9-.9-.9zM207.2 38.2c-.5 0-.9.4-.9.9s.4.9.9.9.9-.4.9-.9-.4-.9-.9-.9zM207.2 45.2c-.5 0-.9.4-.9.9s.4.9.9.9.9-.4.9-.9-.4-.9-.9-.9zM208.9 27.6c-.5 0-.9.4-.9.9s.4.9.9.9.9-.4.9-.9-.4-.9-.9-.9zM216 27.6c-.5 0-.9.4-.9.9s.4.9.9.9.9-.4.9-.9c-.1-.5-.4-.9-.9-.9z"/><circle cx="232.8" cy="31.2" r=".9"/><path d="M236.4 36c-.5 0-.9.4-.9.9s.4.9.9.9.9-.4.9-.9c-.1-.5-.5-.9-.9-.9zM239.6 41.8c-.5 0-.9.4-.9.9s.4.9.9.9.9-.4.9-.9c-.1-.5-.4-.9-.9-.9zM239.6 48.7c-.5 0-.9.4-.9.9s.4.9.9.9.9-.4.9-.9-.4-.9-.9-.9zM242.8 36c-.5 0-.9.4-.9.9s.4.9.9.9.9-.4.9-.9-.4-.9-.9-.9z"/><circle cx="246.4" cy="31.2" r=".9"/></g></svg>
