<svg xmlns="http://www.w3.org/2000/svg" viewBox="0 0 254.9 78.4"><g class="group-1 primary"><path d="M11 42.5c-.5 0-.9-.4-.9-.9s.4-.9.9-.9.9.4.9.9-.4.9-.9.9zm.5-6.6c-.5 0-.9-.4-.9-.9s.4-.9.9-.9.9.4.9.9-.4.9-.9.9zm3.1 12.2c-.5 0-.9-.4-.9-.9s.4-.9.9-.9.9.4.9.9c0 .6-.4.9-.9.9zm1.3-17.3c-.5 0-.9-.4-.9-.9s.4-.9.9-.9.9.4.9.9-.4.9-.9.9zm5 19.7c-.5 0-.9-.4-.9-.9s.4-.9.9-.9.9.4.9.9-.4.9-.9.9zm1.5-21c-.5 0-.9-.4-.9-.9s.4-.9.9-.9.9.4.9.9-.4.9-.9.9zm.6 12.2c-.5 0-.9-.4-.9-.9s.4-.9.9-.9.9.4.9.9-.4.9-.9.9zm4.2 6.9c-.5 0-.9-.4-.9-.9s.4-.9.9-.9.9.4.9.9-.4.9-.9.9zm1.3-16.4c-.5 0-.9-.4-.9-.9s.4-.9.9-.9.9.4.9.9c-.1.6-.4.9-.9.9zm.7 9.5c-.5 0-.9-.4-.9-.9s.4-.9.9-.9.9.4.9.9c-.1.5-.4.9-.9.9zm19.1-12.3c-.5 0-.9-.4-.9-.9s.4-.9.9-.9.9.4.9.9-.4.9-.9.9zm0 7c-.5 0-.9-.4-.9-.9s.4-.9.9-.9.9.4.9.9-.4.9-.9.9zm0 7.1c-.5 0-.9-.4-.9-.9s.4-.9.9-.9.9.4.9.9-.4.9-.9.9zm0 7c-.5 0-.9-.4-.9-.9s.4-.9.9-.9.9.4.9.9-.4.9-.9.9zm18.3-21.1c-.5 0-.9-.4-.9-.9s.4-.9.9-.9.9.4.9.9-.4.9-.9.9zm7 0c-.5 0-.9-.4-.9-.9s.4-.9.9-.9.9.4.9.9-.4.9-.9.9zm1.8 7c-.5 0-.9-.4-.9-.9s.4-.9.9-.9.9.4.9.9-.4.9-.9.9zm0 7.1c-.5 0-.9-.4-.9-.9s.4-.9.9-.9.9.4.9.9-.4.9-.9.9zm0 7c-.5 0-.9-.4-.9-.9s.4-.9.9-.9.9.4.9.9-.4.9-.9.9zm5.2-21.1c-.5 0-.9-.4-.9-.9s.4-.9.9-.9.9.4.9.9-.4.9-.9.9zm21.8 0c-.5 0-.9-.4-.9-.9s.4-.9.9-.9.9.4.9.9-.4.9-.9.9zm0 7c-.5 0-.9-.4-.9-.9s.4-.9.9-.9.9.4.9.9-.4.9-.9.9zm0 7.1c-.5 0-.9-.4-.9-.9s.4-.9.9-.9.9.4.9.9-.4.9-.9.9zm0 7c-.5 0-.9-.4-.9-.9s.4-.9.9-.9.9.4.9.9-.4.9-.9.9zm7.1-21.1c-.5 0-.9-.4-.9-.9s.4-.9.9-.9.9.4.9.9-.4.9-.9.9zm.2 14.1c-.5 0-.9-.4-.9-.9s.4-.9.9-.9.9.4.9.9-.4.9-.9.9zm5.8-10.7c-.5 0-.9-.4-.9-.9s.4-.9.9-.9.9.4.9.9c0 .6-.4.9-.9.9zm.1 7c-.5 0-.9-.4-.9-.9s.4-.9.9-.9.9.4.9.9c0 .6-.4.9-.9.9zm13.2 8.5c.5 0 .9.4.9.9s-.4.9-.9.9-.9-.4-.9-.9.4-.9.9-.9zm3.3-6.2c.5 0 .9.4.9.9s-.4.9-.9.9-.9-.4-.9-.9.4-.9.9-.9zm1.9 2.2c.5 0 .9.4.9.9s-.4.9-.9.9-.9-.4-.9-.9.4-.9.9-.9zm1.5-8.4c.5 0 .9.4.9.9s-.4.9-.9.9-.9-.4-.9-.9c0-.4.4-.9.9-.9zm3.8-4.4c-.5 0-.9-.4-.9-.9s.4-.9.9-.9.9.4.9.9c-.1.6-.4.9-.9.9zm1.7 12.8c.5 0 .9.4.9.9s-.4.9-.9.9-.9-.4-.9-.9.4-.9.9-.9zm2.1-6.6c-.5 0-.9-.4-.9-.9s.4-.9.9-.9.9.4.9.9c-.1.5-.5.9-.9.9zm3.3 6.2c-.5 0-.9-.4-.9-.9s.4-.9.9-.9.9.4.9.9-.4.9-.9.9zm3.4 6.1c-.5 0-.9-.4-.9-.9s.4-.9.9-.9.9.4.9.9c0 .6-.4.9-.9.9zm18.9-20.6c-.5 0-.9-.4-.9-.9s.4-.9.9-.9.9.4.9.9-.4.9-.9.9zm0 7c-.5 0-.9-.4-.9-.9s.4-.9.9-.9.9.4.9.9-.4.9-.9.9zm0 7.1c-.5 0-.9-.4-.9-.9s.4-.9.9-.9.9.4.9.9-.4.9-.9.9zm0 7c-.5 0-.9-.4-.9-.9s.4-.9.9-.9.9.4.9.9-.4.9-.9.9zm7.1-21.1c-.5 0-.9-.4-.9-.9s.4-.9.9-.9.9.4.9.9-.4.9-.9.9zm.1 14.1c-.5 0-.9-.4-.9-.9s.4-.9.9-.9.9.4.9.9-.4.9-.9.9zm4.2 4.7c-.5 0-.9-.4-.9-.9s.4-.9.9-.9.9.4.9.9-.4.9-.9.9zm1.7-15.4c-.5 0-.9-.4-.9-.9s.4-.9.9-.9.9.4.9.9c0 .6-.4.9-.9.9zm.1 7c-.5 0-.9-.4-.9-.9s.4-.9.9-.9.9.4.9.9c0 .6-.4.9-.9.9zm16.5-10.4c-.5 0-.9-.4-.9-.9s.4-.9.9-.9.9.4.9.9-.4.9-.9.9zm7 0c-.5 0-.9-.4-.9-.9s.4-.9.9-.9.9.4.9.9-.4.9-.9.9zm1.8 7c-.5 0-.9-.4-.9-.9s.4-.9.9-.9.9.4.9.9-.4.9-.9.9zm0 7.1c-.5 0-.9-.4-.9-.9s.4-.9.9-.9.9.4.9.9-.4.9-.9.9zm0 7c-.5 0-.9-.4-.9-.9s.4-.9.9-.9.9.4.9.9-.4.9-.9.9zm5.3-21.1c-.5 0-.9-.4-.9-.9s.4-.9.9-.9.9.4.9.9c-.1.5-.5.9-.9.9zm18.5-.1c-.5 0-.9-.4-.9-.9s.4-.9.9-.9.9.4.9.9-.4.9-.9.9zm3.6 5.6c-.5 0-.9-.4-.9-.9s.4-.9.9-.9.9.4.9.9c-.1.5-.4.9-.9.9zm3.5 5.6c-.5 0-.9-.4-.9-.9s.4-.9.9-.9.9.4.9.9c0 .6-.4.9-.9.9zm1.5 4.8c.5 0 .9.4.9.9s-.4.9-.9.9-.9-.4-.9-.9c0-.6.4-.9.9-.9zm1.4-6.5c.5 0 .9.4.9.9s-.4.9-.9.9-.9-.4-.9-.9c.1-.5.4-.9.9-.9zm3.6-5.6c.5 0 .9.4.9.9s-.4.9-.9.9-.9-.4-.9-.9c0-.6.4-.9.9-.9zm3.5-5.7c.5 0 .9.4.9.9s-.4.9-.9.9-.9-.4-.9-.9.5-.9.9-.9z"/><g class="group-2 secondary"><path d="M23 39.9c-.5 0-.9.4-.9.9s.4.9.9.9.9-.4.9-.9-.4-.9-.9-.9zm.3-11.3c0-.5-.4-.9-.9-.9s-.9.4-.9.9.4.9.9.9.9-.4.9-.9z"/><circle cx="28.5" cy="31.4" r=".9"/><path d="M29.2 39.9c-.5 0-.9.4-.9.9s.4.9.9.9.9-.4.9-.9c-.1-.5-.4-.9-.9-.9zm-8.3 8.8c-.5 0-.9.4-.9.9s.4.9.9.9.9-.4.9-.9-.4-.9-.9-.9zm6.3-1.8c-.5 0-.9.4-.9.9s.4.9.9.9.9-.4.9-.9-.4-.9-.9-.9zM11.5 34.1c-.5 0-.9.4-.9.9s.4.9.9.9.9-.4.9-.9c0-.4-.4-.9-.9-.9zm-.5 6.7c-.5 0-.9.4-.9.9s.4.9.9.9.9-.4.9-.9-.4-.9-.9-.9zm3.6 5.6c-.5 0-.9.4-.9.9s.4.9.9.9.9-.4.9-.9-.4-.9-.9-.9z"/><circle cx="15.9" cy="30" r=".9"/><circle cx="48.3" cy="35.5" r=".9"/><path d="M48.3 27.6c-.5 0-.9.4-.9.9s.4.9.9.9.9-.4.9-.9-.4-.9-.9-.9zm0 21.1c-.5 0-.9.4-.9.9s.4.9.9.9.9-.4.9-.9-.4-.9-.9-.9z"/><circle cx="48.3" cy="42.6" r=".9"/><path d="M80.6 27.6c-.5 0-.9.4-.9.9s.4.9.9.9.9-.4.9-.9-.4-.9-.9-.9zm-5.2 7.1c-.5 0-.9.4-.9.9s.4.9.9.9.9-.4.9-.9-.4-.9-.9-.9zm-8.8-7.1c-.5 0-.9.4-.9.9s.4.9.9.9.9-.4.9-.9-.4-.9-.9-.9zm8.8 21.1c-.5 0-.9.4-.9.9s.4.9.9.9.9-.4.9-.9-.4-.9-.9-.9zm-1.8-21.1c-.5 0-.9.4-.9.9s.4.9.9.9.9-.4.9-.9-.4-.9-.9-.9zm1.8 14.1c-.5 0-.9.4-.9.9s.4.9.9.9.9-.4.9-.9-.4-.9-.9-.9zm34.1-12.3c.5 0 .9-.4.9-.9s-.4-.9-.9-.9-.9.4-.9.9.4.9.9.9zm-7.1-1.8c-.5 0-.9.4-.9.9s.4.9.9.9.9-.4.9-.9-.4-.9-.9-.9z"/><circle cx="109.7" cy="42.6" r=".9"/><circle cx="102.4" cy="42.6" r=".9"/><circle cx="102.4" cy="35.5" r=".9"/><path d="M102.4 48.7c-.5 0-.9.4-.9.9s.4.9.9.9.9-.4.9-.9-.4-.9-.9-.9zm13.2-10.6c-.5 0-.9.4-.9.9s.4.9.9.9.9-.4.9-.9-.4-.9-.9-.9zm-.1-5.3c.5 0 .9-.4.9-.9s-.4-.9-.9-.9-.9.4-.9.9c.1.6.4.9.9.9zM141 44.3c-.5 0-.9.4-.9.9s.4.9.9.9.9-.4.9-.9-.4-.9-.9-.9zm2.1-8.4c-.5 0-.9.4-.9.9s.4.9.9.9.9-.4.9-.9c-.1-.4-.5-.9-.9-.9zm-3.8-6.1c-.5 0-.9.4-.9.9s.4.9.9.9.9-.4.9-.9c-.1-.5-.4-.9-.9-.9zm7.1 12.3c-.5 0-.9.4-.9.9s.4.9.9.9.9-.4.9-.9-.4-.9-.9-.9zm3.4 6.2c-.5 0-.9.4-.9.9s.4.9.9.9.9-.4.9-.9-.4-.9-.9-.9zm-17.7-6.2c-.5 0-.9.4-.9.9s.4.9.9.9.9-.4.9-.9-.4-.9-.9-.9zm1.9 2.2c-.5 0-.9.4-.9.9s.4.9.9.9.9-.4.9-.9c-.1-.5-.4-.9-.9-.9zm-5.2 4c-.5 0-.9.4-.9.9s.4.9.9.9.9-.4.9-.9c-.1-.5-.5-.9-.9-.9zm6.7-12.4c-.5 0-.9.4-.9.9s.4.9.9.9.9-.4.9-.9c0-.4-.4-.9-.9-.9z"/><circle cx="181.8" cy="32" r=".9"/><path d="M180.1 46.5c-.5 0-.9.4-.9.9s.4.9.9.9.9-.4.9-.9-.4-.9-.9-.9zm1.8-8.4c-.5 0-.9.4-.9.9s.4.9.9.9.9-.4.9-.9-.4-.9-.9-.9zm-6 3.6c-.5 0-.9.4-.9.9s.4.9.9.9.9-.4.9-.9-.4-.9-.9-.9zm-7.2 0c-.5 0-.9.4-.9.9s.4.9.9.9.9-.4.9-.9-.4-.9-.9-.9zm0 7c-.5 0-.9.4-.9.9s.4.9.9.9.9-.4.9-.9-.4-.9-.9-.9zm0-14c-.5 0-.9.4-.9.9s.4.9.9.9.9-.4.9-.9-.4-.9-.9-.9zm0-7.1c-.5 0-.9.4-.9.9s.4.9.9.9.9-.4.9-.9-.4-.9-.9-.9zm7.1 1.8c.5 0 .9-.4.9-.9s-.4-.9-.9-.9-.9.4-.9.9.4.9.9.9zm22.6-1.8c-.5 0-.9.4-.9.9s.4.9.9.9.9-.4.9-.9-.4-.9-.9-.9zm8.8 7.1c-.5 0-.9.4-.9.9s.4.9.9.9.9-.4.9-.9-.4-.9-.9-.9zm5.3-7.1c-.5 0-.9.4-.9.9s.4.9.9.9.9-.4.9-.9c-.1-.5-.5-.9-.9-.9zm-5.3 21.1c-.5 0-.9.4-.9.9s.4.9.9.9.9-.4.9-.9-.4-.9-.9-.9zm-1.8-21.1c-.5 0-.9.4-.9.9s.4.9.9.9.9-.4.9-.9-.4-.9-.9-.9zm1.8 14.1c-.5 0-.9.4-.9.9s.4.9.9.9.9-.4.9-.9-.4-.9-.9-.9zm33.8-2.9c-.5 0-.9.4-.9.9s.4.9.9.9.9-.4.9-.9-.4-.9-.9-.9zm3.6-5.6c-.5 0-.9.4-.9.9s.4.9.9.9.9-.4.9-.9c0-.6-.4-.9-.9-.9zm3.5-5.7c-.5 0-.9.4-.9.9s.4.9.9.9.9-.4.9-.9-.4-.9-.9-.9zm-8.5 17.8c-.5 0-.9.4-.9.9s.4.9.9.9.9-.4.9-.9c-.1-.6-.4-.9-.9-.9zm-.6-5.6c0-.5-.4-.9-.9-.9s-.9.4-.9.9.4.9.9.9c.5-.1.9-.4.9-.9zm-8-12.2c-.5 0-.9.4-.9.9s.4.9.9.9.9-.4.9-.9-.4-.9-.9-.9zm3.6 5.7c-.5 0-.9.4-.9.9s.4.9.9.9.9-.4.9-.9c-.1-.6-.4-.9-.9-.9z"/></g></g><g class="group-3"><path d="M10.7 37.4c-.5 0-.9.4-.9.9s.4.9.9.9.9-.4.9-.9-.4-.9-.9-.9z"/><circle cx="12.4" cy="44.7" r=".9"/><path d="M13.3 31.2c-.5 0-.9.4-.9.9s.4.9.9.9.9-.4.9-.9-.4-.9-.9-.9zm4.3 16.9c-.5 0-.9.4-.9.9s.4.9.9.9.9-.4.9-.9-.5-.9-.9-.9zM19 27.9c-.5 0-.9.4-.9.9s.4.9.9.9.9-.4.9-.9-.4-.9-.9-.9zm5.2 20.4c-.5 0-.9.4-.9.9s.4.9.9.9.9-.4.9-.9-.4-.9-.9-.9zm1.4-18c.5 0 .9-.4.9-.9s-.4-.9-.9-.9-.9.4-.9.9c.1.6.5.9.9.9zm.5 9.6c-.5 0-.9.4-.9.9s.4.9.9.9.9-.4.9-.9c-.1-.5-.4-.9-.9-.9zm3.1 3.7c-.5 0-.9.4-.9.9s.4.9.9.9.9-.4.9-.9-.4-.9-.9-.9z"/><circle cx="48.3" cy="32" r=".9"/><path d="M48.3 38.2c-.5 0-.9.4-.9.9s.4.9.9.9.9-.4.9-.9-.4-.9-.9-.9zm0 7c-.5 0-.9.4-.9.9s.4.9.9.9.9-.4.9-.9-.4-.9-.9-.9zm21.8-17.6c-.5 0-.9.4-.9.9s.4.9.9.9.9-.4.9-.9-.4-.9-.9-.9zm5.3 3.6c-.5 0-.9.4-.9.9s.4.9.9.9.9-.4.9-.9c-.1-.6-.4-.9-.9-.9zm0 7c-.5 0-.9.4-.9.9s.4.9.9.9.9-.4.9-.9c-.1-.5-.4-.9-.9-.9zm0 7c-.5 0-.9.4-.9.9s.4.9.9.9.9-.4.9-.9c-.1-.5-.4-.9-.9-.9zm1.7-17.6c-.5 0-.9.4-.9.9s.4.9.9.9.9-.4.9-.9-.4-.9-.9-.9zm7.1 0c-.5 0-.9.4-.9.9s.4.9.9.9.9-.4.9-.9c-.1-.5-.4-.9-.9-.9z"/><circle cx="102.4" cy="32" r=".9"/><path d="M102.4 38.2c-.5 0-.9.4-.9.9s.4.9.9.9.9-.4.9-.9-.4-.9-.9-.9zm0 7c-.5 0-.9.4-.9.9s.4.9.9.9.9-.4.9-.9-.4-.9-.9-.9zm3.6-17.6c-.5 0-.9.4-.9.9s.4.9.9.9.9-.4.9-.9c-.1-.5-.4-.9-.9-.9z"/><circle cx="106" cy="42.6" r=".9"/><path d="M113 30.3c.5 0 .9-.4.9-.9s-.4-.9-.9-.9-.9.4-.9.9.4.9.9.9zm.1 10.4c-.5 0-.9.4-.9.9s.4.9.9.9.9-.4.9-.9-.4-.9-.9-.9zm3.4-6.1c-.5 0-.9.4-.9.9s.4.9.9.9.9-.4.9-.9-.4-.9-.9-.9zm13.9 10.6c-.5 0-.9.4-.9.9s.4.9.9.9.9-.4.9-.9-.4-.9-.9-.9zm3.4-6.2c-.5 0-.9.4-.9.9s.4.9.9.9.9-.4.9-.9-.4-.9-.9-.9zm4.3-5.2c0-.5-.4-.9-.9-.9s-.9.4-.9.9.4.9.9.9.9-.5.9-.9zm-.6 10.5c-.5 0-.9.4-.9.9s.4.9.9.9.9-.4.9-.9-.4-.9-.9-.9zm3.9-11.4c-.5 0-.9.4-.9.9s.4.9.9.9.9-.4.9-.9-.5-.9-.9-.9zm3.1 11.4c-.5 0-.9.4-.9.9s.4.9.9.9.9-.4.9-.9-.4-.9-.9-.9zm.3-5.3c-.5 0-.9.4-.9.9s.4.9.9.9.9-.4.9-.9-.5-.9-.9-.9zm3.3 6.2c-.5 0-.9.4-.9.9s.4.9.9.9.9-.4.9-.9-.4-.9-.9-.9zm20.6-14c-.5 0-.9.4-.9.9s.4.9.9.9.9-.4.9-.9c0-.6-.4-.9-.9-.9zm0 7c-.5 0-.9.4-.9.9s.4.9.9.9.9-.4.9-.9-.4-.9-.9-.9zm0 7c-.5 0-.9.4-.9.9s.4.9.9.9.9-.4.9-.9-.4-.9-.9-.9zm3.6-17.6c-.5 0-.9.4-.9.9s.4.9.9.9.9-.4.9-.9c-.1-.5-.5-.9-.9-.9zm0 14.1c-.5 0-.9.4-.9.9s.4.9.9.9.9-.4.9-.9-.5-.9-.9-.9zm6.3 2.5c-.5 0-.9.4-.9.9s.4.9.9.9.9-.4.9-.9-.5-.9-.9-.9zm.7-13.9c.5 0 .9-.4.9-.9s-.4-.9-.9-.9-.9.4-.9.9.4.9.9.9zm.1 10.4c-.5 0-.9.4-.9.9s.4.9.9.9.9-.4.9-.9-.4-.9-.9-.9zm2.1 8c-.5 0-.9.4-.9.9s.4.9.9.9.9-.4.9-.9-.4-.9-.9-.9zm1.3-14.1c-.5 0-.9.4-.9.9s.4.9.9.9.9-.4.9-.9-.4-.9-.9-.9zm19.1-7c-.5 0-.9.4-.9.9s.4.9.9.9.9-.4.9-.9-.4-.9-.9-.9zm5.3 3.6c-.5 0-.9.4-.9.9s.4.9.9.9.9-.4.9-.9c0-.6-.4-.9-.9-.9zm0 7c-.5 0-.9.4-.9.9s.4.9.9.9.9-.4.9-.9-.4-.9-.9-.9zm0 7c-.5 0-.9.4-.9.9s.4.9.9.9.9-.4.9-.9-.4-.9-.9-.9zm1.7-17.6c-.5 0-.9.4-.9.9s.4.9.9.9.9-.4.9-.9-.4-.9-.9-.9zm7.1 0c-.5 0-.9.4-.9.9s.4.9.9.9.9-.4.9-.9c-.1-.5-.4-.9-.9-.9z"/><circle cx="232.8" cy="31.2" r=".9"/><path d="M236.4 36c-.5 0-.9.4-.9.9s.4.9.9.9.9-.4.9-.9c-.1-.5-.5-.9-.9-.9zm3.2 5.8c-.5 0-.9.4-.9.9s.4.9.9.9.9-.4.9-.9c-.1-.5-.4-.9-.9-.9zm0 6.9c-.5 0-.9.4-.9.9s.4.9.9.9.9-.4.9-.9-.4-.9-.9-.9zm3.2-12.7c-.5 0-.9.4-.9.9s.4.9.9.9.9-.4.9-.9-.4-.9-.9-.9z"/><circle cx="246.4" cy="31.2" r=".9"/></g></svg>