<svg xmlns="http://www.w3.org/2000/svg" viewBox="0 0 254.9 78.4" xml:space="preserve"><path class="primary" d="M24.7 34.7v6.6h-5.2v16.1h-7.9V19.1h7.9v15.6h5.2zm19.8 22.7h-7.9l6.7-38.3h2l2.1 17.6-1.4 10h2.6l.7 5.5h-4l-.8 5.2zm25 0h-7.9V19.1h7.9v38.3zm20.8 0h-7.9V19.1h7.9v38.3zm48.9 0h-7.9V19.1h7.9v38.3zm21.5 0h-7.9l6.7-38.3h2l2.1 17.6-1.3 10h2.6l.7 5.5h-4l-.9 5.2zm25 0h-7.9V19.1h7.9v38.3zm24.8 0h-7.9V19.1h7.9v38.3zm22.5 0h-7.9V19.1h7.9v38.3zM103.2 35.3h23.1v5.5h-23.1v-5.5z"/><path class="secondary" d="M24.7 19.1h7.9v38.3h-7.9V41.3h-.1v-6.6h.1V19.1zm22.6 17.6-2.1-17.6h6l6.4 38.3h-7.7l-.7-5.3-.7-5.5-1.2-9.9zm22.2 13.1h8.4v7.7h-8.4v-7.7zm20.8-23v-7.7h8.4v7.7h-8.4zm0 15.8V36H97v6.6h-6.7zm48.9-15.8v-7.7h1.7c5.3 0 9.6 4.2 9.6 9.4v2.4c-.2 5.7-3.9 7.1-3.9 7.1s3.8 1.4 3.9 7.1v3c0 5.1-4.3 9.4-9.6 9.4h-1.7V50h1.4c1.5 0 2.6-1.1 2.6-2.6v-3.6c0-1.4-1.2-2.6-2.6-2.6h-1.4v-6.5h1.4c1.5 0 2.6-1.1 2.6-2.6V29c0-1.4-1.2-2.2-2.6-2.2h-1.4zm24.4 9.9-2.1-17.6h6l6.4 38.3h-7.7l-.7-5.3-.7-5.5-1.2-9.9zm22.1 6.5v-9.9l4.3-14.1h8.2l-6.4 19 6.5 19.3h-8.2l-4.4-14.3zm24.8-16.4v-7.7h8.4v7.7h-8.4zm0 14.5v-6.6h6.7v6.6h-6.7zm0 16.1v-7.7h8.4v7.7h-8.4zM233 26.6v-7.5h1.7c5.3 0 9.6 4.2 9.6 9.4v19.6c0 5.1-4.3 9.4-9.6 9.4H233V50h2c1.1 0 2-.9 2-1.9V28.7c0-1.1-.9-2-2-2-1.1-.1-2-.1-2-.1z"/></svg>