<svg xmlns="http://www.w3.org/2000/svg" viewBox="0 0 254.9 78.4"><path class="en primary" d="M108.4 36.9H88.7v-3.5H95l-8.4-4.9-6.2 2.6v2.3h6.2v3.5H70.2v-3.5h6.1v-11H70V19h16.7v3.4h-6.3v5.9l14.1-5.9h-5.7V19h19.4v3.4h-6.3l-11 4.5 11.5 6.5h6.1l-.1 3.5zm39.4 0h-16.4v-3.5h5.7l-2.3-3h-12.5l-2.3 3h6v3.5h-15.5v-3.5h5L126.9 19h3.8L142 33.4h5.6v3.5h.2zm-15.2-9.4l-4-5.2-4 5.2h8zm40.9-.9h-3.4v-4.1h-9.4v11h6.5V37h-17v-3.5h6.4v-11h-9.3v4.1h-3.5v-7.5h29.6c.1 0 .1 7.5.1 7.5zm19.3 11.2c-8 0-12.3-2.7-13-3.4l-.2 2.7h-3.4v-7.8h2.9c1.4 2.6 5 5.5 13.4 5.5 4.4 0 6.7-1.2 6.7-2.6 0-4.7-23 1-23-7.9 0-3.4 3.9-5.6 11.4-5.6 7 0 10.9 1.9 12.2 3l.1-2.4h3.1v7.3h-2.8c-.4-1.9-4.9-5-12.4-5-5 0-7.4 1-7.4 2.2 0 4.3 23.6-1 23.6 8.6 0 2.9-4 5.4-11.2 5.4zm51.3-15.3h-6.4v9.4c0 4.5-2.7 5.8-12.7 5.8-10.5 0-13-1.6-13-6v-9.3h-6.4V19h17.1v3.4h-6.5v7.5c0 3.5 1 4 8.8 4s8.6-.6 8.6-3.8v-7.6h-6.4V19h16.7l.2 3.5zM97 51.6c0 4.4-3.5 8.3-13.3 8.3-8.9 0-14.2-3.7-14.2-9.8 0-4.4 4.3-9.4 13-9.4 6.2 0 9.4 1.8 10.5 2.6v-2.2h3.5v7h-3.2c-1.1-2.6-5.8-4.3-10.3-4.3-4.7 0-9.2 2.1-9.2 6.3s3.1 6.6 10 6.6c7.9 0 9.8-2.7 9.8-5 0-.1 3.4-.1 3.4-.1zm40-7h-6.4V54c0 4.5-2.7 5.8-12.7 5.8-10.5 0-13-1.6-13-6v-9.2h-6.3v-3.4h17.1v3.4h-6.5V52c0 3.5 1 4 8.8 4s8.6-.6 8.6-3.8v-7.7h-6.3v-3.4h16.6c0 .1.1 3.5.1 3.5zm39.9 9.9c0 3.3-2.6 5.4-7.6 5.4-9 0-7.1-8.1-12.5-8.1h-7.6v3.7h6.3V59h-16.2v-3.5h5.9V44.6h-5.9v-3.4h25c3.9 0 6.7 1.8 6.7 5.2 0 4.3-3 5.4-6.8 5.4H163c2.4 1.4 2.6 4.7 7 4.7 2.8 0 3.5-1.1 3.5-2.2l3.4.2zm-13.5-9.9h-14.3v4h14.3c2.2 0 3.4-.6 3.4-2 0-1.3-1-2-3.4-2zm53.4 9.9c0 3.3-2.6 5.4-7.6 5.4-9 0-7.1-8.1-12.5-8.1H189v3.7h6.3V59h-16.2v-3.5h5.9V44.6h-5.9v-3.4h25c3.9 0 6.7 1.8 6.7 5.2 0 4.3-3 5.4-6.8 5.4h-1.2c2.4 1.4 2.6 4.7 7 4.7 2.8 0 3.5-1.1 3.5-2.2l3.5.2zm-13.6-9.9h-14.3v4h14.3c2.2 0 3.4-.6 3.4-2 .1-1.3-.8-2-3.4-2zm48.9 0h-6.5l-10.6 7v3.9h6.2V59h-16.4v-3.5h5.8v-3.8l-11.3-7.1h-6.4v-3.4h19v3.4h-5.7l7 4.3 6.6-4.3h-5.4v-3.4H252c.1 0 .1 3.4.1 3.4z"/><path class="jp secondary" d="M54.7 26.7c-.7-2.7-1.5-4.5-2.4-6.3l-3.5 1c1.1 2.3 1.7 4 2.3 6.4l3.6-1.1zM17.8 44.5h-4.5c.1-.5.1-.5.1-1 .2-2 .2-2 .3-2.5l-3.9-.1c.1.4.1.6.1 1 0 .7 0 1.9-.1 2.7l-3.1-.1c-1.5 0-1.8 0-2.8-.2v3.6c.9-.1 1.4-.1 2.8-.1h2.6c-.3 1.7-.5 2.5-1 3.6-1 2.1-2.6 3.6-5.4 5 1.1 1 1.7 1.6 2.7 3.1 4.3-2.8 6.2-5.6 7.1-9.7.2-.7.2-.7.4-2.1h4c0 1.8-.2 4.4-.4 5.8-.3 1.8-.5 2.2-1.5 2.2-.6 0-1.7-.2-2.7-.4.4 1.3.6 2 .7 3.6 1.6.2 1.9.2 2.7.2 2.3 0 3.3-.7 3.9-2.6.4-1.4.7-4.9.9-9.3 0-1 0-1.1.3-1.6l-1.7-1.4c-.6.3-.8.3-1.5.3zM38 48c-1.9 3.7-5 6.1-9.2 7l.1-11c.1-1.2.1-1.7.2-2.5H25c.1.6.1 1.3.1 2.3v.3L25 55.7c0 1-.1 1.3-.3 1.7l1.8 2.2c.3-.2.4-.2 1.2-.3 6.2-1.1 10-3.5 13-8.2-1.1-1-1.7-1.7-2.7-3.1zm8.9.4c-2.2 0-3.3 0-4.3-.2v4c1.2-.1 1.9-.1 4.3-.1h9.9c2.3 0 3.3 0 4.3.1v-4c-1.4.2-2.2.2-4.3.2h-9.9zm-8.7-25.2h-4.5c.1-.5.1-.5.1-1 .2-2 .2-2 .3-2.5l-3.9-.1c.1.4.1.6.1 1 0 .7 0 1.9-.1 2.7l-3-.1c-1.5 0-1.8 0-2.9-.2v3.6c1-.1 1.4-.1 2.8-.1h2.6c-.3 1.7-.5 2.5-1 3.6-1 2.1-2.6 3.6-5.4 5 1.1 1 1.7 1.7 2.7 3.1 4.3-2.8 6.2-5.6 7.1-9.7.2-.7.2-.7.3-2.1h4c0 1.8-.2 4.4-.3 5.8-.3 1.8-.5 2.2-1.5 2.2-.6 0-1.7-.2-2.7-.4.4 1.3.6 2 .7 3.7 1.6.2 1.9.2 2.7.2 2.3 0 3.3-.7 3.9-2.6.4-1.4.7-4.9.9-9.3 0-1 0-1.1.2-1.6L39.6 23c-.4.2-.7.2-1.4.2zm11.1 4.7c-.9-3-1.5-4.4-2.5-6.4l-3.4 1c1 1.7 1.7 4 2.3 6.6l3.6-1.2zm8.5-6.8c0 .9-.1 1.4-.3 2.3-.7 3.7-1.9 6.1-4.2 8.2-1.7 1.6-3.5 2.7-6 3.6 1.2 1.2 1.7 1.8 2.5 3.3 3.5-1.7 5.7-3.5 7.6-5.8 1.7-2.3 3-5.2 3.7-8.8.3-1.2.4-1.5.5-2 .1 0-3.8-.8-3.8-.8z" /></svg>
