<svg xmlns="http://www.w3.org/2000/svg" viewBox="0 0 254.9 78.4"><path class="pilcrow secondary" d="M16.6 56h-4.1V37.1H12c-2 0-3.6-.6-4.8-2C6 33.8 5.4 32 5.4 29.9c0-4.9 2.8-7.5 8.6-7.5h13.6l-2.5 4.1h-1.2v29.3h-4V26.6h-3.3V56z"/><path class="literate-js primary" d="M48.5 25.2v25.1h8.6v4.1h-13V25.2h4.4zm17.2 0v29.2h-4.4V25.2h4.4zm15.1 4.2v25.1h-4.4V29.4h-6.7v-4.2h17.8v4.2h-6.7zm26.7 0H95.8v7h11.4v4.2H95.8v9.7h11.7v4.1H91.4V25.2h16.1v4.2zM123.3 42l9 12.5h-5.4l-8.4-12h-.8v12h-4.4V25.3h5.2c3.8 0 6.6.7 8.4 2.2 1.9 1.6 2.8 3.7 2.8 6.4 0 2.1-.5 3.8-1.8 5.4-1.2 1.4-2.7 2.3-4.6 2.7zm-5.6-3.2h1.4c4.2 0 6.3-1.6 6.3-4.8 0-3-2-4.5-6.1-4.5h-1.5v9.3h-.1zm36.1 8.6h-12.6l-3.3 7.1h-4.7l14.5-31 13.9 31h-4.8l-3-7.1zm-1.8-4.1l-4.4-9.9-4.5 9.9h8.9zm19.8-13.9v25.1h-4.4V29.4h-6.7v-4.2h17.8v4.2h-6.7zm26.8 0h-11.7v7h11.4v4.2h-11.4v9.7h11.7v4.1h-16.1V25.2h16.1v4.2zm26.6-4.2v18.9c0 2.3-.2 3.9-.5 5.1-.3 1.3-.8 2.4-1.6 3.2-1.5 1.7-3.5 2.5-5.9 2.5-1.8 0-3.5-.5-5.2-1.5l2.2-3.7c1.1.7 2.1 1.1 3 1.1 1.3 0 2.2-.5 2.7-1.5s.8-2.7.8-5.2V25.3l4.5-.1zm23.5 4.5l-3.5 2.1c-.6-1.2-1.3-1.9-1.9-2.3-.6-.4-1.5-.6-2.5-.6-1.2 0-2.3.4-3.1 1-.8.6-1.2 1.5-1.2 2.5 0 1.5 1.1 2.5 3.2 3.5l2.9 1.2c2.4 1 4.1 2.1 5.2 3.5 1.1 1.4 1.6 3.1 1.6 5.1 0 2.7-.9 4.9-2.7 6.6-1.8 1.7-4 2.6-6.7 2.6-2.5 0-4.6-.7-6.3-2.3-1.6-1.5-2.6-3.6-3.1-6.4l4.5-1c.2 1.7.5 2.9 1.1 3.5.9 1.3 2.3 1.9 4 1.9 1.4 0 2.5-.5 3.5-1.4.9-.9 1.4-2.1 1.4-3.5 0-.5-.1-1.1-.3-1.5-.2-.5-.4-.9-.7-1.3-.4-.4-.7-.8-1.3-1.1-.5-.4-1.2-.6-1.9-1l-2.8-1.2c-4-1.7-6-4.2-6-7.5 0-2.2.8-4 2.5-5.5 1.6-1.5 3.7-2.3 6.3-2.3 3.3.4 6 2.1 7.8 5.4z"/></svg>
