<svg xmlns="http://www.w3.org/2000/svg" viewBox="0 0 254.9 78.4"><path class="phant primary" d="M11.6 55.7H7.4V18.9h7.3c4.6 0 6.8 2.3 6.8 6.8V35c0 4.6-2.3 6.8-6.8 6.8h-3v13.9zm2.9-32.9h-2.9v15.3h2.9c1.9 0 2.8-.9 2.8-2.8v-9.7c0-1.9-.9-2.8-2.8-2.8zM35.9 35V19h4.2v36.8h-4.2V38.9h-6.8v16.8h-4.2V18.9h4.2v16h6.8zM59.8 55.7h-4.2l-.9-6.2h-6.8l-.8 6.2h-4l5.7-36.9h5.4l5.6 36.9zm-11.3-9.9h5.7l-2.8-20.3-2.9 20.3zM74.5 18.9h4v36.8h-5.3L66.6 27v28.8h-4V18.9h5.8l6.1 26.7V18.9zM86.6 55.7V22.8h-5.5v-3.9h15.2v3.9h-5.5v32.9h-4.2z"/><path class="mscript primary" d="M139.2 47.9l4.7-29h6.5v36.8h-4.1V25.3l-5 30.4H137l-5-30.4v30.4h-4V18.9h6.6l4.6 29zM169 43.9v5.4c0 4.6-2.3 6.8-6.8 6.8H161c-4.5 0-6.7-2.3-6.7-6.7v-7.7h4.1v7.9c0 1.9.9 2.8 2.8 2.8h.8c1.9 0 2.8-.9 2.8-2.8V44c0-1.8-.6-2.6-1.8-3.5l-5.2-3.7c-2.7-1.9-3.5-3.8-3.5-6.8v-4.4c0-4.6 2.3-6.8 6.8-6.8h1.1c4.5 0 6.7 2.3 6.7 6.7V32h-4.1v-6.8c0-1.9-.9-2.8-2.8-2.8h-.7c-1.9 0-2.8.9-2.8 2.8v4.6c0 1.8.7 2.6 1.9 3.5l5.1 3.7c2.6 2 3.5 3.7 3.5 6.9zM187.6 41.6v7.6c0 4.6-2.3 6.8-6.8 6.8h-1.4c-4.6 0-6.8-2.3-6.8-6.8V25.5c0-4.6 2.3-6.8 6.8-6.8h1.4c4.5 0 6.7 2.2 6.7 6.7V32h-4.1v-6.7c0-1.9-.9-2.8-2.8-2.8h-1.1c-1.9 0-2.8.9-2.8 2.8v24.2c0 1.9.9 2.8 2.8 2.8h1.2c1.9 0 2.8-.9 2.8-2.8v-7.8h4.1zM206 43.3v12.4h-4.2V43.5c0-2.2-1-3.2-3.2-3.2h-3.1v15.5h-4.2V18.9h7.8c4.6 0 6.8 2.3 6.8 6.8v6.8c0 3.3-1.2 4.9-3.3 5.8 2.4.7 3.4 2.2 3.4 5zm-7-20.5h-3.5v13.8h3.2c2.1 0 3.1-1 3.1-3.1v-7.9c0-1.9-.9-2.8-2.8-2.8zM214.2 55.7H210V18.9h4.2v36.8zM222.4 55.7h-4.2V18.9h7.3c4.6 0 6.8 2.3 6.8 6.8V35c0 4.6-2.3 6.8-6.8 6.8h-3v13.9zm2.9-32.9h-2.9v15.3h2.9c1.9 0 2.8-.9 2.8-2.8v-9.7c0-1.9-.9-2.8-2.8-2.8zM239.3 55.7V22.8h-5.5v-3.9H249v3.9h-5.5v32.9h-4.2z"/><path class="skull secondary" d="M121.7 42.6l2.2-4.6 1.2-8.9-3.8-6-2.9-1.7-7.2-2.2h-6.7l-5 6.5-1.7 2.6.7 12.2 2 2.6-4.2 3.1 2.1 2.8h4.1s.1.1.2.4c.1.3.2.6.4 1s.4 1.2.6 1.4c.2.3.4.8.6 1.5.2.5.4.9.6 1.4.2 1 .3.7.4 1 .1.3.2-.1.2.4 0-.2.3.3.8.3.5.1 1 .3 1.5.6.5.5.8-.1.8.3 0-.2.2-.6.4-.7.2-.3.5-.8.7-1.3.2-.8.4-.7.4-.7 0 .1.2.3.4.7.2.2.5.8.7 1.3.2.2.4.7.4.7 0-.4.3-.2.6-.6.4-.6.8-.8 1.2-1.2.4-.6.6.1.6-.6 0-.2.1-.1.2.6.1.5.3 1.3.5 1.2.2.7.4.7.5 1.2.1.9.2.3.2.6s.1-.6.3-.5c.2-.4.4-.4.6-1.1.2-.6.5-.6.6-1.1.2-.3.3-.9.3-.5 0-.1.1-.4.3-.5.2-.2.4-.8.7-1.2.3-.5.6-.6.9-1.6.3-.5.6-1.1.9-1.6.5-1 .9-1.7.9-1.7h2.9l2.4-3.9-4.5-2.2zm-14.6-.4h-2l-3.7-2.4 1.4-2.5h1.5l1.1 2.4 2.4-1.2 1.7 1.2-2.4 2.5zm12.4-.5l-1.5.6-1.7.6-1.5-.6-.7-1.7 5.5-.8v1.9z"/></svg>
