<?xml version="1.0" encoding="utf-8"?>
<!-- Generator: Adobe Illustrator 25.3.1, SVG Export Plug-In . SVG Version: 6.00 Build 0)  -->
<svg version="1.1" id="Layer_1" xmlns="http://www.w3.org/2000/svg" xmlns:xlink="http://www.w3.org/1999/xlink" x="0px" y="0px"
	 viewBox="0 0 254.9 78.4" style="enable-background:new 0 0 254.9 78.4;" xml:space="preserve">
<path d="M5.7,40.6h3.2v-5.5H5.7V17.5h29.1c8.6,0,14.4,3.9,14.4,10.7c0,3.8-1.6,7.5-5.2,9.3l1.6,3.2h3.5v17.7H31.3L27.2,49h-1.8v9.4
	H5.7V40.6z M25.4,36.2h2.8c1.7,0,2.9-1.1,2.9-2.8c0-1.7-1.2-2.8-2.9-2.8h-2.8V36.2z"/>
<path d="M50.5,40.6h3.2v-5.5h-3.2V17.5h24.5v17.7h-3.2v5.5h3.2v17.7H50.5V40.6z"/>
<path d="M102.9,17.5c10.6,0,16.2,6,16.2,14.1c0,8.3-5.6,14.1-16.1,14.1h-6.5V47h4.5v11.4H76.4V40.6h3.2v-5.5h-3.2V17.5H102.9z
	 M96.4,35.2h2.8c1.7,0,2.9-1.1,2.9-2.8c0-1.7-1.2-2.8-2.9-2.8h-2.8V35.2z"/>
<g>
	<polygon points="165.2,51.5 146.5,58.4 152.6,58.4 165.2,53.7 	"/>
	<polygon points="165.2,58.1 164.4,58.4 165.2,58.4 	"/>
	<polygon points="165.2,54.8 155.4,58.4 161.5,58.4 165.2,57 	"/>
	<polygon points="188.3,58.4 190.8,57.5 190.8,55.2 182.3,58.4 	"/>
	<polygon points="166.6,58.4 170.4,58.4 190.8,50.9 190.8,48.6 166.6,57.6 	"/>
	<polygon points="179.4,58.4 190.8,54.2 190.8,51.9 173.3,58.4 	"/>
	<polygon points="166.6,56.5 190.8,47.6 190.8,45.3 166.6,54.3 	"/>
	<polygon points="165.3,31.6 150.1,37.2 149.1,39.8 164.5,34.2 	"/>
	<polygon points="163.8,36.2 164.1,35.4 146.3,41.9 146.3,44.2 167.9,36.2 	"/>
	<polygon points="162.3,41.1 162.9,39.1 146.3,45.2 146.3,47.5 163.6,41.1 	"/>
	<polygon points="146.3,40.6 146.3,40.9 146.9,40.6 	"/>
	<polygon points="165.2,41.6 146.3,48.5 146.3,50.8 165.2,43.8 	"/>
	<polygon points="165.2,44.9 146.3,51.8 146.3,54.1 165.2,47.1 	"/>
	<polygon points="165.2,48.2 146.3,55.1 146.3,57.4 165.2,50.4 	"/>
	<polygon points="166.6,49.9 190.8,41 190.8,40.6 188.3,40.6 188,39.8 166.6,47.7 	"/>
	<polygon points="146.3,34.3 181.4,21.3 180.7,19.3 146.3,32 	"/>
	<polygon points="146.3,31 180.4,18.4 180,17.5 176.8,17.5 146.3,28.7 	"/>
	<polygon points="146.3,24.4 165,17.5 158.9,17.5 146.3,22.1 	"/>
	<polygon points="146.3,27.7 173.9,17.5 167.9,17.5 146.3,25.4 	"/>
	<polygon points="146.3,21.1 156,17.5 150,17.5 146.3,18.8 	"/>
	<polygon points="146.3,17.8 147.1,17.5 146.3,17.5 	"/>
	<polygon points="167,33.2 183.5,27.1 182.8,25.2 166.4,31.2 	"/>
	<polygon points="168.7,38.7 168.9,39.1 185.6,33 184.9,31 164,38.7 	"/>
	<polygon points="150.9,35.2 150.6,36 165.7,30.4 165.9,29.7 166.1,30.3 182.4,24.2 181.7,22.2 146.7,35.2 	"/>
	<polygon points="166.6,46.6 187.6,38.8 186.9,36.8 166.6,44.4 	"/>
	<polygon points="169.5,41.1 166.6,41.1 166.6,43.3 186.6,35.9 185.9,33.9 169.2,40.1 	"/>
	<polygon points="166.6,53.2 190.8,44.3 190.8,42 166.6,51 	"/>
	<polygon points="168,36.2 184.5,30.1 183.8,28.1 167.3,34.2 	"/>
</g>
<g>
	<path d="M120.4,60.3l21.3-7.9c0-0.4,0-0.7,0-1.1v-1.1l-21.4,7.9V60.3z"/>
	<path d="M123.6,48.5c0,0.3,0,0.5-0.1,0.8l18.3-6.7v-2.2L123.6,47V48.5z"/>
	<polygon points="123.6,46 141.8,39.3 141.8,37 123.6,43.7 	"/>
	<path d="M120.6,51.6h-0.2v2.2l21.4-7.9v-2.2L123,50.6C122.5,51.2,121.7,51.6,120.6,51.6z"/>
	<path d="M120.4,63.7l21-7.8c0.1-0.8,0.2-1.5,0.3-2.3l-21.3,7.9V63.7z"/>
	<path d="M120.4,69.3h0.2c0.9,0,1.8,0,2.6-0.1l14.6-5.4c0.8-0.9,1.5-1.9,2.1-3L120.4,68V69.3z"/>
	<path d="M135.6,65.7l-8.4,3.1C130.7,68.2,133.5,67.2,135.6,65.7z"/>
	<path d="M120.4,67l20-7.4c0.3-0.8,0.6-1.6,0.8-2.5l-20.8,7.7V67z"/>
	<polygon points="120.4,57 141.8,49.2 141.8,46.9 120.4,54.8 	"/>
	<polygon points="120.4,27.3 144.9,18.3 144.9,17.5 141.1,17.5 120.4,25.1 	"/>
	<polygon points="120.4,24 138.2,17.5 132.1,17.5 120.4,21.8 	"/>
	<polygon points="120.4,30.6 144.9,21.6 144.9,19.3 120.4,28.4 	"/>
	<polygon points="120.4,20.7 129.2,17.5 123.2,17.5 120.4,18.5 	"/>
	<polygon points="123.6,39.4 144.9,31.5 144.9,29.2 123.6,37.1 	"/>
	<polygon points="123.6,42.7 141.8,36 141.8,35.2 143.8,35.2 144.9,34.8 144.9,32.5 123.6,40.4 	"/>
	<polygon points="120.4,35.2 123.6,35.2 123.6,36.1 144.9,28.2 144.9,25.9 120.4,35 	"/>
	<polygon points="120.4,33.9 144.9,24.9 144.9,22.6 120.4,31.7 	"/>
</g>
<g>
	<polygon points="206.3,40.6 203.4,40.6 192.1,44.8 192.1,47.1 206.3,41.8 	"/>
	<polygon points="206.3,42.9 192.1,48.1 192.1,50.4 206.3,45.1 	"/>
	<polygon points="205.7,36.5 206.2,38.6 228.4,30.4 229.1,27.9 	"/>
	<polygon points="221.9,53.6 211.5,57.5 211.7,58.4 215.1,58.4 221.2,56.1 	"/>
	<polygon points="206.3,52.8 192.1,58 192.1,58.4 197.2,58.4 206.3,55 	"/>
	<polygon points="207.3,42.5 207.9,44.5 226.4,37.7 227.1,35.2 	"/>
	<polygon points="206.3,46.2 192.1,51.4 192.1,53.7 206.3,48.4 	"/>
	<polygon points="206.3,56.1 200.1,58.4 206.2,58.4 206.3,58.3 	"/>
	<polygon points="206.3,49.5 192.1,54.7 192.1,57 206.3,51.7 	"/>
	<polygon points="206.5,39.5 207.1,41.5 227.4,34 228.1,31.5 	"/>
	<polygon points="203.1,33.1 203.1,30.9 192.1,34.9 192.1,35.2 195.3,35.2 195.3,36 	"/>
	<polygon points="203.1,37.5 195.3,40.3 195.3,40.6 194.5,40.6 192.1,41.5 192.1,43.8 203.1,39.7 	"/>
	<polygon points="203.1,34.2 195.3,37 195.3,39.3 203.1,36.4 	"/>
	<polygon points="203.1,27.6 192.1,31.6 192.1,33.8 203.1,29.8 	"/>
	<polygon points="219.7,21.4 203.1,27.5 203.7,29.6 220.3,23.4 	"/>
	<polygon points="209.8,51.5 210.4,53.5 223.3,48.8 224,46.3 	"/>
	<polygon points="209,48.5 209.6,50.5 224.3,45.1 225,42.6 	"/>
	<polygon points="222.3,52.4 223,49.9 210.7,54.5 211.2,56.5 	"/>
	<polygon points="208.7,47.5 225.3,41.4 226,38.9 208.2,45.5 	"/>
	<polygon points="226.1,40.6 226.1,41.1 227.4,40.6 	"/>
	<polygon points="241.9,58.4 250.6,55.2 250.6,52.9 235.9,58.4 	"/>
	<polygon points="221.1,26.3 220.6,24.4 204,30.5 204.5,32.6 245.4,17.5 239.4,17.5 221.8,24 	"/>
	<polygon points="222.1,22.8 236.5,17.5 230.4,17.5 222.8,20.3 	"/>
	<polygon points="205.4,35.6 250.6,18.9 250.6,17.5 248.3,17.5 204.8,33.5 	"/>
	<polygon points="223.2,19.1 227.5,17.5 223.6,17.5 	"/>
	<polygon points="229.2,30.1 250.6,22.2 250.6,19.9 229.2,27.8 	"/>
	<polygon points="229.2,33.4 250.6,25.5 250.6,23.2 229.2,31.1 	"/>
	<polygon points="192.1,30.5 219.5,20.5 218.9,18.4 192.1,28.3 	"/>
	<polygon points="192.1,20.6 200.7,17.5 194.7,17.5 192.1,18.4 	"/>
	<polygon points="192.1,23.9 209.7,17.5 203.6,17.5 192.1,21.7 	"/>
	<polygon points="192.1,27.2 218.6,17.5 212.6,17.5 192.1,25 	"/>
	<polygon points="226.1,47.7 247.4,39.8 247.4,37.6 226.1,45.5 	"/>
	<polygon points="226.1,54.3 250.6,45.3 250.6,43 226.1,52.1 	"/>
	<polygon points="226.1,57.6 250.6,48.6 250.6,46.3 226.1,55.4 	"/>
	<polygon points="233,58.4 250.6,51.9 250.6,49.6 226.9,58.4 	"/>
	<polygon points="250.6,58.4 250.6,56.2 244.8,58.4 	"/>
	<polygon points="226.1,44.4 247.4,36.5 247.4,35.2 250.6,35.2 250.6,33.1 226.1,42.2 	"/>
	<polygon points="229.2,36.7 250.6,28.8 250.6,26.5 229.2,34.4 	"/>
	<polygon points="229.2,40 250.6,32.1 250.6,29.8 229.2,37.7 	"/>
	<polygon points="226.1,51 250.6,42 250.6,40.6 248.1,40.6 226.1,48.8 	"/>
	<polygon points="220.9,57.3 218,58.4 220.6,58.4 	"/>
</g>
</svg>
