<?xml version="1.0" encoding="utf-8"?>
<!-- Generator: Adobe Illustrator 25.3.1, SVG Export Plug-In . SVG Version: 6.00 Build 0)  -->
<svg version="1.1" id="Layer_1" xmlns="http://www.w3.org/2000/svg" xmlns:xlink="http://www.w3.org/1999/xlink" x="0px" y="0px"
	 viewBox="0 0 254.9 78.4" style="enable-background:new 0 0 254.9 78.4;" xml:space="preserve">
<g>
	<path d="M50.9,24.8c0-7.1-6-11.1-14.9-11.1H6v18.3h3.3v5.6H6V56h20.3v-9.7h1.9l4.2,9.7h18.5V37.7h-3.6l-1.7-3.3
		C49.2,32.6,50.9,28.8,50.9,24.8z M29.2,33.1h-2.9v-5.9h2.9c1.8,0,3,1.2,3,2.9C32.2,31.9,31,33.1,29.2,33.1z"/>
	<rect x="56.8" y="12.4" width="15.5" height="5.6"/>
	<polygon points="72.2,19.4 52.3,19.4 52.3,34.9 55.1,34.9 55.1,40.5 52.3,40.5 52.3,56 75,56 75,40.5 72.2,40.5 	"/>
	<path d="M105.8,18.7c-4.3,0-7.6,2.1-9.4,6.6v-5.9H76.5v15.5h2.8v22.5h-2.8v9.9h22V55.2h-2.1v-3.5c2.3,3.1,4.8,5.3,9.6,5.3
		c7.3,0,12.5-7,12.5-19.5C118.5,25,114.2,18.7,105.8,18.7z M98.9,40.9c-0.8,0-1.9-0.4-2.5-0.8v-4.8c0.6-0.5,1.6-0.8,2.5-0.8
		c1.8,0,3,1.2,3,3.2S100.6,40.9,98.9,40.9z"/>
</g>
<g>
	<polygon points="127.6,12.4 124.3,14 124.3,15.8 130.9,12.4 	"/>
	<polygon points="125,19.4 119.9,22 119.9,23.7 128.3,19.4 	"/>
	<polygon points="136.5,18 139.8,16.3 139.8,14.5 133.2,18 	"/>
	<polygon points="139.8,18 139.8,17.4 138.7,18 	"/>
	<polygon points="127.7,18 131,18 139.8,13.4 139.8,12.4 138.5,12.4 	"/>
	<polygon points="136.4,12.4 133.1,12.4 124.3,16.9 124.3,18 125.5,18 	"/>
	<polygon points="122.7,45.1 139.8,36.2 139.8,34.5 122.7,43.4 	"/>
	<polygon points="122.7,42.2 139.8,33.4 139.8,31.6 122.7,40.5 	"/>
	<polygon points="122.7,50.8 139.8,41.9 139.8,40.2 122.7,49.1 	"/>
	<polygon points="122.7,47.9 139.8,39.1 139.8,37.3 122.7,46.2 	"/>
	<path d="M122.7,55.9c0,0.3,0,0.5-0.1,0.7l17.2-8.9v-1.7l-17.1,8.9V55.9z"/>
	<polygon points="122.7,53.6 139.8,44.8 139.8,43 122.7,51.9 	"/>
	<polygon points="122.7,39.4 139.8,30.5 139.8,28.8 122.7,37.7 	"/>
	<polygon points="119.9,32.3 139.8,22 139.8,20.2 119.9,30.6 	"/>
	<polygon points="119.9,34.9 120.4,34.9 139.8,24.8 139.8,23.1 119.9,33.4 	"/>
	<polygon points="122.7,34.9 122.7,36.5 139.8,27.7 139.8,25.9 122.6,34.9 	"/>
	<path d="M119.9,66.5l19.9-10.3c0-0.6,0.1-1.2,0.1-1.8l-19.9,10.3V66.5z"/>
	<polygon points="136,19.4 119.9,27.7 119.9,29.4 139.3,19.4 	"/>
	<polygon points="130.5,19.4 119.9,24.9 119.9,26.6 133.8,19.4 	"/>
	<path d="M130.6,66.6l7-3.6c0.6-0.7,1-1.5,1.3-2.4l-12.6,6.6C127.9,67,129.4,66.9,130.6,66.6z"/>
	<polygon points="119.9,60.8 139.8,50.5 139.8,48.7 119.9,59.1 	"/>
	<polygon points="119.9,63.6 139.8,53.3 139.8,51.6 119.9,61.9 	"/>
	<path d="M123.1,67.2c0.3,0,0.6,0,0.9,0l15.4-8c0.1-0.6,0.2-1.2,0.3-1.9l-19,9.9H123.1z"/>
	<polygon points="167.6,56 181.6,48.7 181.6,47 164.3,56 	"/>
	<polygon points="173.1,56 181.6,51.6 181.6,49.9 169.8,56 	"/>
	<polygon points="162.5,55.8 181.6,45.9 181.6,44.2 162.5,54.1 	"/>
	<path d="M178.8,40.5v-0.6l-31.3,16.2c0.7,0.3,1.4,0.5,2.2,0.6L181,40.5H178.8z"/>
	<polygon points="178.6,56 181.6,54.4 181.6,52.7 175.3,56 	"/>
	<polygon points="162.5,53 181.6,43 181.6,41.3 162.5,51.2 	"/>
	<polygon points="181.6,56 181.6,55.6 180.8,56 	"/>
	<path d="M141.5,43.9l17.4-9h-3.3l-13.5,7C141.8,42.5,141.6,43.2,141.5,43.9z"/>
	<path d="M178.8,37.1l-33.9,17.6c0.5,0.4,0.9,0.7,1.5,1l32.4-16.8V37.1z"/>
	<path d="M145.9,37.1c-1.2,0.9-2.3,2-3,3.3L155,34v-1.7l-4.9,2.6h3c-1.6,0-3.1,0.3-4.4,0.7L145.9,37.1z"/>
	<path d="M157,41.1c0-0.5,0.1-1,0.3-1.4l-15.9,8.3c0.1,0.5,0.2,1.1,0.3,1.6l15.3-8C157,41.4,157,41.3,157,41.1z"/>
	<path d="M157.3,42.5L142,50.5c0.2,0.5,0.4,1,0.6,1.4l15.8-8.2C157.9,43.4,157.5,43,157.3,42.5z"/>
	<path d="M151.8,56.9c4,0,7.3-1.8,9.7-5.2l-9.9,5.1C151.6,56.9,151.7,56.9,151.8,56.9z"/>
	<path d="M162.4,33.1l14.8-7.7c-0.2-0.5-0.5-0.9-0.8-1.3l-14.5,7.5C162.1,32,162.3,32.5,162.4,33.1z"/>
	<polygon points="150.6,20.3 141.2,25.2 141.2,26.9 151.5,21.6 	"/>
	<path d="M162.6,18.5c-1.2,0-2.3,0.1-3.3,0.2l-18.1,9.4v1.7L163,18.5C162.9,18.5,162.7,18.5,162.6,18.5z"/>
	<polygon points="150,19.4 147,19.4 141.2,22.4 141.2,24.1 150.1,19.5 	"/>
	<path d="M165,18.6l-23.8,12.3v1.7l26.4-13.7C166.8,18.8,165.9,18.6,165,18.6z"/>
	<polygon points="141.5,19.4 141.2,19.5 141.2,21.2 144.8,19.4 	"/>
	<path d="M178.8,34.2l-16.3,8.5V43c-0.6,0.6-1.5,0.9-2.4,1l-16.9,8.8c0.3,0.4,0.6,0.8,1,1.2l34.7-18V34.2z"/>
	<path d="M162.5,38.2v0.6l16.2-8.4c-0.1-0.6-0.1-1.1-0.2-1.6l-18.2,9.5H162.5z"/>
	<path d="M162.5,41.6l16.3-8.5v-1.2c0-0.2,0-0.4,0-0.5l-16.3,8.4V41.6z"/>
	<path d="M177.7,26.3l-15.2,7.9c0,0,0,0.1,0,0.1v0.6h-1.4l-19.8,10.3c0,0.4-0.1,0.8-0.1,1.2c0,0.2,0,0.4,0,0.6l36.9-19.2
		C178,27.2,177.9,26.7,177.7,26.3z"/>
	<path d="M147.9,34.9l7.1-3.7v-0.6c0.8-0.5,1.8-0.8,2.9-0.9l15.8-8.2c-0.5-0.3-1-0.7-1.5-0.9l-27.6,14.3H147.9z"/>
	<path d="M171.1,20c-0.6-0.3-1.3-0.5-2-0.7l-27.9,14.5v1.1h1.2L171.1,20z"/>
	<path d="M161.3,30.8l14.5-7.5c-0.4-0.4-0.7-0.8-1.1-1.1l-14.9,7.7C160.3,30,160.9,30.3,161.3,30.8z"/>
	<polygon points="211.6,56 226.1,48.4 226.1,46.7 208.3,56 	"/>
	<polygon points="217.1,56 226.1,51.3 226.1,49.6 213.8,56 	"/>
	<polygon points="205.7,56 206.1,56 226.1,45.6 226.1,43.9 205.7,54.4 	"/>
	<polygon points="200.6,56 204.3,54 204.3,52.3 197.3,56 	"/>
	<polygon points="204.3,56 204.3,55.2 202.8,56 	"/>
	<polygon points="226.1,56 226.1,55.3 224.7,56 	"/>
	<polygon points="233.6,56 248.9,48 248.9,46.3 230.2,56 	"/>
	<polygon points="227.6,56 228.1,56 248.9,45.2 248.9,43.4 227.6,54.5 	"/>
	<polygon points="195.1,56 204.3,51.2 204.3,49.5 191.8,56 	"/>
	<polygon points="239.1,56 248.9,50.9 248.9,49.1 235.7,56 	"/>
	<polygon points="222.6,56 226.1,54.1 226.1,52.4 219.3,56 	"/>
	<polygon points="227.6,51.7 227.6,53.4 248.9,42.3 248.9,40.6 	"/>
	<polygon points="202.5,40.5 202.5,39 183,49.1 183,50.9 203,40.5 	"/>
	<path d="M224.4,26.5c-0.1-0.5-0.2-1-0.4-1.5l-18.6,9.7c0.7,0.1,1.3,0.4,1.7,0.9L224.4,26.5z"/>
	<polygon points="183,53.7 204.3,42.6 204.3,40.9 183,52 	"/>
	<polygon points="224.3,36.3 205.7,45.9 205.7,47.6 224.3,38 	"/>
	<polygon points="244.6,56 248.9,53.7 248.9,52 241.2,56 	"/>
	<polygon points="202.5,36.2 183,46.3 183,48 202.5,37.9 	"/>
	<polygon points="205.7,53.3 226.1,42.7 226.1,41 205.7,51.6 	"/>
	<polygon points="205.7,50.5 224.9,40.5 224.3,40.5 224.3,39.1 205.7,48.7 	"/>
	<polygon points="189.6,56 204.3,48.3 204.3,46.6 186.3,56 	"/>
	<polygon points="248.9,56 248.9,54.8 246.7,56 	"/>
	<polygon points="183,56 184.1,56 204.3,45.5 204.3,43.8 183,54.8 	"/>
	<path d="M222.9,22.7L183,43.4v1.7l40.7-21.1C223.4,23.6,223.2,23.2,222.9,22.7z"/>
	<path d="M202.5,24.8L183,34.9h2.8v0.3l31.3-16.3c-0.8-0.2-1.6-0.3-2.5-0.4l-11.8,6.1c-0.1,0.2-0.2,0.4-0.3,0.6V24.8z"/>
	<path d="M203.8,23l8.7-4.5C209.4,18.7,206.1,19.7,203.8,23z"/>
	<path d="M185.8,38l34.4-17.8c-0.5-0.3-1.1-0.6-1.7-0.8l-32.7,17V38z"/>
	<path d="M221.1,20.8l-35.3,18.3v1.4h-2.6l-0.2,0.1v1.7l39.3-20.4C221.9,21.5,221.6,21.2,221.1,20.8z"/>
	<polygon points="202.5,21.9 183,32 183,33.8 202.5,23.7 	"/>
	<polygon points="183,19.4 183,19.5 183.2,19.4 	"/>
	<polygon points="185.4,19.4 183,20.6 183,22.4 188.7,19.4 	"/>
	<polygon points="196.4,19.4 183,26.3 183,28.1 199.7,19.4 	"/>
	<polygon points="190.9,19.4 183,23.5 183,25.2 194.2,19.4 	"/>
	<polygon points="202.5,19.4 201.9,19.4 183,29.2 183,30.9 202.5,20.8 	"/>
	<polygon points="227.6,47.7 246.1,38.1 246.1,36.4 227.6,46 	"/>
	<path d="M229.4,37.2v1l16.6-8.6c0-0.6-0.1-1.1-0.1-1.7l-16.6,8.6C229.4,36.7,229.4,37,229.4,37.2z"/>
	<polygon points="229.4,40.5 227.6,40.5 227.6,42 246.1,32.4 246.1,30.7 229.4,39.3 	"/>
	<path d="M226.5,22.6l8-4.2C230.6,18.5,228.2,20.1,226.5,22.6z"/>
	<polygon points="246.1,33.5 227.6,43.1 227.6,44.8 246.1,35.2 	"/>
	<path d="M228.9,35.6l16.8-8.7c-0.1-0.5-0.2-1-0.4-1.5l-18,9.3C228,34.8,228.6,35.1,228.9,35.6z"/>
	<polygon points="227.6,50.5 246.9,40.5 246.1,40.5 246.1,39.2 227.6,48.8 	"/>
	<path d="M205.7,44.8L245,24.4c-0.2-0.5-0.5-0.9-0.7-1.3l-38.5,20V44.8z"/>
	<path d="M207.6,37.2v0.9l34.1-17.7c-0.5-0.3-1-0.6-1.6-0.9l-32.6,16.9C207.6,36.7,207.6,36.9,207.6,37.2z"/>
	<path d="M236.5,18.6l-10.9,5.7c-0.3,0.7-0.6,1.4-0.9,2.2l14.2-7.4C238.1,18.8,237.3,18.6,236.5,18.6z"/>
	<path d="M207.6,40.5h-1.9v1.4l37.9-19.7c-0.3-0.4-0.7-0.8-1.1-1.2l-35,18.1V40.5z"/>
</g>
<path d="M5.7-121.4h3.2v-5.5H5.7v-17.7h29.1c8.6,0,14.4,3.9,14.4,10.7c0,3.8-1.6,7.5-5.2,9.3l1.6,3.2h3.5v17.7H31.3l-4.1-9.4h-1.8
	v9.4H5.7V-121.4z M25.4-125.8h2.8c1.7,0,2.9-1.1,2.9-2.8c0-1.7-1.2-2.8-2.9-2.8h-2.8V-125.8z"/>
<path d="M50.5-121.4h3.2v-5.5h-3.2v-17.7h24.5v17.7h-3.2v5.5h3.2v17.7H50.5V-121.4z"/>
<path d="M102.9-144.5c10.6,0,16.2,6,16.2,14.1c0,8.3-5.6,14.1-16.1,14.1h-6.5v1.4h4.5v11.4H76.4v-17.7h3.2v-5.5h-3.2v-17.7H102.9z
	 M96.4-126.8h2.8c1.7,0,2.9-1.1,2.9-2.8c0-1.7-1.2-2.8-2.9-2.8h-2.8V-126.8z"/>
<g>
	<polygon points="165.2,-110.5 146.5,-103.6 152.6,-103.6 165.2,-108.3 	"/>
	<polygon points="165.2,-103.9 164.4,-103.6 165.2,-103.6 	"/>
	<polygon points="165.2,-107.2 155.4,-103.6 161.5,-103.6 165.2,-105 	"/>
	<polygon points="188.3,-103.6 190.8,-104.5 190.8,-106.8 182.3,-103.6 	"/>
	<polygon points="166.6,-103.6 170.4,-103.6 190.8,-111.1 190.8,-113.4 166.6,-104.4 	"/>
	<polygon points="179.4,-103.6 190.8,-107.8 190.8,-110.1 173.3,-103.6 	"/>
	<polygon points="166.6,-105.5 190.8,-114.4 190.8,-116.7 166.6,-107.7 	"/>
	<polygon points="165.3,-130.4 150.1,-124.8 149.1,-122.2 164.5,-127.8 	"/>
	<polygon points="163.8,-125.8 164.1,-126.6 146.3,-120.1 146.3,-117.8 167.9,-125.8 	"/>
	<polygon points="162.3,-120.9 162.9,-122.9 146.3,-116.8 146.3,-114.5 163.6,-120.9 	"/>
	<polygon points="146.3,-121.4 146.3,-121.1 146.9,-121.4 	"/>
	<polygon points="165.2,-120.4 146.3,-113.5 146.3,-111.2 165.2,-118.2 	"/>
	<polygon points="165.2,-117.1 146.3,-110.2 146.3,-107.9 165.2,-114.9 	"/>
	<polygon points="165.2,-113.8 146.3,-106.9 146.3,-104.6 165.2,-111.6 	"/>
	<polygon points="166.6,-112.1 190.8,-121 190.8,-121.4 188.3,-121.4 188,-122.2 166.6,-114.3 	"/>
	<polygon points="146.3,-127.7 181.4,-140.7 180.7,-142.7 146.3,-130 	"/>
	<polygon points="146.3,-131 180.4,-143.6 180,-144.5 176.8,-144.5 146.3,-133.3 	"/>
	<polygon points="146.3,-137.6 165,-144.5 158.9,-144.5 146.3,-139.9 	"/>
	<polygon points="146.3,-134.3 173.9,-144.5 167.9,-144.5 146.3,-136.6 	"/>
	<polygon points="146.3,-140.9 156,-144.5 150,-144.5 146.3,-143.2 	"/>
	<polygon points="146.3,-144.2 147.1,-144.5 146.3,-144.5 	"/>
	<polygon points="167,-128.8 183.5,-134.9 182.8,-136.8 166.4,-130.8 	"/>
	<polygon points="168.7,-123.3 168.9,-122.9 185.6,-129 184.9,-131 164,-123.3 	"/>
	<polygon points="150.9,-126.8 150.6,-126 165.7,-131.6 165.9,-132.3 166.1,-131.7 182.4,-137.8 181.7,-139.8 146.7,-126.8 	"/>
	<polygon points="166.6,-115.4 187.6,-123.2 186.9,-125.2 166.6,-117.6 	"/>
	<polygon points="169.5,-120.9 166.6,-120.9 166.6,-118.7 186.6,-126.1 185.9,-128.1 169.2,-121.9 	"/>
	<polygon points="166.6,-108.8 190.8,-117.7 190.8,-120 166.6,-111 	"/>
	<polygon points="168,-125.8 184.5,-131.9 183.8,-133.9 167.3,-127.8 	"/>
</g>
<g>
	<path d="M120.4-101.7l21.3-7.9c0-0.4,0-0.7,0-1.1v-1.1l-21.4,7.9V-101.7z"/>
	<path d="M123.6-113.5c0,0.3,0,0.5-0.1,0.8l18.3-6.7v-2.2l-18.2,6.7V-113.5z"/>
	<polygon points="123.6,-116 141.8,-122.7 141.8,-125 123.6,-118.3 	"/>
	<path d="M120.6-110.4h-0.2v2.2l21.4-7.9v-2.2l-18.8,6.9C122.5-110.8,121.7-110.4,120.6-110.4z"/>
	<path d="M120.4-98.3l21-7.8c0.1-0.8,0.2-1.5,0.3-2.3l-21.3,7.9V-98.3z"/>
	<path d="M120.4-92.7h0.2c0.9,0,1.8,0,2.6-0.1l14.6-5.4c0.8-0.9,1.5-1.9,2.1-3L120.4-94V-92.7z"/>
	<path d="M135.6-96.3l-8.4,3.1C130.7-93.8,133.5-94.8,135.6-96.3z"/>
	<path d="M120.4-95l20-7.4c0.3-0.8,0.6-1.6,0.8-2.5l-20.8,7.7V-95z"/>
	<polygon points="120.4,-105 141.8,-112.8 141.8,-115.1 120.4,-107.2 	"/>
	<polygon points="120.4,-134.7 144.9,-143.7 144.9,-144.5 141.1,-144.5 120.4,-136.9 	"/>
	<polygon points="120.4,-138 138.2,-144.5 132.1,-144.5 120.4,-140.2 	"/>
	<polygon points="120.4,-131.4 144.9,-140.4 144.9,-142.7 120.4,-133.6 	"/>
	<polygon points="120.4,-141.3 129.2,-144.5 123.2,-144.5 120.4,-143.5 	"/>
	<polygon points="123.6,-122.6 144.9,-130.5 144.9,-132.8 123.6,-124.9 	"/>
	<polygon points="123.6,-119.3 141.8,-126 141.8,-126.8 143.8,-126.8 144.9,-127.2 144.9,-129.5 123.6,-121.6 	"/>
	<polygon points="120.4,-126.8 123.6,-126.8 123.6,-125.9 144.9,-133.8 144.9,-136.1 120.4,-127 	"/>
	<polygon points="120.4,-128.1 144.9,-137.1 144.9,-139.4 120.4,-130.3 	"/>
</g>
<g>
	<polygon points="206.3,-121.4 203.4,-121.4 192.1,-117.2 192.1,-114.9 206.3,-120.2 	"/>
	<polygon points="206.3,-119.1 192.1,-113.9 192.1,-111.6 206.3,-116.9 	"/>
	<polygon points="205.7,-125.5 206.2,-123.4 228.4,-131.6 229.1,-134.1 	"/>
	<polygon points="221.9,-108.4 211.5,-104.5 211.7,-103.6 215.1,-103.6 221.2,-105.9 	"/>
	<polygon points="206.3,-109.2 192.1,-104 192.1,-103.6 197.2,-103.6 206.3,-107 	"/>
	<polygon points="207.3,-119.5 207.9,-117.5 226.4,-124.3 227.1,-126.8 	"/>
	<polygon points="206.3,-115.8 192.1,-110.6 192.1,-108.3 206.3,-113.6 	"/>
	<polygon points="206.3,-105.9 200.1,-103.6 206.2,-103.6 206.3,-103.7 	"/>
	<polygon points="206.3,-112.5 192.1,-107.3 192.1,-105 206.3,-110.3 	"/>
	<polygon points="206.5,-122.5 207.1,-120.5 227.4,-128 228.1,-130.5 	"/>
	<polygon points="203.1,-128.9 203.1,-131.1 192.1,-127.1 192.1,-126.8 195.3,-126.8 195.3,-126 	"/>
	<polygon points="203.1,-124.5 195.3,-121.7 195.3,-121.4 194.5,-121.4 192.1,-120.5 192.1,-118.2 203.1,-122.3 	"/>
	<polygon points="203.1,-127.8 195.3,-125 195.3,-122.7 203.1,-125.6 	"/>
	<polygon points="203.1,-134.4 192.1,-130.4 192.1,-128.2 203.1,-132.2 	"/>
	<polygon points="219.7,-140.6 203.1,-134.5 203.7,-132.4 220.3,-138.6 	"/>
	<polygon points="209.8,-110.5 210.4,-108.5 223.3,-113.2 224,-115.7 	"/>
	<polygon points="209,-113.5 209.6,-111.5 224.3,-116.9 225,-119.4 	"/>
	<polygon points="222.3,-109.6 223,-112.1 210.7,-107.5 211.2,-105.5 	"/>
	<polygon points="208.7,-114.5 225.3,-120.6 226,-123.1 208.2,-116.5 	"/>
	<polygon points="226.1,-121.4 226.1,-120.9 227.4,-121.4 	"/>
	<polygon points="241.9,-103.6 250.6,-106.8 250.6,-109.1 235.9,-103.6 	"/>
	<polygon points="221.1,-135.7 220.6,-137.6 204,-131.5 204.5,-129.4 245.4,-144.5 239.4,-144.5 221.8,-138 	"/>
	<polygon points="222.1,-139.2 236.5,-144.5 230.4,-144.5 222.8,-141.7 	"/>
	<polygon points="205.4,-126.4 250.6,-143.1 250.6,-144.5 248.3,-144.5 204.8,-128.5 	"/>
	<polygon points="223.2,-142.9 227.5,-144.5 223.6,-144.5 	"/>
	<polygon points="229.2,-131.9 250.6,-139.8 250.6,-142.1 229.2,-134.2 	"/>
	<polygon points="229.2,-128.6 250.6,-136.5 250.6,-138.8 229.2,-130.9 	"/>
	<polygon points="192.1,-131.5 219.5,-141.5 218.9,-143.6 192.1,-133.7 	"/>
	<polygon points="192.1,-141.4 200.7,-144.5 194.7,-144.5 192.1,-143.6 	"/>
	<polygon points="192.1,-138.1 209.7,-144.5 203.6,-144.5 192.1,-140.3 	"/>
	<polygon points="192.1,-134.8 218.6,-144.5 212.6,-144.5 192.1,-137 	"/>
	<polygon points="226.1,-114.3 247.4,-122.2 247.4,-124.4 226.1,-116.5 	"/>
	<polygon points="226.1,-107.7 250.6,-116.7 250.6,-119 226.1,-109.9 	"/>
	<polygon points="226.1,-104.4 250.6,-113.4 250.6,-115.7 226.1,-106.6 	"/>
	<polygon points="233,-103.6 250.6,-110.1 250.6,-112.4 226.9,-103.6 	"/>
	<polygon points="250.6,-103.6 250.6,-105.8 244.8,-103.6 	"/>
	<polygon points="226.1,-117.6 247.4,-125.5 247.4,-126.8 250.6,-126.8 250.6,-128.9 226.1,-119.8 	"/>
	<polygon points="229.2,-125.3 250.6,-133.2 250.6,-135.5 229.2,-127.6 	"/>
	<polygon points="229.2,-122 250.6,-129.9 250.6,-132.2 229.2,-124.3 	"/>
	<polygon points="226.1,-111 250.6,-120 250.6,-121.4 248.1,-121.4 226.1,-113.2 	"/>
	<polygon points="220.9,-104.7 218,-103.6 220.6,-103.6 	"/>
</g>
</svg>
