<svg xmlns="http://www.w3.org/2000/svg" viewBox="0 0 254.9 78.4"><path class="backing primary" d="M41.4 61.6H24.1L21 57.5l-3.1 4.1H9.3V48.3h12.3v3.6h9.2v-5.2H16.9l-7.7-7.1V29l8.7-9.4h14.5l3 4.3 3.2-4.3h8.7V33H35v-3.6h-7.2v5.2H41l8.7 8.2v10l-8.3 8.8zm55.7-30.7v26.7l-4 4h-9.5l-5.9-4.5-9.9-19.2v12.3h4.5v11.3H51.2V50.3h4.5V30.9h-4.5V19.5h18.2l5.3 3.9L85 43.6V30.9h-4.5V19.6h21.2v11.3h-4.6zm24.2 30.7V50.3h3.2l-.7-2.4H116l-.7 2.4h4v11.3H99V50.3h3.7l8.6-26 4.8-4.7H129l4.8 4.7 8.8 26h4.3v11.3h-25.6zm-1.4-26.9-2 6.4h3.9l-1.9-6.4zm74.8-3.8v26.7l-4 4h-9.5l-5.9-4.5-9.9-19.2v12.3h4.5v11.3h-21.2V50.3h4.5V30.9h-4.5V19.5h18.2l5.3 3.9 10.3 20.2V30.9H178V19.6h21.2v11.3h-4.5zm47.7 16.3v14.4h-9.6l-3.6-5-3.6 5h-13.3l-11-10.8V30.3l11-10.8h12.9l3.6 5 3.6-5h9.6v17h-13.6v-5.6h-9.5v19.4h8.2v-3.1h-4.2v-7.9h24.2v7.9h-4.7z"/><path class="highlight secondary" d="m22.3 24.5-3.9 4.2-7.8.1 7.7-8.3 4 4zM19.6 49l-4.2 2.1-4.2-2.1h8.4zm1.2 3-5 3.9v-4.1l5-2.6V52zm14.4 4.4-18.7-.1 4.8-3.7H31l4.2 3.8zm-8.1-21.7-8.2 2v-7.3l8.2-.1v5.4zm7.5-10.6H23l-3.8-3.8h12.9l2.5 3.8zm-8.3 11.5-4 4.4-2.9-2.7 6.9-1.7zm13.7-.2-4.2 4.8H23.1l4.5-4.8H40zm-.6 17.3-3.2 3.5-4.1-3.6 7.3.1zm9.1-10-8.2 1.5-3.8-3.6 4.4-5 7.6 7.1zm-2.7-22.4-4.6 3.6-1.9-3.6h6.5zM49 52.2l-8.4-.2v-7.2l8.4-1.5v8.9zm-2.5-20.3-5-2.6v-4.7l5-3.9v11.2zm22.2-11.6-1 4.6H55.1l-2.9-4.6h16.5zm-8 35.3h-4.6L52.4 51h3.5l4.8 4.6zm6.3-5.1-4.9 4.6V26.8l4.9 9.6v14.1zm4.2.5-2.9 4.6h-5.6l4.9-4.6h3.6zm2.3-27.4-4.9 1.2.9-4.2 4 3zm11.4 21.7-.4 9.7-15.9-29.5 5.5-1.3 10.8 21.1zM71.5 59.9 69 56l2.5-4v7.9zm28.9-39.6-3.9 4.6H84.4l-2.9-4.6h18.9zM90.4 56h-5.1l.4-9.3 4.7 9.3zm5.9 1-4.9-.9V26.2l4.9 4.6V57zm-.4.7L93 60.6l-1.5-3.7 4.4.8zm4.9-28.1-3.6-4.3 3.6-4.3v8.6zm5.5 26H104l-3.9-4.6h2.6l3.6 4.6zm8.9-7.9-.8 2.7-6.7 4.6 3.2-9.9 4.3 2.6zm2.9 3.3-2.9 4.6h-7l6.6-4.6h3.3zm1.4-17.6-2.4 7.8-5.7 2.6 4.9-15.5 3.2 5.1zm-3.7-6.7-3.6-2.3 3.6-3.6v5.9zm13.5 17.4h-16.7l4.9-2.2h4.8l7 2.2zm-10.8 15.8L116 56l2.5-4v7.9zm9.8-39.6-2.4 6.7h-9.3v-6.7h11.7zm5.6 35.3h-8.7l-2.9-4.6h2.6l9 4.6zm7.9-5-6.1 4.8-9-27.7 6.6-2.6 8.5 25.5zm-9.1-26.3-5.9 2.4 2.2-6.1 3.7 3.7zM145.6 51l-3.8 4.6h-5.2l5.8-4.6h3.2zm.4 9.2-3.6-4.2 3.6-4.3v8.5zm20.3-39.9-1 4.6h-12.6l-2.9-4.6h16.5zm-8 35.3h-4.5L150 51h3.5l4.8 4.6zm6.3-5.1-4.9 4.6V26.8l4.9 9.6v14.1zm4.2.5-2.9 4.6h-5.6l4.9-4.6h3.6zm2.3-27.4-4.9 1.2.9-4.2 4 3zm11.4 21.7-.4 9.7-15.9-29.5 5.5-1.3 10.8 21.1zm-13.4 14.6-2.5-3.9 2.5-4v7.9zM198 20.3l-3.9 4.6H182l-2.9-4.6H198zM187.9 56h-5.1l.4-9.3 4.7 9.3zm6 1-4.9-.9V26.2l4.9 4.6V57zm-.4.7-2.9 2.9-1.5-3.7 4.4.8zm4.9-28.1-3.6-4.3 3.6-4.3v8.6zm16.6-4.4-5.1 4.9h-7.3l9.8-9.5 2.6 4.6zm3.1 25.1h-7.7V30.9h7.7v19.4zm-.3.7-2.5 4.3L211 51h6.8zm10.3-26.2h-12.4l-2.6-4.6h11.7l3.3 4.6zm5.5 30.8h-17.4l2.6-4.6h8.6l6.2 4.6zM246 40.1l-2.4 2.8h-17l-2.4-2.8H246zm-5.4-19.8-5.2 4.3-2.1-4.3h7.3zm1.1 40.2-6.6-4.7v-12l6.6 3.2v13.5zm-.5-25-5.6-3.3v-6.7l5.6-4.7v14.7zm5.2 10.3-2.1-2.5 2.1-2.5v5z"/></svg>