<svg xmlns="http://www.w3.org/2000/svg" viewBox="0 0 254.9 78.4">
<path class="secondary" d="M217.1 18.5c-.9-1.1-1.8-2.1-2.7-3s-1.7-1.8-2.5-2.5c-.7-.7-1.4-1.3-1.8-1.7-.5-.4-.8-.7-.8-.7h-.4c-.5.4-1 .9-1.6 1.4-.5.5-1.1 1-1.7 1.6l-1.7 1.7c-.6.6-1.1 1.2-1.7 1.8-.6-1.1-1.2-2.1-1.8-3.1-.6-.9-1.1-1.8-1.6-2.5s-.9-1.3-1.1-1.7c-.3-.4-.5-.7-.5-.7l-.4-.1-3 2.1c-1 .7-2 1.5-3 2.2-1 .8-2 1.5-2.9 2.3-1 .8-1.9 1.6-2.9 2.4-1.8-1-3.6-1.9-5.4-2.8-1.7-.8-3.3-1.6-4.7-2.3-1.4-.6-2.5-1.2-3.4-1.6-.8-.4-1.4-.6-1.4-.6-.6.4-1.3.9-1.9 1.3-.6.4-1.2.8-1.7 1.2s-1 .8-1.5 1.1c-.5.4-.9.7-1.3 1-.6.1-1.3.3-2.1.5s-1.7.4-2.6.7c-.9.2-1.9.5-2.9.8l-3 .9.1 4.8-2.8-4.2c-1.1-1.1-2.1-2.1-3.1-3-1-1-1.9-1.8-2.7-2.6-.8-.7-1.5-1.4-1.9-1.8-.5-.4-.8-.7-.8-.8h-.5l-2.7 2.4c-.9.8-1.7 1.6-2.4 2.3-.7.8-1.4 1.5-2 2.1l-.2.2-6.7-8.5-.4-.1c-.9.7-1.9 1.3-2.8 2s-1.9 1.4-2.8 2.2c-.9.7-1.9 1.5-2.8 2.3l-2.7 2.4c-.8-.9-1.5-1.8-2.3-2.6-.7-.8-1.4-1.5-2-2.1l-1.5-1.5-.6-.6h-.4c-.5.4-1 .9-1.5 1.4s-1.1 1-1.6 1.6c-.6.5-1.1 1.1-1.7 1.7l-.1.1-6.1-6.1-.4-.1c-1 .7-1.9 1.3-2.9 2s-1.9 1.4-2.9 2.2c-1 .7-1.9 1.5-2.8 2.3-.9.8-1.9 1.6-2.8 2.4l-.2.2c-.1 0-.1.1-.2.1.1 0 .1-.1.2-.1l.2-.2c-1.7-1-3.4-1.9-5-2.7s-3.1-1.6-4.4-2.2c-1.3-.6-2.4-1.1-3.1-1.5-.8-.4-1.3-.6-1.4-.6l-1.8 1.2c-.6.4-1.1.8-1.7 1.2-.5.4-1 .8-1.5 1.1-.5.4-.9.7-1.2 1-.6.1-1.2.3-2 .5s-1.6.4-2.5.7c.2-.1.4-.1.6-.2l.1-1.2-12.9-10-1.2-.6c-1.2.9-2.7 2-4.1 3.2-1.5 1.2-3 2.5-4.6 3.8-1.5 1.3-3 2.6-4.4 3.9-1.4 1.2-2.6 2.4-3.7 3.4l.3 1.5 2.9 1.8v14.3c-.2.1-.4.3-.7.4-.2.2-.5.3-.8.5s-.6.4-.8.6l-.9.6v.4c.9.6 1.9 1.3 3.1 2.1 1.2.7 2.4 1.5 3.7 2.3s2.6 1.5 3.9 2.2c1.3.7 2.5 1.3 3.5 1.8.2-.2.5-.3.7-.5-.2.2-.4.3-.7.5v.1l10.5 5.7c.2.1.5.3.7.4.2.1.5.2.7.4.2.1.5.2.7.3l.6.3c.9-.7 1.9-1.4 2.7-2.1.9-.7 1.7-1.3 2.4-2 .7-.6 1.4-1.2 2-1.7s1.1-.9 1.4-1.3c.9.5 1.9 1 2.9 1.6 1 .5 2.1 1.1 3.2 1.6s2.2 1 3.2 1.5 2 1 3 1.4l7-5 7.6-3.3v-.2l2.1 1.6c.7.5 1.6 1.1 2.6 1.8 1 .6 2 1.3 3.1 2s2.2 1.4 3.3 2c1.1.6 2.2 1.2 3.1 1.8 1-.8 2-1.7 2.9-2.5s1.7-1.6 2.4-2.3c.7-.7 1.3-1.3 1.7-1.8.4-.4.7-.7.7-.8v-.4l-5.7-4.9 1-10.8 5.4 5.1h.4c.4-.3.8-.7 1.2-1.1l-.1-12.7.2 27.6c-.1.4-.2 1-.4 1.7s-.3 1.5-.5 2.3c-.2.9-.4 1.8-.6 2.8s-.5 2-.7 2.9l8.6 6.5.4.3c1.7-.7 3.3-1.3 4.8-2 1.5-.6 2.9-1.2 4-1.8 1.2-.5 2.1-1 2.8-1.3s1.1-.5 1.2-.6l.5-9.3 5.4 1.7c.4-.3.7-.6 1.1-.9.4-.3.7-.6 1.1-1 .4-.3.7-.6 1-.9.3-.3.6-.6 1-.9.5-.3 1-.6 1.6-.9.5-.3 1.1-.6 1.6-1 .6-.3 1.1-.7 1.7-1.1.6-.4 1.1-.7 1.7-1.1l.1-.8 2.2 2.7c1 .6 2.1 1.2 3.2 1.8 1.2.6 2.5 1.2 3.7 1.9l3.9 1.8c1.3.6 2.5 1.1 3.6 1.6l7.2-5.1 7.9-3.3.2-2.9 2.1 4.3c.8.5 1.7 1.1 2.7 1.8s2.2 1.4 3.3 2.1c1.2.7 2.4 1.4 3.5 2.1 1.2.7 2.3 1.3 3.4 1.8 1-.9 2-1.7 3-2.6.9-.9 1.8-1.7 2.5-2.4s1.3-1.3 1.7-1.8.7-.7.7-.8v-.4l-2.3-8.1c-.7-.3-1.4-.6-2-1-.5-.2-1-.5-1.5-.7l.5-7.1 5.7 6h.4c.6-.6 1.3-1.2 2-2s1.4-1.5 2.1-2.2c.7-.8 1.4-1.5 2-2.2s1.2-1.3 1.6-1.8V28l-1.2-9.5zm-101.6 0l.3-.3-.3.3-.3.3.3-.3zm-29.7.6l.2-.2c.1 0 .1-.1.2-.1-.1 0-.1.1-.2.1l-.2.2v.4l.9.7-.9-.7v-.4zM47.6 47c.5-.4 1-.7 1.4-1.1-.4.4-.9.8-1.4 1.1zm139.7-9c.1-.1.3-.2.4-.3l.5-7.8.5-.3.2 7.3c-.3.2-.5.4-.8.6-.2 0-.5.2-.8.5z"/>
<path class="primary" d="M151 18.7c-1.1-1.1-2.1-2.1-3.1-2.9-.8-1.1-1.7-2-2.7-2.9-.8-.7-1.5-1.4-1.9-1.8-.4-.3-.5-.5-.6-.5v-.4h-1.2l-2.8 2.5c-.9.8-1.7 1.6-2.4 2.3-.7.8-1.4 1.5-2 2.1-.4.4-.8.9-1.1 1.2-.3-.6-.6-1.3-1-1.9l-.6-1.2-.9-1.8c-.3-.5-.5-1-.8-1.5-.2-.4-.4-.8-.6-1.1-.2-.4-.4-.8-.6-1.1-.3-.5-.5-.9-.5-.9h-.2l-.9-.2-.1.1c-.4.3-.9.7-1.4 1-.5.3-1 .7-1.4 1-.3.2-.5.4-.8.6-.7.5-1.4 1-2 1.6-.7.6-1.8 1.4-2.8 2.3l-2.3 2.1c-.2-.2-.3-.4-.5-.6-.5-.6-1-1.2-1.5-1.7-.7-.8-1.4-1.5-2-2.1l-2.2-2.2h-.8l-.1.1c-.5.4-1 .9-1.5 1.4l-.5.5c-.4.4-.8.7-1.1 1.1-.4.3-.8.7-1.2 1.1l-.6.6-.9.9c-.1.1-.1.2-.2.2-.3-.6-.7-1.2-1-1.8l-.3-.6-.9-1.5c-.2-.3-.4-.6-.5-.9-.4-.7-.8-1.3-1-1.7-.2-.3-.3-.4-.3-.4v-.2l-1-.3-.2.1c-.5.4-1 .7-1.5 1-.5.3-.9.6-1.4 1-1 .7-1.9 1.4-2.9 2.2-1 .7-1.9 1.5-2.8 2.3-.4.4-.9.8-1.4 1.2-.4.3-.8.6-1.1 1-1.4-.8-3-1.7-4.7-2.5-.5-.3-1.1-.5-1.6-.8-1-.5-1.9-1-2.8-1.4l-.3-.1c-1.1-.5-2.1-1-2.8-1.3-1.3-.7-1.5-.7-1.6-.7h-.2L71 12.5l-.9.6c-.3.2-.5.4-.9.6-.5.4-1 .8-1.5 1.1l-.4.2c-.3.2-.6.5-.8.7-.4.1-.7.2-1.1.3-.2.1-.5.1-.8.2-.8.2-1.6.4-2.5.7-.7.2-1.4.4-2.2.6l-.7.2c-.5.1-1 .3-1.4.4-.5.1-1 .3-1.5.4l-.3.1.1 18.9c-.1.1-.2.1-.3.2l-.1.1c-.1.1-.2.1-.3.2l-.1.1c-.1.1-.2.1-.3.2 0 0-.1.1-.2.1-.7-.3-1.5-.5-2.1-.7-.4-.2-.7-.3-1.1-.4-.3-.1-.7-.2-1-.4-.4-.2-.9-.3-1.2-.5-.2-.1-.4-.2-.6-.2-.4-.1-.7-.3-1.1-.4l1.2-13.9c.3 0 .7 0 1-.1.5 0 .9 0 1.3-.1.5 0 .9 0 1.4-.1.2 0 .4 0 .6-.1h.8l.1-.3c.3-.6.6-1.2.8-1.8l.2-.5c.2-.4.3-.9.5-1.2.1-.2.2-.5.3-.7.1-.3.2-.7.3-.9.1-.2.1-.4.2-.5.1-.3.2-.5.2-.5l.2-.3-.7-.7-6.6.5.8-9-1.8-.9-.7.5c-1.1.9-2.4 1.8-3.7 2.9-.8.7-1.6 1.3-2.5 2-.7.6-1.4 1.2-2.2 1.8-1.5 1.3-3 2.6-4.4 3.9-.9.8-1.7 1.5-2.5 2.3-.4.4-.8.8-1.2 1.1l-.2.2.4 2.2 2.8.2V37c-.1.1-.2.2-.3.2h-.1l-.1.1c-.1.1-.2.1-.3.2-.1.1-.3.1-.4.2-.3.2-.6.4-.8.6l-1.1.7v.9l.2.1c.4.3.9.6 1.3.9.5.4 1.1.8 1.8 1.2.7.4 1.5.9 2.2 1.4l1.5.9c1.3.8 2.6 1.5 3.9 2.2 1.3.7 2.5 1.3 3.5 1.8l.3.1.2-.2 2.4-1.8.5-.4c.9-.7 1.8-1.4 2.6-2.1.7-.6 1.5-1.3 2.2-1.8.6-.4.9-.8 1.3-1.2.5.3 1.1.6 1.6.9.4.2.8.4 1.1.6.7.4 1.5.8 2.2 1.1l1.2.6c.9.5 1.8.9 2.6 1.3l.8.4c1.1.5 2.2 1 3.2 1.5l.3.1 7.7-5.4 8.3-3.6L86 21.4l.4-.3 2.5 2.1.1 13.6c-.2.1-.4.3-.6.4-.3.2-.6.4-.9.7-.2.2-.5.4-.8.6-.3.2-.7.6-.9.8l-.1.1v.9l.2.2c.6.4 1.2.8 1.8 1.3l.9.6c.7.5 1.4.9 2.2 1.4.4.2.8.5 1.1.7l1.5.9c.7.4 1.4.9 2 1.2 1.2.7 2.3 1.3 3.4 1.9l.3.2.3-.2c1.1-.9 2.1-1.8 3.1-2.7.5-.5 1-.9 1.4-1.3.4-.4.8-.8 1.2-1.1.7-.6 1.3-1.2 1.9-2 .3-.4.5-.5.5-.6h.4v-1.2l-.3-.1c-.3-.2-.6-.3-1-.5-.3-.1-.6-.3-.9-.4l-2.3-1.1c-.4-.2-.7-.3-1-.6-.3-.1-.6-.3-.8-.4l1.3-13 5 5.5h.8l2-2c.6-.6 1.3-1.3 1.9-2 .6-.7 1.3-1.4 1.9-2 .3-.3.6-.6.8-.9.2-.2.4-.4.5-.6l2.3 1.9.2 27.3c0 .1-.1.3-.1.4-.1.3-.2.7-.3 1.2-.1.4-.2.8-.3 1.3-.1.3-.1.7-.2 1.1-.2.9-.4 1.8-.6 2.8-.1.6-.3 1.1-.4 1.7l-.3 1.2-.1.3.9.7.3-.1c1.8-.7 3.5-1.4 5.1-2.1l1.5-.6c1-.4 2-.9 2.9-1.3.6-.3 1.1-.5 1.5-.7.6-.3 1.1-.5 1.6-.7.6-.3 1-.5 1.1-.5h.5l.6-9.8 5.4 1.7.2-.2c.2-.2.4-.3.6-.5.2-.2.4-.3.6-.5.2-.2.4-.3.6-.5.2-.2.4-.3.6-.5.2-.2.4-.4.6-.5l.5-.5c.3-.2.6-.5.8-.8.1-.1.2-.2.2-.3.2-.1.3-.2.5-.3.4-.2.8-.4 1.1-.7.6-.3 1.3-.8 1.9-1.1.3-.2.6-.4.9-.5l.9-.6 2-1.3 1.7-19.4-.1-.4zm-15 17.6l-3.4-.5.7-12.3.1-.4 2.5 1.7.1 11.5zm-63.8 1.1l-4-1.1 1.5-14.9 2.3.7.2 15.3zM217.3 17.6c-.4-.3-.9-.8-1.3-1.4-.4-.4-.7-.8-1.1-1.2l-.9-.9-1.6-1.6c-.4-.4-.8-.8-1.2-1.1-.3-.2-.5-.4-.7-.6-.5-.4-.8-.7-.8-.7l-.1-.1h-.8l-.1.1c-.3.2-.5.5-.8.7-.2.2-.5.5-.8.7-.2.2-.5.5-.8.7l-.9.9-1.7 1.7-.9.9c-.1.1-.2.3-.4.4-.5-.9-1-1.7-1.5-2.5-.3-.4-.5-.8-.7-1.2-.3-.5-.6-.9-.9-1.3-.5-.8-.9-1.3-1.1-1.7-.3-.4-.5-.7-.5-.7l-.1-.2-.8-.2-3.2 2.2c-.5.4-1 .7-1.5 1.1-.5.4-1 .7-1.5 1.1-.4.3-.7.6-1.1.8-.6.5-1.3 1-1.8 1.5l-1.5 1.2c-.4.3-.8.7-1.2 1l-5.1-2.7c-1.7-.8-3.3-1.6-4.7-2.3-.8-.4-1.5-.7-2.2-1-.4-.2-.9-.4-1.2-.6-.8-.4-1.4-.6-1.5-.6l-.2-.1-.2.1c-.3.2-.6.4-1 .7l-.9.6c-.6.4-1.2.8-1.7 1.2-.5.4-1 .8-1.5 1.1-.5.4-.8.6-1.2.9-.4.1-.9.2-1.4.3l-1.1.3c-.7.2-1.4.3-2.1.6-.9.2-1.9.5-2.9.8l-3.4 1 .6 19.4s-.1 0-.1.1l-.2.2c-.1.1-.3.2-.4.2l-.2.2-.1.1c-.1.1-.2.2-.4.3l-.3.2c-.1.1-.2.2-.4.3l-.5.3v1l.2.1c.7.4 1.5.8 2.3 1.3l1.2.6c.9.5 1.7.9 2.6 1.3.5.2.9.4 1.4.7 1 .5 1.9.9 2.9 1.3.4.2.8.4 1.3.6.6.3 1.2.5 1.8.8l2.1.9.3.1 8-5.6 8.7-3.7 1.2-17.9.4-.3 2.7 2.2.5 13.8-.2.2c-.1.1-.2.2-.4.3-.3.2-.6.4-.9.7-.2.1-.3.2-.5.4-.1.1-.3.2-.4.3-.3.2-.6.5-.9.8l-.1.1v.9l.2.1c.6.5 1.4 1 2.2 1.5l.7.5c.7.4 1.4.8 2.1 1.3l1.5.9 1 .6c.9.5 1.8 1.1 2.8 1.6.4.2.7.4 1 .6.9.5 1.8 1 2.6 1.3l.3.1.2-.2c1-.8 2-1.7 2.9-2.5l.3-.3c1-.9 1.9-1.8 2.7-2.6l1.9-1.9c.4-.4.6-.6.7-.8 0-.1.1-.1.1-.1l.1-.1v-.9l-.3-.1c-.7-.3-1.4-.6-2-1-.7-.3-1.3-.6-1.9-.9l-.6-.3c-.3-.2-.6-.3-1-.5-.3-.1-.6-.3-.9-.4l.9-13.4 5.5 5.7h.8l.1-.1.6-.6 1.5-1.5 1.2-1.2c.4-.4.7-.8 1.1-1.2.8-.8 1.5-1.6 2.2-2.4.5-.5.9-1 1.3-1.5.1-.2.3-.4.4-.5l.1-.1v-.9l.1-.3zm-46.7 19.8l-4.2-1 1.1-15.4 2.5.7.6 15.7z"/>
</svg>
