<svg xmlns="http://www.w3.org/2000/svg" viewBox="0 0 254.87 78.42" style="enable-background:new 0 0 254.87 78.42" xml:space="preserve"><path class="primary" d="M47.4 39.55c-1.02 7.06-7.6 12.84-14.66 12.84-7.06 0-12.04-5.78-11.02-12.84l3.16-22.48h-3.21L18.5 39.55c-1.28 8.88 4.87 16.05 13.75 16.05 8.88 0 17.07-7.17 18.35-16.05l3.16-22.48h-3.21L47.4 39.55zM61.85 17.07l-5.3 37.73h3.21l4.07-29.01L75.49 54.8h3.54L63.45 17.07zM83.84 54.8h3.21l5.3-37.73h-3.21zM128.47 17.07h-3.21l-3.16 22.48c-1.02 7.06-7.6 12.84-14.66 12.84-7.06 0-12.04-5.78-11.02-12.84l3.16-22.48h-3.21l-3.16 22.48c-1.28 8.88 4.87 16.05 13.75 16.05 8.88 0 17.07-7.17 18.35-16.05l3.16-22.48zM145.28 33.18l-6.48-1.93c-1.34-.27-2.03-1.66-1.87-3.1.32-2.25 2.36-3.8 4.98-3.8 1.77 0 3.37.7 3.96 1.5l2.73-2.09c-1.18-1.44-3.37-2.62-6.05-2.62-4.12 0-8.13 2.68-8.72 6.8-.37 2.68.8 5.62 3.48 6.37l6.47 1.77c3.37.96 4.76 4.5 4.28 8.03-.75 5.03-5.94 8.24-11.4 8.24-3.8 0-7.17-1.71-8.67-3.64l-2.94 1.93c2.09 2.89 6.31 4.92 11.34 4.92 7.06 0 13.97-4.66 14.93-11.67.7-4.72-1.38-9.54-6.04-10.71zM182.53 39.55c-1.02 7.06-7.6 12.84-14.66 12.84-7.06 0-12.04-5.78-11.02-12.84L160 17.07h-3.21l-3.16 22.48c-1.28 8.88 4.87 16.05 13.75 16.05 8.88 0 17.07-7.17 18.36-16.05l3.16-22.48h-3.21l-3.16 22.48zM204.9 21.08c-5.3 0-10.33 5.03-11.18 11.24l-3.16 22.48h3.21l1.12-8.03h12.84l-1.12 8.03h3.21l3.16-22.48c.86-6.21-2.78-11.24-8.08-11.24zm3.26 22.48h-12.84l.21-1.61h12.84l-.21 1.61zm1.61-11.24-.91 6.42h-12.84l.91-6.42c.59-4.44 4.01-8.03 7.54-8.03s5.89 3.59 5.3 8.03zM242.04 49.98l.48-3.21h-16.05l4.17-29.7h-3.21l-5.3 37.73h19.27l.43-3.21h-16.06l.22-1.61z"/><path class="secondary" d="M42.58 39.55c-.64 4.44-4.76 8.03-9.2 8.03-4.44 0-7.49-3.58-6.85-8.03l3.16-22.48h-3.21l-3.16 22.48c-.91 6.21 3.42 11.24 9.63 11.24 6.21 0 11.93-5.03 12.84-11.24l3.16-22.48h-3.21l-3.16 22.48zM51.73 54.8h3.21l5.3-37.73h-3.21zM80.36 45.06 69.18 17.07h-3.75L80.95 54.8h1.29l5.29-37.73h-3.21zM117.29 39.55c-.64 4.44-4.76 8.03-9.2 8.03-4.44 0-7.49-3.58-6.85-8.03l3.16-22.48h-3.21l-3.16 22.48c-.91 6.21 3.42 11.24 9.63 11.24 6.21 0 11.93-5.03 12.84-11.24l3.16-22.48h-3.21l-3.16 22.48zM143.14 16.32c-6.58 0-13.22 4.66-14.18 11.77-.7 4.71 1.39 9.47 6.05 10.65l6.42 1.93c1.34.32 2.03 1.71 1.82 3.16-.32 2.25-2.78 3.69-5.94 3.69-2.25 0-4.28-.96-5.14-1.87l-2.94 1.93c1.5 1.87 4.39 3.16 7.6 3.16 4.66 0 9.04-2.62 9.63-6.69.38-2.73-.86-5.67-3.48-6.42l-6.47-1.77c-3.32-.91-4.82-4.44-4.33-7.92.7-5.03 5.51-8.4 10.43-8.4 3.26 0 5.94 1.44 7.33 3.21l2.84-2.09c-1.88-2.52-5.36-4.34-9.64-4.34zM177.71 39.55c-.64 4.44-4.76 8.03-9.2 8.03s-7.49-3.58-6.85-8.03l3.16-22.48h-3.21l-3.16 22.48c-.91 6.21 3.42 11.24 9.63 11.24 6.21 0 11.93-5.03 12.84-11.24l3.16-22.48h-3.21l-3.16 22.48zM205.6 16.27c-7.97 0-15.47 7.17-16.7 16.05l-3.16 22.48h3.21l3.16-22.48c.96-7.06 6.8-12.84 13-12.84 6.15 0 10.43 5.78 9.47 12.84l-3.16 22.48h3.21l3.16-22.48c1.24-8.88-4.27-16.05-12.19-16.05zM222.62 17.07l-5.3 37.73h3.21l5.3-37.73z"/></svg>
