<?xml version="1.0" encoding="utf-8"?>
<!-- Generator: Adobe Illustrator 25.3.1, SVG Export Plug-In . SVG Version: 6.00 Build 0)  -->
<svg version="1.1" xmlns="http://www.w3.org/2000/svg" xmlns:xlink="http://www.w3.org/1999/xlink" x="0px" y="0px"
	 viewBox="0 0 254.87 78.42" style="enable-background:new 0 0 254.87 78.42;" xml:space="preserve">
<g id="primary">
	<g>
		<path d="M47.4,39.55c-1.02,7.06-7.6,12.84-14.66,12.84c-7.06,0-12.04-5.78-11.02-12.84l3.16-22.48h-3.21L18.5,39.55
			c-1.28,8.88,4.87,16.05,13.75,16.05c8.88,0,17.07-7.17,18.35-16.05l3.16-22.48h-3.21L47.4,39.55z"/>
		<polygon points="61.85,17.07 56.55,54.8 59.76,54.8 63.83,25.79 75.49,54.8 79.03,54.8 63.45,17.07 		"/>
		<polygon points="83.84,54.8 87.05,54.8 92.35,17.07 89.14,17.07 		"/>
		<path d="M128.47,17.07h-3.21l-3.16,22.48c-1.02,7.06-7.6,12.84-14.66,12.84c-7.06,0-12.04-5.78-11.02-12.84l3.16-22.48h-3.21
			l-3.16,22.48c-1.28,8.88,4.87,16.05,13.75,16.05c8.88,0,17.07-7.17,18.35-16.05L128.47,17.07z"/>
		<path d="M145.28,33.18l-6.48-1.93c-1.34-0.27-2.03-1.66-1.87-3.1c0.32-2.25,2.36-3.8,4.98-3.8c1.77,0,3.37,0.7,3.96,1.5l2.73-2.09
			c-1.18-1.44-3.37-2.62-6.05-2.62c-4.12,0-8.13,2.68-8.72,6.8c-0.37,2.68,0.8,5.62,3.48,6.37l6.47,1.77
			c3.37,0.96,4.76,4.5,4.28,8.03c-0.75,5.03-5.94,8.24-11.4,8.24c-3.8,0-7.17-1.71-8.67-3.64l-2.94,1.93
			c2.09,2.89,6.31,4.92,11.34,4.92c7.06,0,13.97-4.66,14.93-11.67C152.02,39.17,149.94,34.35,145.28,33.18z"/>
		<path d="M182.53,39.55c-1.02,7.06-7.6,12.84-14.66,12.84c-7.06,0-12.04-5.78-11.02-12.84L160,17.07h-3.21l-3.16,22.48
			c-1.28,8.88,4.87,16.05,13.75,16.05c8.88,0,17.07-7.17,18.36-16.05l3.16-22.48h-3.21L182.53,39.55z"/>
		<path d="M204.9,21.08c-5.3,0-10.33,5.03-11.18,11.24l-3.16,22.48h3.21l1.12-8.03h12.84l-1.12,8.03h3.21l3.16-22.48
			C213.84,26.11,210.2,21.08,204.9,21.08z M208.16,43.56h-12.84l0.21-1.61h12.84L208.16,43.56z M209.77,32.32l-0.91,6.42h-12.84
			l0.91-6.42c0.59-4.44,4.01-8.03,7.54-8.03S210.36,27.88,209.77,32.32z"/>
		<polygon points="242.04,49.98 242.52,46.77 226.47,46.77 230.64,17.07 227.43,17.07 222.13,54.8 241.4,54.8 241.83,51.59 
			225.77,51.59 225.99,49.98 		"/>
	</g>
</g>
<g id="secondary">
	<g>
		<path d="M42.58,39.55c-0.64,4.44-4.76,8.03-9.2,8.03c-4.44,0-7.49-3.58-6.85-8.03l3.16-22.48h-3.21l-3.16,22.48
			c-0.91,6.21,3.42,11.24,9.63,11.24c6.21,0,11.93-5.03,12.84-11.24l3.16-22.48h-3.21L42.58,39.55z"/>
		<polygon points="51.73,54.8 54.94,54.8 60.24,17.07 57.03,17.07 		"/>
		<polygon points="80.36,45.06 69.18,17.07 65.43,17.07 80.95,54.8 82.24,54.8 87.53,17.07 84.32,17.07 		"/>
		<path d="M117.29,39.55c-0.64,4.44-4.76,8.03-9.2,8.03c-4.44,0-7.49-3.58-6.85-8.03l3.16-22.48h-3.21l-3.16,22.48
			c-0.91,6.21,3.42,11.24,9.63,11.24c6.21,0,11.93-5.03,12.84-11.24l3.16-22.48h-3.21L117.29,39.55z"/>
		<path d="M143.14,16.32c-6.58,0-13.22,4.66-14.18,11.77c-0.7,4.71,1.39,9.47,6.05,10.65l6.42,1.93c1.34,0.32,2.03,1.71,1.82,3.16
			c-0.32,2.25-2.78,3.69-5.94,3.69c-2.25,0-4.28-0.96-5.14-1.87l-2.94,1.93c1.5,1.87,4.39,3.16,7.6,3.16c4.66,0,9.04-2.62,9.63-6.69
			c0.38-2.73-0.86-5.67-3.48-6.42l-6.47-1.77c-3.32-0.91-4.82-4.44-4.33-7.92c0.7-5.03,5.51-8.4,10.43-8.4
			c3.26,0,5.94,1.44,7.33,3.21l2.84-2.09C150.9,18.14,147.42,16.32,143.14,16.32z"/>
		<path d="M177.71,39.55c-0.64,4.44-4.76,8.03-9.2,8.03s-7.49-3.58-6.85-8.03l3.16-22.48h-3.21l-3.16,22.48
			c-0.91,6.21,3.42,11.24,9.63,11.24c6.21,0,11.93-5.03,12.84-11.24l3.16-22.48h-3.21L177.71,39.55z"/>
		<path d="M205.6,16.27c-7.97,0-15.47,7.17-16.7,16.05l-3.16,22.48h3.21l3.16-22.48c0.96-7.06,6.8-12.84,13-12.84
			c6.15,0,10.43,5.78,9.47,12.84l-3.16,22.48h3.21l3.16-22.48C219.03,23.44,213.52,16.27,205.6,16.27z"/>
		<polygon points="222.62,17.07 217.32,54.8 220.53,54.8 225.83,17.07 		"/>
	</g>
</g>
</svg>
