<svg xmlns="http://www.w3.org/2000/svg" viewBox="0 0 254.9 78.4" style="enable-background:new 0 0 254.9 78.4" xml:space="preserve"><path class="secondary box" d="M242.4 9.7v59H12.5v-59h229.9m5.7-5.3H6.8V74H248V4.4z"/><path class="primary text" d="M18.9 15.7h21.4v37.8h1V15.7h19.3v37.8h1V15.7H83v46.9H18.9V15.7zm90.6 37.6h-1v9.4H84v-47h50.2v46.9h-24.5l-.2-9.3zm-.9-9.1h1V24.8h-1v19.4zm52 8.2h-1v10.3h-24.5v-47h24.5v27.5h1V15.7h24.5v46.9h-24.5V52.4zm25.6-36.7h24.5v37.8h1V26H236v36.6h-49.8V15.7z"/></svg>
