<svg xmlns="http://www.w3.org/2000/svg" viewBox="0 0 254.87 78.42"><path class="x secondary" d="M28 30.63c-1.33-.1-5.85 4-9.23 11.59-.41 1.03-1.44 1.13-1.85.21-.51-1.54-.1-4 .72-6.05 2.15-5.43 8.61-11.18 14.25-10.15 3.49.72 4.92 2.97 5.95 7.9.51 2.67 1.13 6.05 1.54 9.64 6.05-4.92 12.1-10.46 16.92-16.51 1.13-1.44 2.26-1.54 2.26.21 0 3.69-2.26 6.97-6.05 11.38-2.46 2.77-6.97 6.46-12.31 10.66.82 4.72 1.33 9.33 1.95 12.31.92 4.51 2.26 6.05 3.59 6.15 4.2.21 9.02-8 12.31-14.87.41-1.03 1.33-1.13 1.64-.21.51 1.33.51 4-1.03 7.08-3.38 6.67-9.23 11.79-14.87 11.79-5.95 0-9.13-3.49-10.46-12.82-.1-.72-.21-1.95-.41-3.28-5.54 4.61-11.08 9.74-15.48 15.38-.92 1.03-2.77 1.54-2.56-.31.31-3.79 2.56-7.18 6.77-11.69 2.67-2.97 6.46-5.95 10.56-9.33-1.24-8.41-3.09-18.97-4.21-19.08z"/><path class="trace primary" d="M239.86 52.68c-.41-1.03-1.33-1.03-1.95-.1-4.82 7.38-13.02 16.41-22.36 16-5.95-.31-8.61-7.38-5.02-17.74 7.9 6.46 15.38 3.49 20.92-3.28 4.72-5.74 5.64-12.61 3.59-15.28-1.85-2.46-3.79-4.2-6.67-5.85-5.64-3.28-17.13 2.56-24.41 17.13-1.95 3.9-3.08 7.9-3.28 11.49-4.72 6.56-12.1 13.74-20.51 13.64-6.67-.1-9.02-9.43-2.77-22.15 5.02-10.25 13.54-17.43 15.38-15.89 1.54 1.23-1.85 6.05-3.08 10.15-1.54 5.02 0 8.41 2.67 9.74 1.44.82 1.95.41 2.36-.92 2.26-6.05 6.77-12 4.41-16.72-1.33-2.56-3.18-4.41-6.15-6.15-5.64-3.38-17.02 2.67-24.2 16.92-2.26 4.61-3.38 9.13-3.38 13.13-3.9 6.46-8.92 12-12.82 12.2-3.79.21-3.69-4.61-.92-10.87 2.67-5.95 8.31-14.36 10.77-19.48 2.67-5.64 1.85-10.46.1-12.51-.82-1.03-1.64-.82-2.67.72-1.23 1.85-2.56 4.2-4 6.87.21-4.41-2.05-8.1-6.87-8.1-5.64 0-14.56 5.02-23.59 18.36-2.36 3.38-3.9 6.77-4.92 10.05-3.69 8.2-9.33 15.18-13.84 14.97-3.38-.1-4.82-4.61-2.77-10.77 1.95-5.95 7.49-13.54 12.92-19.59 3.38-3.79.41-8.92-1.64-11.38-1.03-1.13-1.85-.82-3.28.21-4.2 2.97-8.31 4.82-12.31 5.13 3.08-7.28 4.2-14.25.41-14.05-4.61.21-15.59 15.38-7.18 18.77-6.97 17.43-18.77 31.28-25.53 31.48-4.61.1-6.15-6.77-2.36-15.18 4.31-9.43 10.77-20.2 15.18-27.89 3.08-.21 5.85-.21 8.1-.1 1.64.1 2.26-.41 1.54-1.64-1.03-1.85-3.18-3.69-6.77-3.9 2.67-5.95 2.77-9.95 1.54-12.92-.51-1.44-1.64-1.54-2.67 0-2.05 2.46-5.02 7.79-8.51 13.95-2.67.21-5.64.51-9.23.31-1.64-.1-2.26.82-1.23 2.26 1.03 1.44 3.49 3.08 7.18 3.18-4.82 8.61-9.64 18.25-11.9 23.69-5.43 12.92.72 21.53 8.2 21.53 11.79 0 23.48-17.02 30.97-33.94 3.69 0 8.61-1.13 13.74-4.31-4.82 5.43-11.69 13.84-14.05 21.33-2.77 9.02.51 16.72 9.13 17.13 5.02.21 10.36-2.97 13.74-7.79 1.03 4.51 4 7.49 8.82 7.49 5.43 0 10.46-4.2 14.05-8.82 0 5.33 3.18 8.92 9.23 9.23 5.23.31 11.08-4.1 14.56-9.23 2.05 5.43 6.87 9.02 14.15 8.92 7.9-.1 16-4.82 20.61-10.66 1.54 6.46 6.67 10.97 14.77 10.77 8.61-.1 17.33-5.33 22.05-12.1 1.85-3.44 2.16-6.51 1.75-7.44zm-27.49-6.36c5.33-10.66 14.66-17.43 17.02-15.48 1.54 1.23-.92 7.08-4.51 11.79-3.28 4.31-7.9 9.13-13.43 5.64.31-.51.62-1.23.92-1.95zm-82.55 21.54c-4.41-.1-2.97-10.05 3.08-19.69 6.15-10.05 14.36-17.33 18.05-17.02 3.28.31 2.26 7.28-4.82 19.69-5.85 9.94-11.69 17.12-16.31 17.02z"/></svg>
