<svg xmlns="http://www.w3.org/2000/svg" viewBox="0 0 254.9 78.4" style="enable-background:new 0 0 254.9 78.4" xml:space="preserve"><path class="secondary" d="M34.1 31.2c-1.2-.1-5.5 3.8-8.7 10.9-.4 1-1.4 1.1-1.7.2-.5-1.4-.1-3.8.7-5.7 2-5.1 8.1-10.5 13.4-9.5 3.3.7 4.6 2.8 5.6 7.4.5 2.5 1.1 5.7 1.4 9.1 5.7-4.6 11.4-9.8 15.9-15.5 1.1-1.4 2.1-1.4 2.1.2 0 3.5-2.1 6.5-5.7 10.7-2.3 2.6-6.5 6.1-11.6 10 .8 4.4 1.2 8.8 1.8 11.6.9 4.2 2.1 5.7 3.4 5.8 3.9.2 8.5-7.5 11.6-14 .4-1 1.2-1.1 1.5-.2.5 1.2.5 3.8-1 6.6-3.2 6.3-8.7 11.1-14 11.1-5.6 0-8.6-3.3-9.8-12-.1-.7-.2-1.8-.4-3.1-5.2 4.3-10.4 9.1-14.5 14.4-.9 1-2.6 1.4-2.4-.3.3-3.6 2.4-6.7 6.4-11 2.5-2.8 6.1-5.6 9.9-8.8-1.1-7.9-2.9-17.8-3.9-17.9z"/><path d="M233 51.9c-.4-1-1.2-1-1.8-.1-4.5 6.9-12.2 15.4-21 15-5.6-.3-8.1-6.9-4.7-16.7 7.4 6.1 14.4 3.3 19.6-3.1 4.4-5.4 5.3-11.8 3.4-14.3-1.7-2.3-3.6-3.9-6.3-5.5-5.3-3.1-16.1 2.4-22.9 16.1-1.8 3.7-2.9 7.4-3.1 10.8-4.4 6.2-11.4 12.9-19.3 12.8-6.3-.1-8.5-8.9-2.6-20.8 4.7-9.6 12.7-16.4 14.4-14.9 1.4 1.2-1.7 5.7-2.9 9.5-1.4 4.7 0 7.9 2.5 9.1 1.4.8 1.8.4 2.2-.9 2.1-5.7 6.4-11.3 4.1-15.7-1.2-2.4-3-4.1-5.8-5.8-5.3-3.2-16 2.5-22.7 15.9-2.1 4.3-3.2 8.6-3.2 12.3-3.7 6.1-8.4 11.3-12 11.5-3.6.2-3.5-4.3-.9-10.2 2.5-5.6 7.8-13.5 10.1-18.3 2.5-5.3 1.7-9.8.1-11.7-.8-1-1.5-.8-2.5.7-1.2 1.7-2.4 3.9-3.8 6.4.2-4.1-1.9-7.6-6.4-7.6-5.3 0-13.7 4.7-22.1 17.2-2.2 3.2-3.7 6.4-4.6 9.4-3.5 7.7-8.8 14.3-13 14.1-3.2-.1-4.5-4.3-2.6-10.1 1.8-5.6 7-12.7 12.1-18.4 3.2-3.6.4-8.4-1.5-10.7-1-1.1-1.7-.8-3.1.2-3.9 2.8-7.8 4.5-11.6 4.8 2.9-6.8 3.9-13.4.4-13.2-4.2.3-14.5 14.6-6.6 17.7C88.4 53.8 77.3 66.8 71 67c-4.3.1-5.8-6.4-2.2-14.3 4-8.9 10.1-19 14.3-26.2 2.9-.2 5.5-.2 7.6-.1 1.5.1 2.1-.4 1.4-1.5-1-1.7-3-3.5-6.4-3.7 2.5-5.6 2.6-9.3 1.4-12.1-.5-1.4-1.5-1.4-2.5 0-1.9 2.3-4.7 7.3-8 13.1-2.5.2-5.3.5-8.7.3-1.5-.1-2.1.8-1.2 2.1s3.3 2.9 6.7 3c-4.5 8.1-9.1 17.1-11.2 22.2-5.1 12.1.7 20.2 7.7 20.2C81 70 91.9 54 99 38.1c3.5 0 8.1-1.1 12.9-4-4.5 5.1-11 13-13.2 20-2.6 8.5.5 15.7 8.6 16.1 4.7.2 9.7-2.8 12.9-7.3 1 4.2 3.8 7 8.3 7 5.1 0 9.8-3.9 13.2-8.3 0 5 3 8.4 8.7 8.7 4.9.3 10.4-3.8 13.7-8.7 1.9 5.1 6.4 8.5 13.3 8.4 7.4-.1 15-4.5 19.3-10 1.4 6.1 6.3 10.3 13.9 10.1 8.1-.1 16.3-5 20.7-11.4 1.8-3.1 2.1-6 1.7-6.8zm-25.8-6c5-10 13.8-16.4 16-14.5 1.4 1.2-.9 6.6-4.2 11.1-3.1 4-7.4 8.6-12.6 5.3.2-.6.5-1.2.8-1.9zm-77.5 20.2c-4.1-.1-2.8-9.4 2.9-18.5 5.8-9.4 13.5-16.3 16.9-16 3.1.3 2.1 6.8-4.5 18.5-5.5 9.4-11 16.1-15.3 16z"/></svg>
